<svg viewBox="0 0 140 132" fill="none" xmlns="http://www.w3.org/2000/svg">
<path d="M23.7313 75.1129H16.6208L12.5026 91.2768L8.38446 75.1129H1.09619V95.7286H5.74764V86.586C5.74764 84.5842 5.74764 81.8952 5.68839 79.7738C6.07354 81.8952 6.75497 84.5842 7.31788 86.5561L9.95469 95.7286H14.8728L17.4503 86.5561C18.0429 84.5842 18.7243 81.8653 19.1391 79.744C19.0798 81.8653 19.0798 84.5842 19.0798 86.586V95.7286H23.7313V75.1129Z" fill="#4ADC8C"/>
<path d="M49.8956 89.9023L51.7621 95.7285H56.7987L49.5104 75.1128H43.7628L36.3856 95.7285H41.3333L43.2295 89.9023H49.8956ZM46.5773 79.1762L48.7401 86.2273H44.3849L46.5773 79.1762Z" fill="#4ADC8C"/>
<path d="M78.6981 85.0023V88.6474H82.8459C82.3126 91.2766 80.6535 92.6809 78.2833 92.6809C75.3799 92.6809 73.0689 90.44 73.0689 85.2712C73.0689 80.6999 75.3502 78.1603 78.3426 78.1603C80.8312 78.1603 82.283 79.445 82.757 81.8352L82.8163 82.134H87.4381L87.4085 81.8352C86.9937 77.7719 84.0902 74.6945 78.4018 74.6945C72.7431 74.6945 68.1805 78.6084 68.1805 85.5401C68.1805 92.2626 71.8839 96.1467 77.4538 96.1467C79.6758 96.1467 81.1571 95.6985 82.3126 94.6229L83.231 92.4717L83.5866 95.7284H87.2603V85.0023H78.6981Z" fill="#4ADC8C"/>
<path d="M106.521 95.7285V75.1128H101.87V95.7285H106.521Z" fill="#4ADC8C"/>
<path d="M130.435 74.6945C124.806 74.6945 120.422 78.6084 120.422 85.5401C120.422 92.2925 124.569 96.1467 130.169 96.1467C135.354 96.1467 138.879 93.4278 139.353 88.7669L139.383 88.4681H134.731L134.672 88.7669C134.198 91.2169 132.746 92.6809 130.347 92.6809C127.562 92.6809 125.31 90.44 125.31 85.2712C125.31 80.6999 127.414 78.1603 130.376 78.1603C132.835 78.1603 134.287 79.445 134.761 81.8352L134.82 82.134H139.472L139.442 81.8352C139.027 77.7719 136.094 74.6945 130.435 74.6945Z" fill="#4ADC8C"/>
<path d="M4.50332 117.32C3.17998 117.32 2.21216 117.679 1.36285 118.635L0.750553 119.81V117.48H0V132H0.750553V125.945L1.3431 127.18C2.1134 128.016 3.04172 128.375 4.24655 128.375C6.79448 128.375 9.06589 126.503 9.06589 122.738C9.06589 119.591 7.30802 117.32 4.50332 117.32ZM4.24655 127.738C2.64669 127.738 0.750553 126.722 0.750553 123.475V122.439C0.750553 119.113 2.44917 117.958 4.42431 117.958C6.91299 117.958 8.23633 120.188 8.23633 122.858C8.23633 125.805 6.57722 127.738 4.24655 127.738Z" fill="#4ADC8C"/>
<path d="M26.213 117.32C23.1318 117.32 21.2554 119.611 21.2554 122.858C21.2554 126.084 23.1318 128.375 26.213 128.375C29.2942 128.375 31.1706 126.084 31.1706 122.858C31.1706 119.611 29.2942 117.32 26.213 117.32ZM26.213 127.738C24.0008 127.738 22.0849 126.104 22.0849 122.858C22.0849 119.591 24.0008 117.958 26.213 117.958C28.4251 117.958 30.3608 119.591 30.3608 122.858C30.3608 126.104 28.4251 127.738 26.213 127.738Z" fill="#4ADC8C"/>
<path d="M57.107 117.599H56.2972L53.4135 127.319L50.589 117.619H49.6014L46.7967 127.359L43.834 117.599H42.965L46.2832 128.096H47.2905L50.0952 118.396L52.8999 128.096H53.8085L57.107 117.599Z" fill="#4ADC8C"/>
<path d="M77.9476 122.559C77.9476 119.83 76.5057 117.32 73.5627 117.32C70.9161 117.32 68.8422 119.491 68.8422 122.818C68.8422 126.503 70.8963 128.375 73.385 128.375C75.3996 128.375 77.2168 127.2 77.7895 124.829H77.0192C76.5057 126.821 75.0046 127.738 73.4245 127.738C71.6074 127.738 69.7507 126.463 69.6322 123.057H77.9278C77.9476 122.798 77.9476 122.658 77.9476 122.559ZM73.5232 117.958C75.2811 117.958 77.0587 119.153 77.1773 122.399H69.6322C69.7507 119.392 71.7061 117.958 73.5232 117.958Z" fill="#4ADC8C"/>
<path d="M94.5218 117.32C93.6725 117.32 92.9219 117.738 92.4084 118.456L91.8553 119.73V117.599H91.1048V128.096H91.8553V122.28C91.8553 119.093 93.1787 117.858 95.0551 117.997V117.38C94.8971 117.34 94.7193 117.32 94.5218 117.32Z" fill="#4ADC8C"/>
<path d="M115.718 122.559C115.718 119.83 114.276 117.32 111.333 117.32C108.686 117.32 106.612 119.491 106.612 122.818C106.612 126.503 108.667 128.375 111.155 128.375C113.17 128.375 114.987 127.2 115.56 124.829H114.79C114.276 126.821 112.775 127.738 111.195 127.738C109.378 127.738 107.521 126.463 107.402 123.057H115.698C115.718 122.798 115.718 122.658 115.718 122.559ZM111.294 117.958C113.051 117.958 114.829 119.153 114.948 122.399H107.402C107.521 119.392 109.476 117.958 111.294 117.958Z" fill="#4ADC8C"/>
<path d="M137.111 113.456H136.361V119.73L135.768 118.515C134.998 117.679 134.07 117.32 132.865 117.32C130.317 117.32 128.046 119.192 128.046 122.937C128.046 126.104 129.803 128.375 132.608 128.375C133.931 128.375 134.899 128.016 135.749 127.06L136.361 125.865V128.096H137.111V113.456ZM132.687 127.738C130.198 127.738 128.875 125.487 128.875 122.838C128.875 119.89 130.534 117.958 132.865 117.958C134.465 117.958 136.361 118.973 136.361 122.22V123.236C136.361 126.582 134.662 127.738 132.687 127.738Z" fill="#4ADC8C"/>
<path d="M93.819 0H44.4406V49.7963H93.819V0Z" fill="#4ADC8C"/>
</svg>
