<svg viewBox="0 0 268 132" fill="none" xmlns="http://www.w3.org/2000/svg">
<path d="M103.681 0.798158L98.0038 21.9456C97.0057 21.7585 95.9452 21.6337 94.8847 21.6337C93.3251 21.6337 91.828 21.8208 90.3308 22.1951C87.7731 22.8813 85.465 24.129 83.5312 25.7509L68.0605 10.2802C70.0567 8.40874 72.2401 6.72443 74.6106 5.35203L75.7958 4.66583C78.5406 3.16867 81.535 1.92103 84.6541 1.11007C87.8979 0.236722 91.3289 -0.199951 94.8223 -0.199951C97.9414 -0.199951 100.873 0.111958 103.681 0.798158Z" fill="#4ADC8C"/>
<path d="M211.851 30.3048C212.537 33.112 212.849 36.0439 212.849 39.1006C212.849 42.6564 212.412 46.025 211.539 49.2689C210.728 52.388 209.48 55.3199 207.983 58.1271L207.297 59.3748C205.862 61.7453 204.24 63.9286 202.369 65.9248L186.898 50.4541C188.52 48.5203 189.767 46.2122 190.454 43.6545C190.828 42.2197 191.015 40.7226 191.015 39.1006C191.015 38.0402 190.953 37.042 190.766 36.0439L211.851 30.3048Z" fill="#4ADC8C"/>
<path d="M167.684 55.6319L162.008 76.7793C159.388 75.9683 156.892 74.9078 154.522 73.5978L153.336 72.9116C150.529 71.2273 148.034 69.2311 145.726 66.9853L144.603 65.8001C143.73 64.8644 142.856 63.8039 142.108 62.8058L157.329 47.5846L160.698 51.078C160.822 51.2651 161.009 51.3899 161.197 51.577C162.943 53.3237 165.189 54.7585 167.684 55.6319Z" fill="#4ADC8C"/>
<path d="M126.388 15.5203L111.166 30.7415L107.798 27.2481C107.611 27.0609 107.486 26.9362 107.299 26.749C105.49 24.94 103.244 23.5052 100.811 22.6318L106.425 1.48438C109.045 2.29534 111.603 3.35583 113.911 4.66585L115.096 5.35205C117.904 7.03636 120.461 9.03258 122.707 11.2783L123.83 12.4636C124.703 13.4617 125.577 14.5222 126.388 15.5203Z" fill="#4ADC8C"/>
<path d="M184.839 52.4503L200.31 67.921C198.314 69.7925 196.13 71.4768 193.76 72.8492L192.575 73.5354C189.83 75.0325 186.835 76.2802 183.716 77.0911C180.473 77.9645 177.042 78.4012 173.548 78.4012C170.491 78.4012 167.56 78.0893 164.752 77.4031L170.429 56.2556C171.427 56.4428 172.488 56.5675 173.548 56.5675C175.108 56.5675 176.667 56.3804 178.102 56.0061C180.597 55.3199 182.905 54.1346 184.839 52.4503Z" fill="#4ADC8C"/>
<path d="M104.429 53.7603L119.837 69.4806C118.34 70.7282 116.781 71.8511 115.096 72.7868L113.849 73.473C111.104 75.0325 108.11 76.2178 105.053 77.0288C101.809 77.9021 98.3781 78.3388 94.8847 78.3388C91.3913 78.3388 87.9603 77.9021 84.7164 77.0288C81.5973 76.2178 78.6654 74.9702 75.9206 73.473L74.673 72.7244C71.9282 71.1025 69.3705 69.1063 67.1248 66.7981C64.879 64.5524 62.8828 61.9947 61.1985 59.2499L60.5123 58.0647C59.2023 55.6942 58.1418 53.1989 57.3308 50.5789L78.4159 44.8397C79.2892 47.335 80.724 49.5807 82.5331 51.4522C84.6541 53.5732 87.3989 55.1951 90.3932 56.0061C91.828 56.3804 93.3251 56.5675 94.9471 56.5675C96.5066 56.5675 98.0662 56.3804 99.5009 56.0061C101.248 55.507 102.932 54.7584 104.429 53.7603Z" fill="#4ADC8C"/>
<path d="M66.1266 12.3387L81.5973 27.8094C79.9754 29.7433 78.7278 32.0514 78.0416 34.6091C77.6673 36.0438 77.4801 37.541 77.4801 39.1629C77.4801 40.2234 77.5425 41.2215 77.7297 42.2197L56.6446 47.9588C55.9584 45.1516 55.6465 42.1573 55.6465 39.1629C55.6465 35.6072 56.0832 32.2386 56.9565 28.9947C57.7675 25.8756 59.0151 22.9437 60.5123 20.1989L61.1985 18.9512C62.5709 16.5183 64.2552 14.335 66.1266 12.3387Z" fill="#4ADC8C"/>
<path d="M211.102 27.56L190.017 33.3615C189.143 30.8662 187.709 28.6205 185.9 26.749C183.779 24.628 181.034 23.0061 178.04 22.1951C176.605 21.8208 175.108 21.6337 173.486 21.6337C171.864 21.6337 170.367 21.8208 168.932 22.1951C167.123 22.6942 165.438 23.4428 163.879 24.4409L148.471 8.72065C149.968 7.47302 151.527 6.35014 153.212 5.41442L154.459 4.66583C157.204 3.16867 160.198 1.92103 163.255 1.11007C166.499 0.236722 169.93 -0.199951 173.423 -0.199951C176.917 -0.199951 180.348 0.236722 183.592 1.11007C186.711 1.92103 189.643 3.16867 192.387 4.66583L193.635 5.41442C196.38 7.03634 198.937 9.03256 201.183 11.3407C203.429 13.5864 205.425 16.1441 207.109 18.8889L207.796 20.0742C209.23 22.4447 210.291 24.9399 211.102 27.56Z" fill="#4ADC8C"/>
<path d="M1 131.613V105.038H5.24197L16.2212 122.568V105.038H21.5236V131.613H17.2817L6.30246 114.084V131.613H1Z" fill="#4ADC8C"/>
<path d="M36.9317 131.8C36.3703 131.8 35.6841 131.738 34.9979 131.613C34.2493 131.488 33.5631 131.301 32.8769 130.864C32.1907 130.49 31.6293 129.929 31.1926 129.118C30.7559 128.307 30.5688 127.246 30.5688 125.874V111.027C30.5688 109.842 30.7559 108.844 31.1302 108.095C31.5045 107.284 31.9412 106.66 32.565 106.223C33.1264 105.787 33.8126 105.475 34.4988 105.225C35.185 105.038 35.9336 104.913 36.6198 104.913C38.3665 104.913 39.9884 104.913 41.2985 104.976C42.6709 105.038 43.9185 105.101 44.979 105.163C46.0395 105.225 47.0376 105.288 47.9733 105.35V109.779H38.117C37.3684 109.779 36.807 109.966 36.4327 110.341C36.0584 110.715 35.8089 111.276 35.8089 111.963V115.83L46.2266 116.142V120.322L35.8089 120.634V124.314C35.8089 124.938 35.9336 125.437 36.1208 125.811C36.3079 126.123 36.6198 126.373 36.9317 126.56C37.306 126.685 37.6803 126.747 38.0546 126.747H47.9733V131.176C46.9128 131.301 45.79 131.363 44.4799 131.488C43.2323 131.551 41.9223 131.613 40.6123 131.675C39.3022 131.738 38.117 131.8 36.9317 131.8Z" fill="#4ADC8C"/>
<path d="M62.4459 131.613V109.779H55.2097V105.038H74.9223V109.779H67.686V131.613H62.4459Z" fill="#4ADC8C"/>
<path d="M82.2833 131.613V105.038H87.5858V116.08H97.5045V105.038H102.807V131.613H97.5045V120.883H87.5858V131.613H82.2833Z" fill="#4ADC8C"/>
<path d="M118.215 131.8C117.654 131.8 116.968 131.738 116.282 131.613C115.533 131.488 114.847 131.301 114.161 130.864C113.474 130.49 112.913 129.929 112.476 129.118C112.04 128.307 111.853 127.246 111.853 125.874V111.027C111.853 109.842 112.04 108.844 112.414 108.095C112.788 107.284 113.225 106.66 113.849 106.223C114.41 105.787 115.096 105.475 115.783 105.225C116.469 105.038 117.217 104.913 117.904 104.913C119.65 104.913 121.272 104.913 122.582 104.976C123.955 105.038 125.202 105.101 126.263 105.163C127.323 105.225 128.321 105.288 129.257 105.35V109.779H119.463C118.715 109.779 118.153 109.966 117.779 110.341C117.405 110.715 117.155 111.276 117.155 111.963V115.83L127.573 116.142V120.322L117.155 120.634V124.314C117.155 124.938 117.28 125.437 117.467 125.811C117.654 126.123 117.966 126.373 118.278 126.56C118.652 126.685 119.026 126.747 119.401 126.747H129.319V131.176C128.259 131.301 127.136 131.363 125.826 131.488C124.578 131.551 123.268 131.613 121.958 131.675C120.586 131.738 119.401 131.8 118.215 131.8Z" fill="#4ADC8C"/>
<path d="M139.051 131.613V105.038H149.905C150.966 105.038 151.901 105.163 152.837 105.413C153.711 105.662 154.521 106.099 155.208 106.723C155.894 107.346 156.455 108.22 156.83 109.28C157.204 110.403 157.453 111.775 157.453 113.522C157.453 114.77 157.329 115.768 157.079 116.641C156.83 117.515 156.518 118.201 156.143 118.762C155.769 119.324 155.332 119.76 154.833 120.072C154.334 120.384 153.835 120.696 153.274 120.883L158.202 131.55H152.837L148.595 121.694C148.283 121.694 147.971 121.694 147.597 121.694C147.223 121.694 146.849 121.632 146.474 121.632C146.1 121.632 145.726 121.632 145.351 121.632C144.977 121.632 144.603 121.632 144.291 121.569V131.488H139.051V131.613ZM144.291 117.515H148.969C149.469 117.515 149.843 117.452 150.28 117.327C150.654 117.203 150.966 117.016 151.278 116.704C151.59 116.392 151.777 115.955 151.901 115.456C152.089 114.957 152.151 114.333 152.151 113.522C152.151 112.774 152.089 112.15 151.901 111.713C151.777 111.214 151.527 110.84 151.278 110.59C150.966 110.278 150.654 110.091 150.28 110.029C149.905 109.904 149.469 109.842 148.969 109.842H144.291V117.515Z" fill="#4ADC8C"/>
<path d="M165.75 131.613L168.807 105.038H173.86L179.911 125.375L185.9 105.038H190.89L194.009 131.613H188.957L186.648 112.025L187.459 112.087L182.344 131.613H177.354L172.176 112.087H173.049L170.866 131.613H165.75Z" fill="#4ADC8C"/>
<path d="M208.42 105.038H203.18V131.613H208.42V105.038Z" fill="#4ADC8C"/>
<path d="M217.527 131.613V105.038H221.769L232.811 122.568V105.038H238.051V131.613H233.809L222.83 114.084V131.613H217.527Z" fill="#4ADC8C"/>
<path d="M247.097 131.613V105.038H258.201C259.947 105.038 261.445 105.35 262.63 106.036C263.815 106.66 264.751 107.596 265.437 108.781C266.123 109.966 266.622 111.339 266.934 112.961C267.246 114.583 267.371 116.392 267.371 118.326C267.371 121.32 266.996 123.815 266.31 125.749C265.624 127.683 264.626 129.18 263.316 130.178C261.944 131.114 260.259 131.613 258.201 131.613H247.097ZM252.337 126.809H257.639C258.7 126.809 259.573 126.498 260.259 125.874C260.883 125.25 261.382 124.252 261.632 123.004C261.944 121.757 262.068 120.197 262.068 118.326C262.068 116.579 261.944 115.206 261.756 114.084C261.569 112.961 261.257 112.087 260.883 111.464C260.509 110.84 260.072 110.403 259.511 110.154C258.949 109.904 258.325 109.779 257.577 109.779H252.274V126.809H252.337Z" fill="#4ADC8C"/>
</svg>
