<svg viewBox="0 0 24 24" fill="none" xmlns="http://www.w3.org/2000/svg">
<path d="M12 24C5.34375 24 0 18.6562 0 12C0 5.39062 5.34375 0 12 0C18.6094 0 24 5.39062 24 12C24 18.6562 18.6094 24 12 24ZM17.2969 9.79688H17.25C17.7188 9.375 17.7188 8.67188 17.25 8.20312C16.8281 7.78125 16.125 7.78125 15.7031 8.20312L10.5 13.4531L8.29688 11.25C7.82812 10.7812 7.125 10.7812 6.70312 11.25C6.23438 11.6719 6.23438 12.375 6.70312 12.7969L9.70312 15.7969C10.125 16.2656 10.8281 16.2656 11.2969 15.7969L17.2969 9.79688Z" fill="#1F4B34"/>
<path d="M17.2969 9.79688H17.25C17.7188 9.375 17.7188 8.67188 17.25 8.20312C16.8281 7.78125 16.125 7.78125 15.7031 8.20312L10.5 13.4531L8.29688 11.25C7.82812 10.7812 7.125 10.7812 6.70312 11.25C6.23438 11.6719 6.23438 12.375 6.70312 12.7969L9.70312 15.7969C10.125 16.2656 10.8281 16.2656 11.2969 15.7969L17.2969 9.79688Z" fill="#4ADC8C"/>
</svg>
