<svg viewBox="0 0 16 16" fill="none" xmlns="http://www.w3.org/2000/svg">
<path id="Vector" d="M9.66322 7.99992L14.3187 3.34448C14.5396 3.12392 14.6639 2.82463 14.6642 2.51244C14.6644 2.20025 14.5407 1.90074 14.3201 1.67979C14.0996 1.45885 13.8003 1.33457 13.4881 1.33429C13.1759 1.33402 12.8764 1.45777 12.6554 1.67832L8 6.33376L3.34456 1.67832C3.12362 1.45738 2.82395 1.33325 2.51148 1.33325C2.19902 1.33325 1.89935 1.45738 1.6784 1.67832C1.45746 1.89927 1.33333 2.19894 1.33333 2.5114C1.33333 2.82387 1.45746 3.12354 1.6784 3.34448L6.33384 7.99992L1.6784 12.6554C1.45746 12.8763 1.33333 13.176 1.33333 13.4884C1.33333 13.8009 1.45746 14.1006 1.6784 14.3215C1.89935 14.5425 2.19902 14.6666 2.51148 14.6666C2.82395 14.6666 3.12362 14.5425 3.34456 14.3215L8 9.66608L12.6554 14.3215C12.8764 14.5425 13.1761 14.6666 13.4885 14.6666C13.801 14.6666 14.1006 14.5425 14.3216 14.3215C14.5425 14.1006 14.6667 13.8009 14.6667 13.4884C14.6667 13.176 14.5425 12.8763 14.3216 12.6554L9.66322 7.99992Z" fill="currentColor"/>
</svg>
