<svg viewBox="0 0 80 64" fill="none" xmlns="http://www.w3.org/2000/svg">
<path d="M50 0C53.25 0 56 2.75 56 6V18C56 21.375 53.25 24 50 24H41V31H79C79.5 31 80 31.5 80 32C80 32.625 79.5 33 79 33H61V40H70C73.25 40 76 42.75 76 46V58C76 61.375 73.25 64 70 64H50C46.625 64 44 61.375 44 58V46C44 42.75 46.625 40 50 40H59V33H21V40H30C33.25 40 36 42.75 36 46V58C36 61.375 33.25 64 30 64H10C6.625 64 4 61.375 4 58V46C4 42.75 6.625 40 10 40H19V33H1C0.375 33 0 32.625 0 32C0 31.5 0.375 31 1 31H39V24H30C26.625 24 24 21.375 24 18V6C24 2.75 26.625 0 30 0H50ZM50 2H30C27.75 2 26 3.875 26 6V18C26 20.25 27.75 22 30 22H50C52.125 22 54 20.25 54 18V6C54 3.875 52.125 2 50 2ZM6 46V58C6 60.25 7.75 62 10 62H30C32.125 62 34 60.25 34 58V46C34 43.875 32.125 42 30 42H10C7.75 42 6 43.875 6 46ZM70 42H50C47.75 42 46 43.875 46 46V58C46 60.25 47.75 62 50 62H70C72.125 62 74 60.25 74 58V46C74 43.875 72.125 42 70 42Z" fill="currentColor"/>
</svg>
