<svg viewBox="0 0 64 56" fill="none" xmlns="http://www.w3.org/2000/svg">
<path d="M55 8C55.5 8 56 8.5 56 9C56 9.625 55.5 10 55 10H45C44.375 10 44 9.625 44 9C44 8.5 44.375 8 45 8H55ZM55 18H45C44.375 18 44 17.625 44 17C44 16.5 44.375 16 45 16H55C55.5 16 56 16.5 56 17C56 17.625 55.5 18 55 18ZM55 24C55.5 24 56 24.5 56 25C56 25.625 55.5 26 55 26H45C44.375 26 44 25.625 44 25C44 24.5 44.375 24 45 24H55ZM56 0C60.375 0 64 3.625 64 8V48C64 52.5 60.375 56 56 56H8C3.5 56 0 52.5 0 48V8C0 3.625 3.5 0 8 0H56ZM2 8V48C2 51.375 4.625 54 8 54H36V2H8C4.625 2 2 4.75 2 8ZM56 2H38V54H56C59.25 54 62 51.375 62 48V8C62 4.75 59.25 2 56 2Z" fill="currentColor"/>
</svg>
