<svg width="166" height="32" viewBox="0 0 166 32" fill="none" xmlns="http://www.w3.org/2000/svg">
<g id="Frame" clip-path="url(#clip0_1065_39520)">
<g id="Group">
<path id="Vector" d="M9.28027 14.5969V22.7376H13.4501V18.0528H15.1988L17.5347 22.7376H22.1697L19.8003 18.0528H22.2199V14.5969H9.28027Z" fill="url(#paint0_linear_1065_39520)"/>
<path id="Vector_2" d="M22.2183 9.26245H9.28027V12.7557H22.2183V9.26245Z" fill="url(#paint1_linear_1065_39520)"/>
<path id="Vector_3" d="M24.5574 2.73339C22.0441 1.00802 19.0054 0 15.7491 0C13.5789 0 11.504 0.447065 9.61815 1.2579C6.79027 2.47331 4.3874 4.49955 2.69067 7.05275C0.99227 9.60425 0 12.6912 0 15.9992C0 18.2039 0.440079 20.3117 1.23825 22.2275C2.43466 25.1002 4.42924 27.5413 6.94254 29.2649C9.45417 30.9903 12.4929 31.9983 15.7491 31.9983C17.9194 31.9983 19.9943 31.5512 21.8801 30.7404C24.708 29.525 27.1109 27.4988 28.8076 24.9456C30.506 22.3941 31.4983 19.3071 31.4983 15.9992C31.4983 13.7944 31.0582 11.6866 30.26 9.77084C29.0636 6.89806 27.069 4.45705 24.5557 2.73339H24.5574ZM27.3552 20.9798C26.3997 23.2729 24.8017 25.2294 22.7904 26.6097C20.7791 27.99 18.3645 28.7924 15.7508 28.7941C14.0072 28.7941 12.3557 28.4354 10.8497 27.7894C8.59242 26.8188 6.66644 25.1954 5.30772 23.1522C3.949 21.109 3.1592 18.656 3.15753 16.0009C3.15753 14.2296 3.51059 12.5518 4.14645 11.0219C5.1019 8.72882 6.69991 6.77227 8.71122 5.39198C10.7225 4.01169 13.1371 3.20935 15.7508 3.20765C17.4944 3.20765 19.1459 3.56632 20.6519 4.21227C22.9092 5.1829 24.8352 6.80627 26.1939 8.84951C27.5526 10.8928 28.3424 13.3457 28.3441 16.0009C28.3441 17.7721 27.991 19.4499 27.3552 20.9798Z" fill="url(#paint2_linear_1065_39520)"/>
</g>
<path id="Vector_4" d="M63.284 11.7666C63.284 7.27895 60.2654 5.93945 54.4205 5.93945H48.082V26.1509H51.5675V17.6481H54.9426C55.299 17.6481 55.6554 17.6481 55.985 17.6209L60.1834 26.1509H64.1073L59.5525 16.9784C62.0491 16.1149 63.284 14.3572 63.284 11.7649V11.7666ZM55.0246 14.8332H51.5659V8.78333H54.9141C57.6583 8.78333 59.7165 9.1454 59.7165 11.7938C59.7165 14.2195 58.0148 14.8332 55.0246 14.8332Z" fill="white"/>
<path id="Vector_5" d="M68.6618 5.94067H65.3955V9.28601H68.6618V5.94067Z" fill="white"/>
<path id="Vector_6" d="M68.6618 11.1543H65.3955V26.1522H68.6618V11.1543Z" fill="white"/>
<path id="Vector_7" d="M78.3963 10.8196C76.3113 10.8196 74.7736 11.6831 73.9235 13.2453V11.1545H70.6572V26.1524H73.9235V18.18C73.9235 15.4755 74.8288 13.5241 77.3538 13.5241C79.8788 13.5241 80.1532 15.5027 80.1532 17.5392V26.1541H83.4195V16.7317C83.4195 13.1637 81.9654 10.8213 78.3979 10.8213L78.3963 10.8196Z" fill="white"/>
<path id="Vector_8" d="M95.6039 13.1608C94.7254 11.6836 93.1893 10.8184 91.2132 10.8184C87.7009 10.8184 84.791 13.6622 84.791 18.3454C84.791 23.0285 87.6992 25.8996 91.2132 25.8996C93.1893 25.8996 94.7254 25.036 95.6039 23.5572V25.3131C95.6039 26.2889 95.4115 27.2085 94.8626 27.8493C94.3138 28.5191 93.3801 28.9372 91.926 28.9372C89.9498 28.9372 89.0713 28.3797 88.7701 26.9586H85.5323C86.0544 30.2478 88.6061 31.5584 91.844 31.5584C94.1498 31.5584 95.9051 31.057 97.0848 29.9419C98.2645 28.8268 98.8685 27.0708 98.8685 24.6451V11.1515H95.6022V13.1591L95.6039 13.1608ZM91.926 23.2801C89.7306 23.2801 88.1945 21.4408 88.1945 18.3454C88.1945 15.2499 89.7306 13.4668 91.926 13.4668C94.1214 13.4668 95.7411 15 95.7411 18.3454C95.7411 21.6907 94.0394 23.2801 91.926 23.2801Z" fill="white"/>
<path id="Vector_9" d="M107.927 11.1542H105.018V10.345C105.018 8.78455 105.375 8.47688 106.995 8.47688H107.928V5.94067H106.638C103.044 5.94067 101.754 6.74981 101.754 10.2345V11.1542H99.6956V13.551H101.754V26.1521H105.02V13.551H107.928V11.1542H107.927Z" fill="white"/>
<path id="Vector_10" d="M114.536 10.8201C110.338 10.8201 107.291 14.026 107.291 18.5426C107.291 23.0591 110.008 26.5149 114.755 26.5149C118.542 26.5149 120.793 24.062 121.452 21.6635H118.241C117.664 23.0846 116.347 23.7543 114.618 23.7543C112.752 23.7543 110.831 22.3877 110.611 19.5999H121.616C121.917 14.5819 119.064 10.8184 114.536 10.8184V10.8201ZM110.612 17.1759C110.913 14.3609 113 13.4124 114.536 13.4124C116.457 13.4124 118.214 14.8334 118.296 17.1759H110.612Z" fill="white"/>
<path id="Vector_11" d="M130.603 10.8196C128.518 10.8196 126.98 11.6831 126.13 13.2453V11.1545H122.864V26.1524H126.13V18.18C126.13 15.4755 127.036 13.5241 129.561 13.5241C132.086 13.5241 132.36 15.5027 132.36 17.5392V26.1541H135.626V16.7317C135.626 13.1637 134.172 10.8213 130.605 10.8213L130.603 10.8196Z" fill="white"/>
<path id="Vector_12" d="M144.164 23.7553C142.243 23.7553 140.377 22.2221 140.377 18.654C140.377 15.086 142.187 13.5799 144.246 13.5799C146.029 13.5799 147.375 14.695 147.676 16.2844H150.859C150.283 12.9663 147.483 10.821 144.246 10.821C139.828 10.821 137 14.2225 137 18.6829C137 23.1434 139.826 26.5159 144.108 26.5159C147.264 26.5159 150.31 24.5373 150.969 21.0236H147.786C147.348 23.0312 145.783 23.7553 144.164 23.7553Z" fill="white"/>
<path id="Vector_13" d="M158.791 10.8201C154.593 10.8201 151.546 14.026 151.546 18.5426C151.546 23.0591 154.263 26.5149 159.011 26.5149C162.797 26.5149 165.048 24.062 165.707 21.6635H162.496C161.919 23.0846 160.602 23.7543 158.873 23.7543C157.008 23.7543 155.087 22.3877 154.866 19.5999H165.871C166.172 14.5819 163.319 10.8184 158.791 10.8184V10.8201ZM154.867 17.1759C155.169 14.3609 157.255 13.4124 158.791 13.4124C160.712 13.4124 162.469 14.8334 162.551 17.1759H154.867Z" fill="white"/>
</g>
<defs>
<linearGradient id="paint0_linear_1065_39520" x1="9.28027" y1="18.1122" x2="22.2199" y2="18.1122" gradientUnits="userSpaceOnUse">
<stop stop-color="#4ADC8C"/>
<stop offset="1" stop-color="#4ADCCA"/>
</linearGradient>
<linearGradient id="paint1_linear_1065_39520" x1="9.28027" y1="10.7709" x2="22.2183" y2="10.7709" gradientUnits="userSpaceOnUse">
<stop stop-color="#4ADC8C"/>
<stop offset="1" stop-color="#4ADCCA"/>
</linearGradient>
<linearGradient id="paint2_linear_1065_39520" x1="3.83658e-08" y1="13.8175" x2="31.4983" y2="13.8175" gradientUnits="userSpaceOnUse">
<stop stop-color="#4ADC8C"/>
<stop offset="1" stop-color="#4ADCCA"/>
</linearGradient>
<clipPath id="clip0_1065_39520">
<rect width="165.895" height="32" fill="white"/>
</clipPath>
</defs>
</svg>
