<svg width="323" height="330" viewBox="0 0 323 330" fill="none" xmlns="http://www.w3.org/2000/svg">
<path d="M251.419 30.9333C225.735 13.3013 194.682 3 161.405 3C139.226 3 118.022 7.56869 98.7507 15.8549C69.8517 28.2754 45.2961 48.9822 27.9567 75.0741C10.6003 101.149 0.459961 132.695 0.459961 166.5C0.459961 189.031 4.95726 210.571 13.1139 230.149C25.3404 259.507 45.7236 284.452 71.4078 302.067C97.0749 319.699 128.128 330 161.405 330C183.584 330 204.788 325.431 224.059 317.145C252.958 304.725 277.514 284.018 294.853 257.926C312.21 231.851 322.35 200.305 322.35 166.5C322.35 143.969 317.853 122.429 309.696 102.851C297.47 73.4933 277.086 48.5479 251.402 30.9333H251.419ZM280.01 217.398C270.246 240.832 253.916 260.827 233.362 274.932C212.808 289.038 188.132 297.237 161.422 297.255C143.604 297.255 126.726 293.589 111.336 286.988C88.2684 277.069 68.5863 260.479 54.7011 239.599C40.8159 218.719 32.7447 193.652 32.7276 166.517C32.7276 148.416 36.3357 131.271 42.8337 115.636C52.5978 92.2023 68.9283 72.2078 89.4825 58.1022C110.037 43.9966 134.712 35.7973 161.422 35.7799C179.24 35.7799 196.118 39.4453 211.508 46.0464C234.576 55.9655 254.258 72.5553 268.143 93.4357C282.028 114.316 290.099 139.383 290.117 166.517C290.117 184.618 286.508 201.764 280.01 217.398Z" fill="#000F0A"/>
<path d="M280.01 217.398C270.246 240.832 253.916 260.827 233.362 274.932C212.808 289.038 188.132 297.237 161.422 297.255C143.604 297.255 126.726 293.589 111.336 286.988C88.2684 277.069 68.5863 260.479 54.7011 239.599C40.8159 218.719 32.7447 193.652 32.7276 166.517C32.7276 148.416 36.3357 131.271 42.8337 115.636C52.5978 92.2023 68.9283 72.2078 89.4825 58.1022C110.037 43.9966 134.712 35.7973 161.422 35.7799C179.24 35.7799 196.118 39.4453 211.508 46.0464C234.576 55.9655 254.258 72.5553 268.143 93.4357C282.028 114.316 290.099 139.383 290.117 166.517C290.117 184.618 286.508 201.764 280.01 217.398Z" fill="#000F0A"/>
<path d="M95.2979 152.169V235.361H137.911V187.485H155.78L179.652 235.361H227.019L202.805 187.485H227.532V152.169H95.2979Z" fill="url(#paint0_linear_1065_38145)"/>
<path d="M227.515 97.6569H95.2979V133.355H227.515V97.6569Z" fill="url(#paint1_linear_1065_38145)"/>
<path d="M251.419 27.9333C225.735 10.3013 194.682 0 161.405 0C139.226 0 118.022 4.56869 98.7507 12.8549C69.8517 25.2754 45.2961 45.9822 27.9567 72.0741C10.6003 98.1486 0.459961 129.695 0.459961 163.5C0.459961 186.031 4.95726 207.571 13.1139 227.149C25.3404 256.507 45.7236 281.452 71.4078 299.067C97.0749 316.699 128.128 327 161.405 327C183.584 327 204.788 322.431 224.059 314.145C252.958 301.725 277.514 281.018 294.853 254.926C312.21 228.851 322.35 197.305 322.35 163.5C322.35 140.969 317.853 119.429 309.696 99.851C297.47 70.4933 277.086 45.5479 251.402 27.9333H251.419ZM280.01 214.398C270.246 237.832 253.916 257.827 233.362 271.932C212.808 286.038 188.132 294.237 161.422 294.255C143.604 294.255 126.726 290.589 111.336 283.988C88.2684 274.069 68.5863 257.479 54.7011 236.599C40.8159 215.719 32.7447 190.652 32.7276 163.517C32.7276 145.416 36.3357 128.271 42.8337 112.636C52.5978 89.2023 68.9283 69.2078 89.4825 55.1022C110.037 40.9966 134.712 32.7973 161.422 32.7799C179.24 32.7799 196.118 36.4453 211.508 43.0464C234.576 52.9655 254.258 69.5553 268.143 90.4357C282.028 111.316 290.099 136.383 290.117 163.517C290.117 181.618 286.508 198.764 280.01 214.398Z" fill="url(#paint2_linear_1065_38145)"/>
<defs>
<linearGradient id="paint0_linear_1065_38145" x1="95.2979" y1="188.093" x2="227.532" y2="188.093" gradientUnits="userSpaceOnUse">
<stop stop-color="#4ADC8C"/>
<stop offset="1" stop-color="#4ADCCA"/>
</linearGradient>
<linearGradient id="paint1_linear_1065_38145" x1="95.2979" y1="113.072" x2="227.515" y2="113.072" gradientUnits="userSpaceOnUse">
<stop stop-color="#4ADC8C"/>
<stop offset="1" stop-color="#4ADCCA"/>
</linearGradient>
<linearGradient id="paint2_linear_1065_38145" x1="0.459961" y1="141.205" x2="322.35" y2="141.205" gradientUnits="userSpaceOnUse">
<stop stop-color="#4ADC8C"/>
<stop offset="1" stop-color="#4ADCCA"/>
</linearGradient>
</defs>
</svg>
