<svg viewBox="0 0 165 92" fill="none" xmlns="http://www.w3.org/2000/svg">
<path d="M10.6434 52.7311C9.99822 51.1888 9.81388 49.6231 9.65259 47.9873C9.56042 47.1227 8.98438 46.6086 8.98438 45.6739C8.98438 45.4869 9.0535 45.3 9.12263 45.1364C9.79084 43.5941 10.2978 37.5417 12.4637 37.5417C13.1089 37.5417 13.5236 38.0558 13.7541 38.6166C15.9661 37.0276 19.1689 35.4619 21.9339 35.4619C23.9847 35.4619 25.9663 36.5135 25.9663 38.8269C25.9663 41.6078 22.9708 44.5055 21.0353 46.188L20.9662 46.3749C23.0169 47.1695 25.1368 49.0389 25.1368 51.4225C25.1368 55.6756 19.8141 57.0309 16.473 57.0309C14.7218 57.0309 10.1134 56.6804 10.1134 54.2034C10.1134 53.6659 10.3438 53.1518 10.6434 52.7311ZM13.1089 46.3282C15.8509 46.632 20.2288 43.524 21.957 40.6029C22.4409 39.785 23.086 38.7568 21.7496 38.7568C19.5376 38.7568 12.9937 42.2387 12.9937 44.5288C12.9937 45.113 13.0628 45.744 13.1089 46.3282ZM13.6388 50.2775L14.0997 52.6844C15.1366 52.6143 21.0353 52.4273 21.0353 51.0252C21.0353 48.7118 14.7218 48.5949 13.6388 50.2775ZM31.955 50.1372C31.1947 50.9785 30.4804 51.8198 29.2591 51.8198C27.0702 51.8198 26.3098 49.1791 26.3098 47.3564C26.3098 44.1783 28.0379 42.005 31.2868 42.005H32.2546C32.5541 41.5844 32.8767 41.1404 33.4528 41.1404C34.5588 41.1404 34.674 42.0985 34.674 42.9865C34.674 43.9446 34.5357 44.856 34.5357 45.8141C34.5357 46.7488 34.6509 47.777 34.9505 48.665C35.1809 49.3193 35.9182 49.7867 35.9182 50.5111C35.9182 51.2823 35.2731 51.6562 34.5818 51.6562C33.4528 51.6562 32.7154 50.8383 31.955 50.1372ZM30.4343 47.6368C30.8951 46.7021 31.1025 45.6739 31.2638 44.5522C31.1025 44.5288 30.9182 44.5055 30.7569 44.5055C29.3052 44.5055 28.8444 46.0478 28.8444 47.2863C28.8444 49.3661 29.6048 49.3193 30.4343 47.6368ZM39.6614 45.3935C41.2974 46.2113 43.7398 46.9825 43.7398 48.9688C43.7398 51.3758 41.7121 52.1236 39.8457 52.1236C38.5554 52.1236 36.3664 51.5627 36.3664 49.7867C36.3664 48.8987 36.9885 48.2678 37.772 48.2678C38.4402 48.2678 39.2927 48.9455 40.0531 49.109C40.8135 49.2726 41.2743 48.7351 40.1683 48.1042C38.6015 47.1928 36.4125 46.5619 36.4125 44.5756C36.4125 42.5191 37.9333 41.0469 39.7536 41.0469C41.09 41.0469 43.5094 42.0751 43.5094 43.7577C43.5094 44.4353 42.8412 45.0897 42.2421 45.0897C41.6891 45.0897 40.8826 44.3419 40.1222 44.3419C39.5001 44.3419 38.8549 44.9495 39.6614 45.3935ZM47.8966 47.9406C48.2192 48.5015 48.68 49.4362 49.4404 49.4362C50.2699 49.4362 50.846 48.408 51.6524 48.408C52.0902 48.408 52.505 48.8286 52.505 49.296C52.505 50.7448 50.3851 51.8665 49.1409 51.8665C46.491 51.8665 44.6938 49.0623 44.6938 46.6086C44.6938 44.3652 46.4219 41.2572 48.8874 41.2572C50.6847 41.2572 52.3437 42.9164 52.3437 44.7391C52.3437 47.3564 49.9473 47.9406 47.8966 47.9406ZM47.6662 45.9543C48.0118 46.0711 48.3574 46.1646 48.7261 46.1646C49.3943 46.1646 50.339 45.7907 50.339 44.9962C50.339 44.5055 49.6478 43.8979 49.1869 43.8979C48.4957 43.8979 47.7583 45.3467 47.6662 45.9543ZM56.3294 48.7585C56.3294 49.3427 56.4446 49.9503 56.4446 50.5111C56.4446 51.2122 55.9838 51.8665 55.3156 51.8665C53.7257 51.8665 53.4952 48.8052 53.4952 47.5667C53.4952 45.3935 54.7395 41.4442 57.1819 41.4442C58.288 41.4442 58.9101 42.2621 59.5553 43.1267C60.2696 41.9583 61.3986 41.0236 62.712 41.0236C65.6153 41.0236 66.3757 46.3983 66.3757 48.7819C66.3757 49.8335 65.8918 51.4926 64.6936 51.4926C62.712 51.4926 62.9655 48.8987 62.9655 47.4499C62.9655 43.781 61.4447 43.9913 61.0299 47.1928C60.9378 47.8705 60.9608 48.665 60.9608 49.6231C60.9608 50.5579 60.4309 51.329 59.5322 51.329C58.4032 51.329 57.9654 49.5063 57.6428 47.7537C56.8363 43.5006 56.3294 46.1179 56.3294 48.7585ZM70.6009 47.9406C70.9235 48.5015 71.3844 49.4362 72.1447 49.4362C72.9743 49.4362 73.5503 48.408 74.3568 48.408C74.7946 48.408 75.2093 48.8286 75.2093 49.296C75.2093 50.7448 73.0895 51.8665 71.8452 51.8665C69.1954 51.8665 67.3981 49.0623 67.3981 46.6086C67.3981 44.3652 69.1263 41.2572 71.5917 41.2572C73.389 41.2572 75.048 42.9164 75.048 44.7391C75.048 47.3564 72.6517 47.9406 70.6009 47.9406ZM70.3705 45.9543C70.7161 46.0711 71.0618 46.1646 71.4305 46.1646C72.0987 46.1646 73.0434 45.7907 73.0434 44.9962C73.0434 44.5055 72.3521 43.8979 71.8913 43.8979C71.2 43.8979 70.4627 45.3467 70.3705 45.9543ZM79.3333 46.7255C78.9646 47.5433 79.0338 48.6183 79.0338 50.0671C79.0338 50.9551 78.4577 51.7964 77.6512 51.7964C75.9922 51.7964 76.1305 49.8802 76.1305 48.5482C76.1305 46.9124 76.0844 41.7713 78.1351 41.7713C78.619 41.7713 78.9416 42.2621 79.149 42.7061C79.702 42.4023 80.278 42.0751 80.9462 42.0751C83.4808 42.0751 84.0799 46.7956 85.1399 48.8052C85.3012 49.0857 85.4164 49.4362 85.4164 49.7867C85.4164 50.6513 84.7251 51.329 84.0108 51.329C82.2135 51.329 81.7297 48.5482 81.0845 46.8189C80.5545 45.4402 79.9093 45.5103 79.3333 46.7255ZM90.4955 44.7158C91.0485 44.6924 92.2237 44.5522 92.7767 44.5522C93.4449 44.5522 93.9979 44.9261 93.9979 45.6739C93.9979 47.0292 91.2098 47.0292 90.3112 47.1695V47.4732C90.3112 48.8987 90.3112 49.0623 92.6845 48.8286C93.2605 48.7819 93.6983 49.3193 93.6983 50.0204C93.6983 51.2356 92.2467 51.7029 91.325 51.7029C88.7904 51.7029 87.4309 49.8335 87.5692 47.4031C86.924 47.1928 85.9563 46.9124 85.9563 46.0244C85.9563 44.8793 86.8549 44.7625 87.7074 44.5522C88.0992 43.2903 88.4448 40.86 90.0347 40.86C90.8181 40.86 91.2789 41.1404 91.2789 41.9583C91.2789 42.7061 90.6338 43.9913 90.4955 44.7158ZM101.073 39.3878C102.571 38.64 104.046 38.0558 105.751 38.0558C109.898 38.0558 112.963 41.1404 112.963 45.3701C112.963 50.2541 108.262 56.0728 103.262 56.0728C102.064 56.0728 100.866 55.8625 99.6907 55.8625C99.1837 55.8625 98.769 56.2364 98.239 56.2364C95.8423 56.2364 95.0358 49.7633 95.0358 47.9873C95.0358 45.2299 95.8884 40.6263 97.7551 38.5699C98.216 38.0791 98.9533 37.3781 99.6446 37.3781C100.981 37.3781 101.073 38.3829 101.073 39.3878ZM99.2298 53.3153C104.437 55.325 111.442 48.1743 108.977 43.3838C108.055 41.561 105.682 40.7899 102.732 42.5425C101.35 43.3838 100.313 44.7625 99.4141 46.188C98.9303 46.9825 99.0916 48.3612 99.0916 49.2726C99.0916 50.2775 99.1607 52.3105 99.2298 53.3153ZM128.263 51.6095C125.613 51.9833 122.986 51.96 120.106 51.9132C119.599 53.2452 120.037 56.9842 118.285 56.9842C116.143 56.9842 116.603 53.1751 116.603 51.6328C115.567 51.3991 113.884 51.1187 113.884 49.5764C113.884 47.8471 115.912 48.5482 117.018 48.5482C118.401 44.3886 122.295 34.457 127.479 34.457C132.341 34.457 132.272 43.1501 132.272 46.7722C132.272 47.9873 133.124 47.8471 133.124 48.8753C133.124 49.8568 132.272 49.7166 132.318 51.1187L132.341 52.217C132.341 53.8295 132.226 56.9375 130.152 56.9375C127.94 56.9375 128.355 53.3387 128.263 51.6095ZM128.355 48.5482C128.631 42.2153 128.032 37.4949 125.751 39.6682C123.977 41.3273 121.465 46.8189 120.981 48.7118C123.032 48.6884 126.327 48.7819 128.355 48.5482ZM134.728 48.7819C134.728 44.1783 136.986 39.9252 140.672 37.8221C146.617 34.4337 155.65 35.532 155.65 43.2436C155.65 43.781 155.581 44.3185 155.442 44.856C153.991 50.6513 148.968 56.5168 142.631 56.5168C138.345 56.5168 134.728 53.1985 134.728 48.7819ZM143.115 52.5208C146.986 52.5208 151.848 47.9172 151.848 43.9212C151.848 41.6078 150.027 40.7198 147.908 40.6263C142.746 40.416 139.106 43.6876 139.106 48.8286C139.106 51.1421 140.926 52.5208 143.115 52.5208Z" fill="currentColor"/>
</svg>
