<svg viewBox="0 0 165 92" fill="none" xmlns="http://www.w3.org/2000/svg">
<path d="M38.5697 62.6789C38.5752 62.6597 38.5746 62.6392 38.5678 62.6202C38.561 62.6011 38.5485 62.5845 38.5319 62.5726C34.6982 59.8371 31.0055 57.2222 27.4539 54.7279C26.384 53.9763 25.4094 52.9828 24.5302 51.7474C23.8274 50.7595 23.3547 49.5872 23.112 48.2305C22.533 45.0066 23.4949 41.6692 25.7923 39.3577C28.0802 37.0579 31.635 35.8454 34.9417 36.5876C37.7527 37.2179 39.9075 38.6888 41.406 41.0003C43.1196 43.6381 43.4363 46.9801 42.3585 49.9322C41.7928 51.4827 40.8324 52.8607 39.4773 54.0661C39.4575 54.0833 39.4419 54.1048 39.4316 54.1289C39.4213 54.1531 39.4167 54.1793 39.418 54.2055C39.4194 54.2317 39.4267 54.2572 39.4395 54.2802C39.4522 54.3031 39.47 54.3229 39.4915 54.3379L51.1297 62.5395C51.1479 62.5525 51.1632 62.5693 51.1745 62.5886C51.1859 62.6079 51.193 62.6293 51.1955 62.6514C51.1979 62.6735 51.1957 62.6958 51.1888 62.7169C51.1819 62.7379 51.1707 62.7572 51.1557 62.7735C48.4014 65.7689 45.2452 67.9394 41.6873 69.2851C32.8594 72.6248 22.9608 70.6607 16.1655 64.194C11.7788 60.0183 9.26552 54.8878 8.62578 48.8025C8.17907 44.5386 8.92832 40.0667 10.7766 36.1267C14.4685 28.2489 21.8688 22.9238 30.5998 22.1108C38.4445 21.3828 45.755 24.2687 51.1131 30.024C51.1348 30.0472 51.1511 30.0749 51.1612 30.105C51.1712 30.1351 51.1746 30.1671 51.1713 30.1987C51.1679 30.2302 51.1578 30.2607 51.1417 30.2881C51.1255 30.3154 51.1037 30.339 51.0777 30.3572L45.6202 34.2193C45.5464 34.272 45.4566 34.2975 45.3661 34.2914C45.2757 34.2854 45.19 34.2482 45.1239 34.1862C41.7424 31.0159 37.9316 29.3622 33.6913 29.2251C29.2305 29.0801 25.3566 30.3675 22.0697 33.0871C18.4661 36.0652 16.3861 39.8556 15.8299 44.4582C14.8089 52.9221 20.271 60.8873 28.553 63.1185C31.7863 63.9899 35.0843 63.8859 38.4468 62.8066C38.5099 62.7861 38.5508 62.7435 38.5697 62.6789Z" fill="currentColor"/>
<path d="M63.1937 43.3289C61.0925 42.9933 60.1305 41.3104 59.9202 39.3416C59.7547 37.7942 59.7413 36.1555 59.88 34.4254C60.0644 32.1563 60.8869 30.3648 63.3568 29.9724C64.8647 29.7329 66.6004 29.8613 68.5637 30.3577C68.5985 30.3664 68.629 30.387 68.6502 30.4159C68.6713 30.4449 68.6817 30.4803 68.6795 30.516L68.5566 32.4589C68.5535 32.525 68.5188 32.5534 68.4526 32.544C67.0132 32.3478 65.5242 32.0571 64.0824 32.3903C61.9788 32.8796 62.5035 38.0605 62.7659 39.351C62.9897 40.4556 63.6822 41.026 64.8435 41.0622C66.082 41.1 67.2835 41.0063 68.4479 40.781C68.4603 40.7788 68.473 40.7794 68.4851 40.7829C68.4972 40.7864 68.5084 40.7926 68.5177 40.801C68.5271 40.8094 68.5344 40.8199 68.5391 40.8316C68.5438 40.8433 68.5457 40.8559 68.5448 40.8684C68.4991 41.4924 68.5417 42.1692 68.6724 42.8987C68.6866 42.9791 68.6535 43.0279 68.5732 43.0453C66.572 43.4865 64.7789 43.581 63.1937 43.3289Z" fill="currentColor"/>
<path d="M114.804 34.1985C115.242 37.0395 115.334 42.2748 111.644 43.2178C110.229 43.5802 108.818 43.5779 107.409 43.2107C103.729 42.2535 103.823 36.8953 104.296 34.0685C104.915 30.3577 107.697 29.4666 111.077 29.9984C113.356 30.3553 114.474 32.0476 114.804 34.1985ZM107.066 39.0485C107.251 40.1074 107.86 40.9417 108.99 41.0883C110.671 41.3057 111.669 40.6613 111.982 39.1549C112.268 37.7887 112.294 36.2595 112.06 34.5672C111.887 33.3098 111.32 32.5621 110.359 32.3242C108.716 31.9153 107.357 32.5771 107.054 34.3828C106.791 35.9412 106.795 37.4964 107.066 39.0485Z" fill="currentColor"/>
<path d="M120.904 34.6196C122.072 35.1443 123.625 35.4988 124.941 36.1913C126.428 36.9761 126.693 38.3375 126.556 39.9329C126.303 42.8873 123.575 43.6673 121.072 43.4286C119.788 43.3057 118.703 43.1339 117.818 42.9133C117.759 42.8983 117.707 42.8624 117.673 42.8125C117.639 42.7625 117.624 42.7017 117.631 42.6415L117.839 40.9019C117.856 40.7633 117.933 40.7065 118.068 40.7317C119.407 40.9776 120.737 41.0997 122.058 41.0981C122.486 41.0981 122.891 40.9973 123.273 40.7956C124.043 40.3867 124.154 39.082 123.511 38.5833C123.152 38.3044 122.704 38.0932 122.167 37.9498C120.406 37.4771 118.248 36.8626 117.673 34.9954C117.298 33.7711 117.484 32.0197 118.442 31.053C119.616 29.8688 121.318 29.7766 122.975 29.8972C124.064 29.9775 125.126 30.1343 126.161 30.3675C126.251 30.388 126.292 30.444 126.286 30.5353L126.159 32.3955C126.154 32.4806 126.109 32.5184 126.024 32.5089C124.926 32.3923 123.894 32.2994 122.93 32.23C122.027 32.1662 120.401 32.1378 120.202 33.3054C120.098 33.9247 120.332 34.3627 120.904 34.6196Z" fill="currentColor"/>
<path d="M145.814 30.2409C145.808 30.2317 145.805 30.221 145.805 30.2102C145.803 30.0904 145.861 30.0321 145.98 30.0353C146.764 30.0526 147.643 30.0644 148.615 30.0707C148.664 30.0714 148.712 30.086 148.753 30.1127C148.795 30.1395 148.828 30.1773 148.849 30.222C149.612 31.8529 150.348 33.4869 151.059 35.124C151.097 35.2123 151.164 35.2154 151.26 35.1335C151.266 35.1288 151.271 35.1231 151.274 35.1169L153.5 30.2031C153.518 30.1631 153.547 30.1292 153.584 30.1057C153.62 30.0821 153.663 30.07 153.706 30.0707L156.386 30.0802C156.406 30.08 156.425 30.0848 156.441 30.0942C156.458 30.1035 156.472 30.1171 156.482 30.1335C156.492 30.15 156.498 30.1687 156.499 30.188C156.499 30.2072 156.495 30.2263 156.486 30.2433L152.739 37.5467C152.615 37.7909 152.553 38.0493 152.555 38.3219L152.562 43.1129C152.562 43.1304 152.559 43.1479 152.552 43.1641C152.545 43.1803 152.536 43.195 152.523 43.2073C152.511 43.2196 152.496 43.2293 152.48 43.2358C152.464 43.2423 152.447 43.2455 152.43 43.2452L149.969 43.2429C149.957 43.2429 149.945 43.2405 149.934 43.2358C149.923 43.2312 149.913 43.2244 149.904 43.2159C149.896 43.2073 149.889 43.1971 149.884 43.186C149.88 43.1748 149.877 43.1628 149.877 43.1507L149.884 38.4945C149.884 38.1839 149.81 37.8768 149.667 37.5987C148.422 35.18 147.138 32.7274 145.814 30.2409Z" fill="currentColor"/>
<path d="M74.3224 30.1578C74.3224 33.0224 74.3184 35.8303 74.3106 38.5815C74.3082 39.456 74.3909 40.3683 75.2607 40.7891C76.2014 41.2444 77.1303 41.2318 78.0473 40.7512C78.8533 40.3282 78.9289 39.4324 78.9266 38.6004C78.9219 35.7342 78.9156 32.9365 78.9077 30.2074C78.9077 30.1223 78.9502 30.0798 79.0353 30.0798L81.5076 30.0703C81.5398 30.0703 81.5707 30.0832 81.5937 30.1062C81.6167 30.1292 81.6299 30.1604 81.6305 30.1932C81.6478 33.1492 81.6447 36.1179 81.6211 39.0991C81.5998 41.8952 80.0327 43.2283 77.3832 43.4363C75.3363 43.597 72.8853 43.233 72.0108 41.146C71.7398 40.4983 71.6035 39.7223 71.6019 38.8179C71.5972 35.8996 71.5964 33.0216 71.5995 30.1838C71.5995 30.1692 71.6024 30.1547 71.608 30.1413C71.6136 30.1278 71.6218 30.1155 71.6321 30.1052C71.6424 30.0949 71.6546 30.0867 71.6681 30.0811C71.6816 30.0755 71.696 30.0727 71.7106 30.0727L74.2467 30.0821C74.2668 30.0821 74.286 30.0901 74.3002 30.1043C74.3144 30.1185 74.3224 30.1377 74.3224 30.1578Z" fill="currentColor"/>
<path d="M93.1848 38.4052L94.9527 43.1063C94.9585 43.1222 94.9604 43.1393 94.9583 43.1561C94.9562 43.1728 94.9501 43.1888 94.9405 43.2025C94.931 43.2162 94.9183 43.2274 94.9035 43.2349C94.8888 43.2425 94.8724 43.2462 94.8558 43.2458L92.133 43.2245C92.0448 43.2245 91.9865 43.1828 91.9581 43.0993L90.592 39.0552C90.5701 38.9891 90.5279 38.9316 90.4715 38.8909C90.4151 38.8502 90.3472 38.8283 90.2776 38.8283L88.1221 38.8165C87.9818 38.8149 87.9125 38.885 87.9141 39.0268L87.9472 43.0591C87.9472 43.1883 87.8825 43.2529 87.7533 43.2529L85.4252 43.2482C85.393 43.2475 85.3624 43.2343 85.3399 43.2113C85.3173 43.1884 85.3047 43.1574 85.3047 43.1253L85.3165 30.2013C85.3165 30.1687 85.3295 30.1374 85.3525 30.1144C85.3756 30.0913 85.4068 30.0784 85.4394 30.0784C87.2137 30.0721 88.9509 30.0792 90.6511 30.0997C94.0451 30.1422 95.5129 32.3734 94.9267 35.5902C94.7377 36.6223 94.1846 37.4685 93.2675 38.1287C93.2254 38.1594 93.1946 38.2031 93.1796 38.253C93.1647 38.303 93.1665 38.3564 93.1848 38.4052ZM87.9188 32.598V36.3466C87.9188 36.3986 87.9395 36.4485 87.9762 36.4853C88.013 36.5221 88.0629 36.5427 88.115 36.5427H90.4005C90.8945 36.5427 91.3682 36.352 91.7175 36.0125C92.0668 35.6729 92.263 35.2124 92.263 34.7322V34.2123C92.263 33.7321 92.0668 33.2716 91.7175 32.9321C91.3682 32.5925 90.8945 32.4018 90.4005 32.4018H88.115C88.0629 32.4018 88.013 32.4224 87.9762 32.4592C87.9395 32.496 87.9188 32.5459 87.9188 32.598Z" fill="currentColor"/>
<path d="M100.868 43.1584C100.868 43.1809 100.859 43.2026 100.843 43.2185C100.827 43.2345 100.805 43.2435 100.783 43.2435H98.2726C98.25 43.2435 98.2284 43.2345 98.2124 43.2185C98.1965 43.2026 98.1875 43.1809 98.1875 43.1584V30.173C98.1875 30.1504 98.1965 30.1288 98.2124 30.1128C98.2284 30.0969 98.25 30.0879 98.2726 30.0879H100.783C100.805 30.0879 100.827 30.0969 100.843 30.1128C100.859 30.1288 100.868 30.1504 100.868 30.173V43.1584Z" fill="currentColor"/>
<path d="M132.362 43.1737C132.362 43.2 132.351 43.2253 132.333 43.2439C132.314 43.2625 132.289 43.273 132.263 43.273H129.748C129.735 43.273 129.722 43.2704 129.71 43.2654C129.698 43.2604 129.687 43.2531 129.678 43.2439C129.668 43.2347 129.661 43.2237 129.656 43.2117C129.651 43.1996 129.648 43.1867 129.648 43.1737V30.193C129.648 30.18 129.651 30.1671 129.656 30.155C129.661 30.143 129.668 30.132 129.678 30.1228C129.687 30.1136 129.698 30.1063 129.71 30.1013C129.722 30.0963 129.735 30.0937 129.748 30.0938H132.263C132.289 30.0937 132.314 30.1042 132.333 30.1228C132.351 30.1414 132.362 30.1667 132.362 30.193V43.1737Z" fill="currentColor"/>
<path d="M138.294 32.4212L135.065 32.4472C135.045 32.4476 135.025 32.4438 135.007 32.4362C134.988 32.4285 134.971 32.4172 134.957 32.4028C134.943 32.3885 134.932 32.3714 134.924 32.3526C134.917 32.3338 134.913 32.3138 134.914 32.2936L134.954 30.2208C134.955 30.1817 134.971 30.1444 134.999 30.117C135.027 30.0896 135.064 30.0742 135.103 30.0742L144.489 30.0813C144.528 30.0813 144.566 30.0967 144.593 30.1241C144.621 30.1515 144.637 30.1888 144.638 30.2278L144.676 32.3007C144.676 32.3206 144.672 32.3405 144.665 32.359C144.657 32.3775 144.646 32.3943 144.632 32.4084C144.618 32.4225 144.601 32.4336 144.583 32.4411C144.564 32.4486 144.544 32.4523 144.524 32.452L141.296 32.4236C141.276 32.4233 141.256 32.4269 141.238 32.4342C141.22 32.4416 141.203 32.4525 141.189 32.4664C141.175 32.4802 141.164 32.4967 141.156 32.515C141.148 32.5332 141.144 32.5527 141.144 32.5725L141.154 43.1022C141.154 43.1417 141.138 43.1795 141.11 43.2075C141.082 43.2354 141.045 43.2511 141.005 43.2511H138.568C138.529 43.2511 138.491 43.2354 138.463 43.2075C138.435 43.1795 138.419 43.1417 138.419 43.1022L138.445 32.5725C138.446 32.5525 138.442 32.5327 138.434 32.5142C138.427 32.4957 138.416 32.4789 138.402 32.4648C138.388 32.4507 138.371 32.4396 138.352 32.4321C138.334 32.4246 138.314 32.4209 138.294 32.4212Z" fill="currentColor"/>
<path d="M64.4876 60.7531C65.6906 60.9516 67.026 60.7295 68.2858 60.5735C68.3218 60.5692 68.3583 60.5729 68.3927 60.5844C68.4271 60.5959 68.4586 60.6149 68.4848 60.64C68.511 60.665 68.5313 60.6956 68.5443 60.7295C68.5573 60.7633 68.5627 60.7997 68.56 60.8358C68.5127 61.5008 68.5497 62.0594 68.6711 62.5116C68.7168 62.6849 68.6522 62.7873 68.4772 62.8189C67.5318 62.989 66.5509 63.0899 65.5346 63.1214C64.274 63.1592 63.3554 63.1048 62.7787 62.9583C60.9706 62.4998 60.0842 60.7247 59.9046 58.9497C59.725 57.1392 59.7415 55.3713 59.9542 53.6459C60.2284 51.4076 61.2046 49.8996 63.6107 49.6491C65.2289 49.4821 66.8748 49.627 68.5482 50.084C68.638 50.1092 68.6797 50.1683 68.6734 50.2613L68.5576 52.1048C68.5563 52.1273 68.5502 52.1493 68.5398 52.1692C68.5294 52.1892 68.515 52.2068 68.4974 52.2208C68.4798 52.2349 68.4594 52.2451 68.4376 52.2507C68.4158 52.2564 68.3931 52.2574 68.3709 52.2537C67.0757 52.0434 65.7024 51.8732 64.4167 52.0363C63.3341 52.1734 62.8425 53.029 62.7078 53.998C62.462 55.7644 62.4714 57.437 62.7362 59.0159C62.9032 60.0086 63.487 60.5877 64.4876 60.7531Z" fill="currentColor"/>
<path d="M73.2098 62.9628L70.799 62.9699C70.7746 62.9698 70.7506 62.9642 70.7287 62.9536C70.7068 62.943 70.6875 62.9276 70.6723 62.9085C70.6571 62.8895 70.6464 62.8673 70.6409 62.8435C70.6354 62.8198 70.6353 62.7952 70.6406 62.7714L73.5313 49.9136C73.5393 49.8775 73.5593 49.8453 73.5881 49.8221C73.6169 49.7989 73.6527 49.7862 73.6896 49.786L78.5089 49.7812C78.5459 49.7814 78.5817 49.7942 78.6104 49.8174C78.6392 49.8405 78.6592 49.8728 78.6673 49.9089L81.5792 62.7643C81.5845 62.7883 81.5844 62.8131 81.5788 62.837C81.5731 62.8609 81.5622 62.8833 81.5468 62.9024C81.5313 62.9215 81.5117 62.9368 81.4895 62.9473C81.4673 62.9577 81.443 62.9631 81.4185 62.9628L79.0053 62.9581C78.968 62.9578 78.9319 62.9447 78.9031 62.9211C78.8743 62.8974 78.8545 62.8646 78.8469 62.8281L78.4167 60.7009C78.4091 60.664 78.3889 60.6309 78.3596 60.6072C78.3303 60.5835 78.2937 60.5707 78.256 60.5709L73.9543 60.5756C73.917 60.5759 73.881 60.589 73.8522 60.6127C73.8234 60.6363 73.8035 60.6691 73.796 60.7056L73.3682 62.8328C73.3606 62.8693 73.3408 62.9021 73.312 62.9258C73.2831 62.9495 73.2471 62.9625 73.2098 62.9628ZM75.7837 52.0337C75.7516 52.0336 75.7204 52.0446 75.6954 52.0648C75.6704 52.0851 75.6532 52.1133 75.6466 52.1448L74.3821 58.0821C74.3779 58.1024 74.3783 58.1234 74.3832 58.1436C74.3882 58.1638 74.3975 58.1826 74.4107 58.1987C74.4238 58.2147 74.4404 58.2277 74.4592 58.2366C74.4779 58.2454 74.4985 58.25 74.5192 58.2499L77.7171 58.2452C77.7379 58.2452 77.7584 58.2407 77.7772 58.2318C77.796 58.223 77.8125 58.21 77.8257 58.1939C77.8388 58.1779 77.8482 58.159 77.8531 58.1389C77.8581 58.1187 77.8584 58.0977 77.8542 58.0774L76.5684 52.1448C76.5615 52.1142 76.5444 52.0867 76.52 52.067C76.4955 52.0473 76.4651 52.0364 76.4337 52.0361L75.7837 52.0337Z" fill="currentColor"/>
<path d="M86.9915 59.3015L87.027 62.8019C87.0273 62.8235 87.0233 62.845 87.0153 62.8651C87.0072 62.8851 86.9952 62.9034 86.9801 62.9188C86.9649 62.9342 86.9468 62.9464 86.9269 62.9547C86.9069 62.9631 86.8855 62.9674 86.8639 62.9674H84.4318C84.3898 62.9674 84.3495 62.9509 84.3198 62.9217C84.2901 62.8924 84.2734 62.8528 84.2734 62.8114V49.8378C84.2734 49.8274 84.2755 49.817 84.2796 49.8074C84.2837 49.7978 84.2896 49.7891 84.2971 49.7818C84.3046 49.7745 84.3135 49.7688 84.3232 49.765C84.333 49.7613 84.3434 49.7595 84.3538 49.7598C85.9074 49.7882 87.4004 49.7976 88.8327 49.7882C90.2202 49.7763 91.7896 49.9891 92.7326 51.0598C93.7182 52.1777 93.9002 53.6975 93.7702 55.2054C93.5788 57.4036 92.1465 58.9446 89.9578 59.0982C89.0486 59.1628 88.1268 59.1668 87.1924 59.11C87.1664 59.1084 87.1404 59.1122 87.1159 59.1211C87.0914 59.13 87.069 59.1439 87.0502 59.1619C87.0313 59.1799 87.0163 59.2015 87.0063 59.2256C86.9962 59.2496 86.9912 59.2754 86.9915 59.3015ZM86.9986 52.2628L86.9892 56.6354C86.9889 56.6632 86.9941 56.6908 87.0045 56.7166C87.0149 56.7424 87.0304 56.7659 87.0499 56.7857C87.0695 56.8055 87.0928 56.8212 87.1185 56.8319C87.1442 56.8426 87.1717 56.8481 87.1995 56.8481L89.0596 56.8505C89.3222 56.8511 89.5824 56.7998 89.8252 56.6995C90.068 56.5993 90.2888 56.452 90.4749 56.2661C90.6611 56.0802 90.8089 55.8593 90.9099 55.6161C91.011 55.3729 91.0633 55.1121 91.064 54.8485V54.0686C91.0646 53.8051 91.0135 53.544 90.9136 53.3003C90.8136 53.0566 90.6669 52.835 90.4816 52.6483C90.2964 52.4615 90.0763 52.3132 89.834 52.2117C89.5916 52.1103 89.3317 52.0578 89.0691 52.0572L87.209 52.0548C87.1536 52.0548 87.1004 52.0767 87.0611 52.1156C87.0217 52.1545 86.9992 52.2074 86.9986 52.2628Z" fill="currentColor"/>
<path d="M99.2259 62.8076C99.2259 62.8502 99.209 62.8911 99.1789 62.9212C99.1487 62.9513 99.1078 62.9683 99.0652 62.9683H96.7584C96.7158 62.9683 96.6749 62.9513 96.6447 62.9212C96.6146 62.8911 96.5977 62.8502 96.5977 62.8076V49.9498C96.5977 49.9072 96.6146 49.8663 96.6447 49.8361C96.6749 49.806 96.7158 49.7891 96.7584 49.7891H99.0652C99.1078 49.7891 99.1487 49.806 99.1789 49.8361C99.209 49.8663 99.2259 49.9072 99.2259 49.9498V62.8076Z" fill="currentColor"/>
<path d="M108.044 52.3268C108.014 52.3914 107.999 52.4592 107.997 52.5301C107.958 56.1447 107.945 59.5845 107.959 62.8494C107.959 62.8648 107.957 62.8801 107.951 62.8944C107.945 62.9088 107.937 62.9218 107.926 62.9328C107.915 62.9438 107.902 62.9526 107.888 62.9585C107.874 62.9645 107.859 62.9676 107.843 62.9676L105.515 62.9605C105.502 62.9605 105.489 62.9579 105.477 62.9529C105.465 62.9478 105.453 62.9405 105.444 62.9312C105.435 62.922 105.428 62.911 105.423 62.899C105.418 62.887 105.416 62.8741 105.416 62.8612L105.437 52.4403C105.437 52.409 105.431 52.3781 105.419 52.3493C105.407 52.3204 105.39 52.2943 105.368 52.2723C105.346 52.2503 105.32 52.2329 105.291 52.2212C105.263 52.2095 105.232 52.2036 105.201 52.2039L102.022 52.2228C101.998 52.2231 101.974 52.2186 101.951 52.2094C101.929 52.2002 101.909 52.1866 101.892 52.1694C101.875 52.1522 101.861 52.1317 101.852 52.1092C101.844 52.0867 101.839 52.0626 101.84 52.0385L101.88 49.9325C101.882 49.8317 101.933 49.7812 102.034 49.7812L111.396 49.8096C111.438 49.8096 111.479 49.8265 111.509 49.8566C111.539 49.8866 111.556 49.9275 111.557 49.9703L111.587 52.0479C111.588 52.0747 111.583 52.1013 111.572 52.1261C111.562 52.1509 111.547 52.1734 111.528 52.1923C111.509 52.2113 111.487 52.2262 111.462 52.2363C111.437 52.2464 111.411 52.2515 111.384 52.2512L108.224 52.2134C108.139 52.2118 108.079 52.2496 108.044 52.3268Z" fill="currentColor"/>
<path d="M120.018 60.5693H115.684C115.649 60.5696 115.616 60.5818 115.589 60.6037C115.562 60.6256 115.544 60.656 115.537 60.6898L115.102 62.8194C115.095 62.8532 115.077 62.8836 115.05 62.9055C115.024 62.9274 114.99 62.9396 114.956 62.9399L112.535 62.9636C112.513 62.9637 112.49 62.9588 112.469 62.9491C112.449 62.9393 112.431 62.9251 112.416 62.9073C112.402 62.8896 112.392 62.8689 112.387 62.8467C112.382 62.8245 112.381 62.8014 112.386 62.7792L115.277 49.9072C115.285 49.8739 115.303 49.844 115.33 49.8226C115.356 49.8011 115.389 49.7893 115.424 49.7891H120.281C120.315 49.7893 120.348 49.8011 120.375 49.8226C120.401 49.844 120.42 49.8739 120.427 49.9072L123.313 62.7792C123.318 62.8014 123.318 62.8245 123.313 62.8467C123.308 62.8689 123.298 62.8896 123.283 62.9073C123.269 62.9251 123.251 62.9393 123.23 62.9491C123.21 62.9588 123.187 62.9637 123.164 62.9636L120.746 62.9423C120.712 62.9419 120.679 62.9298 120.652 62.9078C120.625 62.8859 120.607 62.8555 120.6 62.8217L120.165 60.6898C120.158 60.656 120.14 60.6256 120.113 60.6037C120.086 60.5818 120.053 60.5696 120.018 60.5693ZM117.515 52.0297C117.493 52.0297 117.471 52.0375 117.453 52.0517C117.436 52.0658 117.423 52.0856 117.419 52.1077L116.097 58.1159C116.094 58.1304 116.094 58.1454 116.098 58.1598C116.101 58.1743 116.108 58.1878 116.117 58.1994C116.126 58.2109 116.138 58.2203 116.151 58.2267C116.165 58.2331 116.179 58.2364 116.194 58.2364L119.477 58.2577C119.492 58.2581 119.507 58.255 119.521 58.2487C119.534 58.2425 119.547 58.2332 119.556 58.2216C119.566 58.21 119.572 58.1963 119.576 58.1817C119.58 58.1671 119.58 58.1519 119.576 58.1372L118.338 52.1148C118.333 52.0927 118.321 52.0729 118.303 52.0587C118.286 52.0446 118.264 52.0368 118.241 52.0368L117.515 52.0297Z" fill="currentColor"/>
<path d="M133.543 60.7757L133.531 62.7847C133.531 62.8079 133.526 62.8309 133.517 62.8522C133.508 62.8736 133.495 62.893 133.479 62.9093C133.462 62.9255 133.443 62.9384 133.421 62.947C133.4 62.9557 133.377 62.96 133.354 62.9596L126.206 62.9502C126.16 62.9502 126.115 62.9318 126.082 62.899C126.05 62.8662 126.031 62.8217 126.031 62.7753L126.043 49.9742C126.043 49.9283 126.061 49.8841 126.093 49.8514C126.126 49.8187 126.17 49.8 126.216 49.7993L128.541 49.7852C128.587 49.7852 128.631 49.8033 128.664 49.8355C128.697 49.8678 128.716 49.9117 128.716 49.9577L128.721 60.4472C128.721 60.4936 128.739 60.5381 128.772 60.5709C128.805 60.6037 128.849 60.6221 128.896 60.6221L133.368 60.5984C133.391 60.5984 133.414 60.6031 133.435 60.612C133.457 60.6209 133.476 60.634 133.492 60.6505C133.509 60.667 133.521 60.6866 133.53 60.7081C133.539 60.7296 133.543 60.7525 133.543 60.7757Z" fill="currentColor"/>
</svg>
