<svg viewBox="0 0 165 92" fill="none" xmlns="http://www.w3.org/2000/svg">
<path d="M36.2862 59.2505C36.2862 59.3045 36.2647 59.3562 36.2266 59.3943C36.1885 59.4325 36.1367 59.4539 36.0828 59.4539H8.70336C8.64943 59.4539 8.5977 59.4325 8.55956 59.3943C8.52143 59.3562 8.5 59.3045 8.5 59.2505V32.2034C8.5 32.1494 8.52143 32.0977 8.55956 32.0596C8.5977 32.0214 8.64943 32 8.70336 32H36.0828C36.1367 32 36.1885 32.0214 36.2266 32.0596C36.2647 32.0977 36.2862 32.1494 36.2862 32.2034V59.2505ZM27.1518 46.2252C27.0011 46.0568 26.9167 45.84 26.9145 45.6151C26.9055 44.0153 26.8942 42.2653 26.8806 40.365C26.8784 39.8724 27.0094 39.4769 27.2738 39.1787C27.3687 39.0702 27.345 39.0126 27.2026 39.0058C26.9541 38.9923 26.7236 39.0307 26.5112 39.1211C26.3892 39.173 26.3282 39.2645 26.3282 39.3956L26.3485 46.2082C26.3495 46.261 26.3654 46.3122 26.3942 46.356C26.423 46.3998 26.4636 46.4344 26.5112 46.4557C26.7236 46.5551 26.9552 46.598 27.206 46.5845C27.3755 46.5754 27.4037 46.5065 27.2907 46.3777L27.1518 46.2252ZM17.9394 39.3244C18.0305 39.3592 18.1089 39.4208 18.1646 39.5012C18.2202 39.5816 18.2504 39.6771 18.2513 39.7752C18.2716 41.7004 18.2761 43.6097 18.2648 45.5032C18.2626 45.9665 18.0558 46.2896 17.6446 46.4726C17.6382 46.4759 17.6329 46.4809 17.6294 46.4871C17.6258 46.4933 17.6241 46.5004 17.6244 46.5076C17.6248 46.5147 17.6272 46.5216 17.6314 46.5275C17.6355 46.5333 17.6413 46.5378 17.6479 46.5404C17.9643 46.6217 18.2727 46.6082 18.5732 46.4997C18.7269 46.4432 18.8037 46.3325 18.8037 46.1676L18.8105 39.4634C18.8105 39.2781 18.7224 39.1561 18.5461 39.0973C18.3134 39.0205 18.0648 39.0058 17.8005 39.0533C17.5542 39.1007 17.5485 39.1708 17.7835 39.2634L17.9394 39.3244ZM25.0707 40.1379C25.1091 40.1808 25.1283 40.2328 25.1283 40.2938C25.1374 42.0653 25.1328 43.8323 25.1148 45.5948C25.1114 45.9676 24.9555 46.232 24.6233 46.4116C24.4019 46.5291 24.4165 46.5901 24.6674 46.5946C24.9317 46.5991 25.1905 46.5698 25.4435 46.5065C25.4912 46.4938 25.5332 46.466 25.5633 46.4274C25.5933 46.3888 25.6096 46.3415 25.6096 46.293C25.6209 43.9114 25.6266 41.6055 25.6266 39.3753C25.6266 39.1809 25.517 39.0827 25.2978 39.0804C25.256 39.0804 25.2149 39.0889 25.177 39.1052C25.139 39.1215 25.1052 39.1454 25.0775 39.1753L22.671 41.7139C22.5874 41.8021 22.5038 41.8021 22.4202 41.7139L20.007 39.1516C19.9635 39.1064 19.9075 39.0752 19.8462 39.062C19.7849 39.0488 19.721 39.0542 19.6628 39.0775C19.6046 39.1008 19.5546 39.1409 19.5193 39.1928C19.484 39.2446 19.465 39.3058 19.4647 39.3685V46.2455C19.4647 46.3834 19.5313 46.4703 19.6646 46.5065C19.9335 46.5743 20.2092 46.598 20.4916 46.5777C20.6724 46.5664 20.6814 46.5189 20.5188 46.4353C20.338 46.3427 20.1911 46.2173 20.0781 46.0591C19.9991 45.9484 19.9595 45.8264 19.9595 45.6931V40.2057C19.9591 40.178 19.9672 40.1508 19.9828 40.1279C19.9983 40.1049 20.0204 40.0873 20.0463 40.0773C20.0721 40.0674 20.1004 40.0655 20.1273 40.0721C20.1542 40.0787 20.1784 40.0934 20.1968 40.1142L22.2473 42.3071C22.4462 42.5195 22.6439 42.5206 22.8405 42.3105L24.8843 40.1345C24.8961 40.1219 24.9104 40.1119 24.9264 40.1052C24.9424 40.0985 24.9596 40.0952 24.9771 40.0955C24.9946 40.0958 25.012 40.0997 25.0281 40.107C25.0442 40.1143 25.0587 40.1248 25.0707 40.1379ZM24.3759 52.6006C24.4911 52.7203 24.6131 52.7328 24.7419 52.6379C25.0131 52.4413 24.9826 52.3633 24.6504 52.404C24.386 52.4379 24.1883 52.3803 24.0573 52.2311C23.9375 52.0978 23.9048 51.9408 23.959 51.76C24.0629 51.4166 24.1759 51.0833 24.2979 50.7602C24.4696 50.3037 24.638 50.306 24.8029 50.7669C24.9927 51.2979 25.1419 51.8459 25.2503 52.4108C25.2729 52.5305 25.3226 52.6379 25.3995 52.7328C25.6322 53.0107 25.7587 53.3237 25.7791 53.6716C25.7859 53.8027 25.7407 53.9123 25.6435 54.0004L25.5249 54.1089C25.3644 54.2557 25.3927 54.328 25.6096 54.3258L27.1992 54.3122C27.4139 54.3122 27.4478 54.2331 27.3009 54.075C27.006 53.7631 26.7383 53.3835 26.5959 52.9768C26.1666 51.7544 25.7113 50.5229 25.23 49.2824C25.1238 49.009 24.9532 48.9288 24.7182 49.0417C24.6443 49.0765 24.587 49.1386 24.5589 49.2146C24.1273 50.3354 23.7375 51.4527 23.3896 52.5667C23.1659 53.2852 22.8292 53.8185 22.3795 54.1665C22.2349 54.2795 22.2553 54.3348 22.4405 54.3326L23.7251 54.319C23.9172 54.319 23.9443 54.2523 23.8065 54.119C23.7206 54.0377 23.6302 53.962 23.5353 53.8919C23.3907 53.7835 23.3365 53.6411 23.3726 53.4649C23.4494 53.083 23.6042 52.7881 23.837 52.5803C23.9121 52.5135 24.0101 52.4784 24.1105 52.4822C24.2109 52.486 24.306 52.5284 24.3759 52.6006ZM17.9767 50.1907C17.9677 51.3115 17.962 52.3882 17.9598 53.4208C17.9575 53.5609 17.918 53.6886 17.8411 53.8038L17.6412 54.0919C17.5327 54.2523 17.5756 54.3224 17.77 54.3021C18.3303 54.2456 18.8839 54.2377 19.4308 54.2783C23.2913 54.5732 23.0303 48.8723 19.7223 49.1095C19.0986 49.1547 18.4512 49.1513 17.7801 49.0994C17.5677 49.0836 17.5293 49.157 17.6649 49.3197C17.8886 49.584 17.9801 49.8383 17.9767 50.1907Z" fill="currentColor"/>
<path d="M77.5106 44.6838C78.0936 43.4873 79.168 42.5146 80.5983 42.8637C81.7711 43.1461 82.371 43.9223 82.3981 45.1922C82.4297 46.6157 82.4354 48.0641 82.415 49.5374C82.415 49.6639 82.4568 49.7746 82.5404 49.8695C82.6851 50.03 82.8794 50.1328 83.1234 50.178C83.2341 50.1983 83.3076 50.2616 83.3437 50.3678C83.355 50.4039 83.3539 50.4389 83.3403 50.4728C83.3293 50.4991 83.3111 50.5217 83.2876 50.5379C83.2642 50.5541 83.2366 50.5633 83.2082 50.5643C82.0173 50.5847 80.9497 50.5734 80.0052 50.5305C79.9171 50.5282 79.8662 50.4853 79.8527 50.4017C79.8483 50.3777 79.849 50.3532 79.8546 50.3295C79.8603 50.3058 79.8707 50.2836 79.8854 50.2642C79.9 50.2447 79.9185 50.2286 79.9397 50.2166C79.9609 50.2047 79.9844 50.1973 80.0086 50.1949C80.5328 50.1429 80.7927 49.8605 80.7881 49.3476C80.7791 48.0393 80.7791 46.6734 80.7881 45.2498C80.7915 44.4431 80.1374 43.6602 79.3036 43.7144C78.2484 43.7822 77.6993 44.4228 77.6563 45.6362C77.6157 46.7863 77.6123 48.0573 77.6462 49.4492C77.6563 49.9543 78.0326 50.1407 78.4732 50.2051C78.5681 50.2186 78.6144 50.2729 78.6121 50.3678V50.4694C78.6099 50.5327 78.5783 50.5643 78.5172 50.5643L75.2262 50.5711C75.2129 50.5711 75.2 50.5676 75.1889 50.561C75.0533 50.4909 75.0092 50.413 75.0567 50.3271C75.0996 50.2503 75.1651 50.2062 75.2533 50.1949C76.1582 50.0864 76.0227 49.4357 76.0294 48.7409C76.052 46.5129 76.0464 44.1867 76.0125 41.7622C76.0114 41.6499 75.9795 41.5401 75.9203 41.445C75.8611 41.35 75.7769 41.2732 75.6769 41.2232L75.1855 40.9758C74.9482 40.8583 74.9595 40.7725 75.2194 40.7182C75.9696 40.5646 76.6779 40.3013 77.3445 39.9285C77.3816 39.9078 77.4236 39.8975 77.466 39.8985C77.5085 39.8996 77.5499 39.912 77.5859 39.9345C77.6219 39.957 77.6512 39.9888 77.6707 40.0265C77.6903 40.0642 77.6994 40.1064 77.697 40.1488C77.6337 41.1453 77.6157 42.1949 77.6428 43.2975C77.653 43.7619 77.5072 44.1212 77.3682 44.5516C77.3524 44.6013 77.3682 44.6363 77.4157 44.6567L77.4937 44.6906C77.5004 44.6951 77.5061 44.6928 77.5106 44.6838Z" fill="currentColor"/>
<path d="M84.7096 49.3527C84.6847 49.3188 84.6723 49.2804 84.6723 49.2375C84.7627 46.7045 84.774 44.2212 84.7062 41.7876C84.701 41.6329 84.6455 41.4841 84.5482 41.3642C84.4509 41.2442 84.3171 41.1596 84.1673 41.1233C84.043 41.094 83.9334 41.0431 83.8385 40.9708C83.6668 40.842 83.686 40.7561 83.8961 40.7132C84.6101 40.5686 85.3163 40.2986 86.0145 39.9032C86.0495 39.8841 86.0889 39.8744 86.1287 39.875C86.1686 39.8757 86.2075 39.8867 86.2415 39.907C86.2755 39.9273 86.3035 39.9561 86.3225 39.9905C86.3416 40.025 86.3511 40.0638 86.35 40.1031C86.2935 42.7694 86.28 45.8402 86.3094 49.3154C86.3116 49.7109 86.4946 49.9854 86.8584 50.1391C87.4708 50.3966 87.4448 50.5356 86.7805 50.5559C85.8744 50.5808 84.9231 50.5763 83.9266 50.5424C83.8069 50.5401 83.7402 50.478 83.7266 50.356C83.7244 50.3221 83.7334 50.2916 83.7538 50.2645C83.7831 50.2283 83.8204 50.2068 83.8656 50.2001C84.2814 50.1436 84.5683 49.9063 84.7265 49.4883C84.7469 49.4408 84.7412 49.3956 84.7096 49.3527Z" fill="currentColor"/>
<path d="M109.353 43.5168C109.525 43.6366 109.608 43.5914 109.604 43.3812L109.57 41.6628C109.568 41.5693 109.539 41.4783 109.488 41.4003C109.436 41.3224 109.364 41.2606 109.278 41.2222L108.783 40.9951C108.508 40.8708 108.518 40.7782 108.814 40.7172C109.546 40.568 110.241 40.3025 110.898 39.9207C110.933 39.9 110.972 39.889 111.012 39.8887C111.052 39.8884 111.091 39.8988 111.126 39.9189C111.161 39.9389 111.189 39.9679 111.209 40.0028C111.228 40.0377 111.238 40.0772 111.237 40.1173C111.174 43.2355 111.164 46.3571 111.207 49.4821C111.214 49.9634 111.597 50.1972 112.03 50.2582C112.063 50.2625 112.092 50.2788 112.113 50.304C112.134 50.3292 112.144 50.3613 112.142 50.3938L112.139 50.4853C112.139 50.5125 112.124 50.5271 112.095 50.5294L109.868 50.6582C109.771 50.6627 109.694 50.6254 109.638 50.5463C109.617 50.5192 109.605 50.4876 109.6 50.4514C109.587 50.2865 109.636 50.143 109.749 50.021C109.88 49.8786 109.875 49.7498 109.732 49.6346C109.658 49.5759 109.592 49.5849 109.536 49.6617C108.994 50.4074 108.19 50.7441 107.126 50.6718C105.611 50.5701 104.628 49.3702 104.408 47.9467C104.208 46.6418 104.262 44.981 105.17 43.9405C106.386 42.5463 107.78 42.4051 109.353 43.5168ZM106.136 48.0213C106.275 49.177 107.034 50.5735 108.421 50.1972C109.194 49.9905 109.658 49.1431 109.631 48.35C109.588 47.2293 109.571 46.1187 109.58 45.0183C109.593 43.4083 107.594 42.3983 106.611 43.9744C105.913 45.0928 105.974 46.6892 106.136 48.0213Z" fill="currentColor"/>
<path d="M116.909 48.4013C116.85 48.3809 116.809 48.3425 116.787 48.286C116.145 46.7676 116.083 45.248 116.6 43.7273C117.122 42.1919 118.597 40.9616 120.291 40.9887C121.333 41.0045 122.368 41.0463 123.396 41.1141C123.427 41.1158 123.457 41.128 123.481 41.1489C123.505 41.1697 123.522 41.198 123.528 41.2294L124.067 43.5714C124.07 43.583 124.07 43.5951 124.067 43.6067C124.065 43.6183 124.059 43.629 124.051 43.6378C124.043 43.6465 124.032 43.6531 124.021 43.6569C124.01 43.6607 123.998 43.6616 123.986 43.6595L123.85 43.6324C123.726 43.6098 123.639 43.5409 123.589 43.4257C122.833 41.67 120.678 40.5752 119.112 42.0089C118.615 42.4608 118.284 43.2212 118.119 44.29C117.851 46.0457 118.153 48.4081 119.539 49.6926C120.634 50.706 122.637 50.5467 122.783 48.7063C122.871 47.5743 122.878 46.3812 121.468 46.2253C121.431 46.223 121.411 46.2038 121.407 46.1677L121.386 46.0185C121.37 45.8943 121.426 45.8321 121.552 45.8321H124.996C125.036 45.8321 125.075 45.8436 125.109 45.8651C125.143 45.8867 125.171 45.9175 125.189 45.9541C125.261 46.1055 125.239 46.1993 125.121 46.2355C124.956 46.2897 124.798 46.3552 124.647 46.432C124.541 46.4863 124.471 46.571 124.437 46.6863C124.143 47.6963 124.143 48.6848 124.437 49.6519C124.471 49.7649 124.533 49.8598 124.623 49.9367L124.728 50.0214C124.895 50.1615 124.87 50.2304 124.654 50.2281C123.935 50.2281 123.196 50.1942 122.498 50.4146C120.366 51.0823 118.295 50.5908 117.027 48.6928C116.991 48.6363 116.974 48.5741 116.977 48.5063C116.979 48.4544 116.956 48.4193 116.909 48.4013Z" fill="currentColor"/>
<path d="M45.2755 42.8857C45.1377 42.5513 45.0676 42.5649 45.0653 42.9264L45.0484 49.4374C45.0483 49.5625 45.0899 49.6841 45.1666 49.7829C45.2433 49.8818 45.3508 49.9522 45.4721 49.9831L46.5634 50.2644C46.5786 50.2683 46.5927 50.2752 46.6051 50.2847C46.6175 50.2943 46.6277 50.3062 46.6354 50.3198C46.643 50.3335 46.6477 50.3485 46.6493 50.364C46.651 50.3796 46.6494 50.3952 46.6448 50.4101C46.6358 50.4418 46.6177 50.4689 46.5906 50.4915C46.5567 50.5254 46.516 50.5423 46.4685 50.5423C45.4133 50.574 44.3694 50.5751 43.3368 50.5457C43.2351 50.5435 43.1729 50.4926 43.1503 50.3932L43.1266 50.2949C43.1247 50.2874 43.1245 50.2795 43.1261 50.2718C43.1276 50.2641 43.131 50.2567 43.1358 50.2503C43.1406 50.2439 43.1468 50.2385 43.154 50.2345C43.1612 50.2305 43.1692 50.228 43.1775 50.2271C44.1242 50.13 44.5942 49.7967 44.5874 49.2273C44.5558 46.8976 44.5468 44.5827 44.5603 42.2824C44.5603 42.1491 44.5129 42.035 44.418 41.9401C44.1694 41.6916 43.87 41.5323 43.5198 41.4622C43.4384 41.4464 43.3887 41.3978 43.3706 41.3165C43.3616 41.2803 43.3661 41.2476 43.3842 41.2182C43.4249 41.1504 43.4836 41.1154 43.5605 41.1131C44.3897 41.0747 45.2043 41.0679 46.0042 41.0928C46.1759 41.0973 46.2934 41.1786 46.3567 41.3368L48.8411 47.6038C48.9405 47.8523 49.0366 47.8512 49.1292 47.6004L51.4984 41.2826C51.5211 41.2228 51.5615 41.1713 51.6141 41.1349C51.6668 41.0986 51.7293 41.0792 51.7933 41.0792H54.0472C54.1783 41.0792 54.2698 41.1402 54.3218 41.2622C54.3398 41.3029 54.3376 41.3368 54.315 41.3639C54.2607 41.434 54.1884 41.4792 54.0981 41.4995C53.7354 41.591 53.2778 41.8384 53.2778 42.2689C53.2756 44.7974 53.2744 47.2343 53.2744 49.5798C53.2744 49.695 53.3185 49.791 53.4066 49.8679C53.619 50.0554 53.9003 50.1752 54.2506 50.2271C54.2754 50.2316 54.2924 50.2463 54.3014 50.2712L54.3353 50.3559C54.3805 50.4757 54.3387 50.5378 54.2099 50.5423C52.9897 50.5875 51.7594 50.583 50.5189 50.5288C50.4646 50.5265 50.4353 50.4983 50.4307 50.444L50.424 50.3424C50.4194 50.261 50.4579 50.2181 50.5392 50.2136C50.8894 50.1932 51.1888 50.0723 51.4374 49.8509C51.5323 49.7673 51.5809 49.6611 51.5831 49.5323C51.6102 47.2976 51.6057 45.1544 51.5696 43.1027C51.5605 42.5897 51.4668 42.5728 51.2882 43.0518L48.5869 50.3017C48.5101 50.5118 48.4287 50.5141 48.3429 50.3085L45.2755 42.8857Z" fill="currentColor"/>
<path d="M59.0831 42.8215C60.5067 42.9537 61.0117 43.8654 60.9948 45.15C60.9789 46.4131 60.9733 47.5937 60.9778 48.6919C60.9812 49.2545 60.9032 50.0544 61.676 50.1392C61.8432 50.1572 61.8884 50.242 61.8116 50.3934C61.7596 50.4973 61.6749 50.564 61.5574 50.5933C60.6965 50.7933 59.6288 50.7662 59.6119 49.6307C59.6074 49.3393 59.5113 49.3042 59.3238 49.5257C58.4663 50.5357 57.3342 50.9221 56.0158 50.5391C55.0464 50.2612 54.7278 49.3291 54.921 48.4174C55.2667 46.7905 57.8799 46.3803 59.1984 46.1566C59.334 46.1318 59.4017 46.0516 59.4017 45.916C59.4017 45.3421 59.3611 44.7704 59.2797 44.201C59.1272 43.1333 57.9172 42.9266 57.1681 43.5163C57.0805 43.5863 57.0205 43.686 56.9987 43.7976L56.7411 45.1432C56.714 45.2788 56.6405 45.3816 56.5208 45.4517C56.0225 45.7465 55.2904 45.4788 55.2938 44.8145C55.3006 43.113 57.724 42.6961 59.0831 42.8215ZM59.3102 48.9393C59.3458 48.8771 59.3645 48.807 59.3645 48.736L59.4017 46.6922C59.404 46.5566 59.3374 46.4967 59.2018 46.5125C58.1059 46.6436 57.3173 47.0119 56.836 47.6175C56.3106 48.275 56.3784 49.5494 57.263 49.9256C58.0471 50.2578 58.7295 49.929 59.3102 48.9393Z" fill="currentColor"/>
<path d="M65.107 44.2437C65.473 43.0913 66.7949 42.2846 67.8693 43.1794C68.2489 43.498 68.2591 44.0573 67.9236 44.4097C67.8187 44.5195 67.6795 44.5903 67.5286 44.6106C67.3778 44.6309 67.2243 44.5996 67.0932 44.5216C66.8921 44.3996 66.7192 44.2392 66.5746 44.0403C66.5081 43.949 66.4198 43.8757 66.3177 43.8272C66.2157 43.7787 66.1031 43.7565 65.9903 43.7625C65.8775 43.7686 65.768 43.8028 65.6717 43.8619C65.5754 43.9211 65.4955 44.0034 65.4391 44.1013C65.1702 44.5691 65.0211 45.0831 64.9917 45.6435C64.9353 46.7529 64.9273 47.9324 64.968 49.182C64.9861 49.765 65.2753 50.096 65.8357 50.1751C65.9622 50.1931 66.0458 50.2621 66.0865 50.3818C66.1001 50.4202 66.0831 50.4598 66.0357 50.5004C65.9927 50.5389 65.943 50.5592 65.8865 50.5615C64.8132 50.5705 63.7467 50.5705 62.687 50.5615C62.6192 50.5615 62.5593 50.5355 62.5073 50.4835C62.4621 50.4428 62.4531 50.3829 62.4802 50.3039C62.4886 50.2801 62.5027 50.2588 62.5211 50.2422C62.5395 50.2256 62.5616 50.2142 62.5853 50.209C63.0056 50.1141 63.4157 49.8565 63.4157 49.3718C63.4134 47.6545 63.4123 46.022 63.4123 44.4741C63.4123 44.3408 63.3671 44.2256 63.2767 44.1284C63.0869 43.9205 62.8463 43.8279 62.5548 43.8505C62.435 43.8595 62.3808 43.8042 62.3921 43.6844C62.3989 43.6189 62.4339 43.5794 62.4972 43.5658C63.2519 43.4099 63.9806 43.1749 64.6833 42.8608C64.7252 42.8429 64.7715 42.8376 64.8164 42.8456C64.8613 42.8536 64.9029 42.8746 64.936 42.9059C64.9691 42.9372 64.9924 42.9776 65.0029 43.0219C65.0134 43.0663 65.0107 43.1128 64.9951 43.1557C64.8641 43.5037 64.7929 43.8482 64.7816 44.1894C64.759 44.978 64.8675 44.9961 65.107 44.2437Z" fill="currentColor"/>
<path d="M73.3085 43.0717C73.3492 42.9836 73.4102 42.9192 73.4916 42.8785C73.6317 42.8085 73.7062 42.8503 73.7153 43.0039L73.8305 44.5935C73.8395 44.7246 73.7797 44.7811 73.6509 44.763C73.617 44.7585 73.5865 44.746 73.5594 44.7257C73.5074 44.6918 73.469 44.6478 73.4441 44.5935C72.9323 43.5089 71.0851 42.3938 70.3835 43.9292C69.8141 45.1697 72.4137 46.234 73.1492 46.7492C74.2847 47.5389 74.8473 49.081 73.6576 50.1114C72.6036 51.0232 71.3393 50.6842 70.1734 50.169C69.8909 50.0425 69.6593 50.1046 69.4785 50.3555C69.4243 50.43 69.3328 50.4944 69.2481 50.5148C69.2301 50.5187 69.2116 50.5187 69.1936 50.5149C69.1756 50.5111 69.1587 50.5034 69.144 50.4925C69.1292 50.4816 69.1169 50.4677 69.108 50.4516C69.0991 50.4356 69.0937 50.4178 69.0921 50.3995L68.9769 48.7218C68.9724 48.6359 69.0119 48.5873 69.0955 48.576C69.143 48.5693 69.1882 48.576 69.2311 48.5964C69.2695 48.6167 69.2978 48.6461 69.3158 48.6845C69.77 49.6358 70.536 50.1656 71.6139 50.2741C72.9967 50.4097 73.4509 48.8302 72.3324 48.1049C71.589 47.6236 70.8535 47.1491 70.1259 46.6814C67.8415 45.2104 69.5057 41.9871 72.0884 42.9734C72.3708 43.0819 72.6487 43.1734 72.9222 43.2479C72.997 43.269 73.0769 43.2628 73.1476 43.2306C73.2184 43.1983 73.2754 43.142 73.3085 43.0717Z" fill="currentColor"/>
<path d="M92.8222 49.6456C92.8199 49.3383 92.7205 49.3032 92.5239 49.5405C91.7353 50.4873 90.7343 50.8454 89.5209 50.6149C88.5357 50.4296 88.0578 49.8229 88.0872 48.7948C88.1414 46.8154 90.9445 46.4358 92.4222 46.1511C92.551 46.1263 92.6143 46.0483 92.612 45.9173C92.6075 45.3365 92.5736 44.792 92.5104 44.2836C92.3714 43.1787 91.2258 42.9109 90.4123 43.4837C90.3039 43.5605 90.2372 43.6645 90.2124 43.7955L89.9548 45.1479C89.9368 45.2417 89.8924 45.3283 89.8269 45.3974C89.7614 45.4665 89.6775 45.5152 89.5853 45.5377C89.0905 45.6597 88.5075 45.4292 88.5075 44.8394C88.5075 44.1616 88.8577 43.6509 89.5582 43.3074C91.297 42.4533 94.2084 42.3347 94.1949 45.0157C94.1904 46.4528 94.1971 47.9102 94.2152 49.388C94.2197 49.7676 94.3994 50.0105 94.7541 50.1167C95.1925 50.2477 95.1981 50.3958 94.7711 50.5607C93.9305 50.8861 92.829 50.6827 92.8222 49.6456ZM92.29 49.2727C92.6245 48.7237 92.7171 47.8582 92.568 46.6765C92.5522 46.5499 92.481 46.4957 92.3544 46.5138C91.0258 46.6968 89.487 47.3882 89.7446 48.9135C89.9853 50.337 91.6291 50.3641 92.29 49.2727Z" fill="currentColor"/>
<path d="M98.1559 44.5006C98.6711 43.2872 99.5196 42.7234 100.701 42.8093C102.318 42.9279 102.877 44.0905 102.837 45.5886C102.798 46.9534 102.79 48.2605 102.813 49.5101C102.815 49.6231 102.855 49.7225 102.932 49.8083C103.117 50.014 103.352 50.1529 103.637 50.2252C103.713 50.2456 103.771 50.2908 103.809 50.3608C103.832 50.4105 103.83 50.4501 103.803 50.4794C103.764 50.5224 103.716 50.545 103.657 50.5472C102.651 50.5811 101.61 50.58 100.532 50.5438C100.453 50.5416 100.383 50.5156 100.322 50.4659C100.256 50.4116 100.231 50.3631 100.247 50.3201C100.263 50.2795 100.292 50.2535 100.335 50.2422C100.943 50.093 101.248 49.805 101.25 49.3779C101.253 47.9634 101.231 46.5568 101.186 45.1581C101.159 44.3582 100.573 43.6397 99.6642 43.7176C98.6225 43.8058 98.1062 44.4418 98.1152 45.6259C98.1243 46.9997 98.1254 48.265 98.1186 49.422C98.1175 49.6016 98.1881 49.7764 98.3172 49.9137C98.4464 50.0509 98.6252 50.1412 98.8202 50.1676C98.9242 50.1834 99.0089 50.2331 99.0744 50.3167C99.2055 50.4817 99.1659 50.5642 98.9558 50.5642H95.8206C95.6805 50.5642 95.6014 50.4953 95.5834 50.3574C95.5788 50.319 95.5935 50.2862 95.6274 50.2591C95.6613 50.232 95.6986 50.2151 95.7393 50.2083C96.2206 50.1303 96.5629 49.7677 96.5663 49.2694C96.5708 47.6177 96.5663 46.0461 96.5527 44.5548C96.5517 44.4895 96.5359 44.4253 96.5066 44.3672C96.4772 44.309 96.435 44.2585 96.3833 44.2193C96.1912 44.0769 95.9686 44.0069 95.7155 44.0091C95.5596 44.0091 95.4986 43.9334 95.5325 43.782C95.5461 43.7278 95.58 43.695 95.6342 43.6838C96.3188 43.5459 96.9436 43.3188 97.5085 43.0025C98.0373 42.7087 98.2271 42.8545 98.0779 43.4397C97.9898 43.7854 97.9638 44.1311 98 44.4769C98.0203 44.6915 98.0723 44.6994 98.1559 44.5006Z" fill="currentColor"/>
<path d="M128.479 44.6388C128.757 43.456 129.883 42.3578 131.167 42.9814C131.655 43.2187 131.818 43.7508 131.598 44.2355C131.529 44.3852 131.406 44.5034 131.253 44.5668C131.101 44.6302 130.93 44.6341 130.774 44.5778C130.537 44.4897 130.346 44.3338 130.201 44.1101C130.13 44.0015 130.033 43.9131 129.917 43.8538C129.802 43.7945 129.673 43.7664 129.544 43.7722C129.415 43.778 129.289 43.8176 129.181 43.887C129.072 43.9564 128.983 44.0532 128.923 44.1677C128.7 44.5925 128.579 45.0309 128.561 45.4828C128.513 46.7662 128.502 48.0971 128.527 49.4755C128.531 49.6269 128.589 49.7523 128.7 49.8517C128.903 50.0325 129.156 50.1522 129.459 50.211C129.633 50.2449 129.672 50.3375 129.578 50.4889C129.559 50.516 129.533 50.5307 129.5 50.533C128.415 50.5962 127.298 50.594 126.147 50.5262C126.084 50.5239 126.045 50.4912 126.029 50.4279C126.022 50.4037 126.021 50.3783 126.025 50.3535C126.029 50.3287 126.038 50.3049 126.052 50.2836C126.066 50.2623 126.083 50.244 126.105 50.2298C126.126 50.2155 126.149 50.2057 126.175 50.2008C126.632 50.1127 126.937 49.8415 126.934 49.3501C126.924 47.7774 126.852 46.181 126.937 44.6761C126.971 44.057 126.655 43.7813 125.988 43.8491C125.973 43.8507 125.958 43.8482 125.944 43.8419C125.93 43.8356 125.918 43.8257 125.91 43.8132C125.901 43.8007 125.896 43.7861 125.895 43.771C125.894 43.7559 125.897 43.7407 125.903 43.7271C125.917 43.6977 125.932 43.6695 125.947 43.6424C125.97 43.6017 126.003 43.5768 126.046 43.5678C126.758 43.4345 127.431 43.2142 128.066 42.9069C128.43 42.7329 128.58 42.8436 128.517 43.239C128.438 43.7181 128.328 44.1926 128.188 44.6626C128.183 44.6784 128.188 44.6886 128.201 44.6931L128.317 44.727C128.403 44.7563 128.457 44.727 128.479 44.6388Z" fill="currentColor"/>
<path d="M135.924 50.7258C134.985 50.7636 134.067 50.3809 133.373 49.6619C132.679 48.943 132.265 47.9467 132.222 46.8922C132.201 46.3701 132.272 45.8494 132.431 45.3599C132.59 44.8703 132.833 44.4216 133.147 44.0391C133.461 43.6567 133.84 43.3482 134.262 43.1311C134.683 42.9141 135.14 42.7927 135.605 42.774C136.545 42.7363 137.462 43.119 138.157 43.8379C138.851 44.5569 139.265 45.5532 139.307 46.6076C139.328 47.1298 139.257 47.6505 139.099 48.14C138.94 48.6295 138.697 49.0783 138.383 49.4607C138.068 49.8431 137.69 50.1517 137.268 50.3687C136.846 50.5858 136.39 50.7072 135.924 50.7258ZM136.037 50.3349C136.518 50.2971 136.949 49.8825 137.235 49.1822C137.522 48.4818 137.641 47.5532 137.566 46.6006C137.529 46.1289 137.445 45.6656 137.32 45.237C137.194 44.8083 137.03 44.4229 136.835 44.1026C136.641 43.7823 136.42 43.5334 136.187 43.3702C135.953 43.207 135.71 43.1327 135.472 43.1514C134.992 43.1892 134.561 43.6038 134.274 44.3042C133.987 45.0045 133.869 45.9331 133.944 46.8857C133.981 47.3574 134.064 47.8207 134.19 48.2493C134.315 48.678 134.479 49.0634 134.674 49.3837C134.868 49.704 135.089 49.9529 135.323 50.1161C135.557 50.2793 135.799 50.3537 136.037 50.3349Z" fill="currentColor"/>
<path d="M151.18 50.1558L151.2 52.0742C151.201 52.1707 151.235 52.2641 151.297 52.3388C151.36 52.4135 151.446 52.4649 151.542 52.4843C151.678 52.5091 151.809 52.5464 151.935 52.5961C152.466 52.7972 152.453 52.9475 151.895 53.0469C151.21 53.1689 150.554 53.3712 149.925 53.6536C149.354 53.9089 149.188 53.7474 149.427 53.1689C149.509 52.9723 149.549 52.7599 149.549 52.5317C149.549 49.7298 149.548 46.9698 149.546 44.2515C149.546 44.1137 149.484 44.012 149.359 43.9464C149.201 43.8628 149.027 43.8244 148.837 43.8312C148.702 43.8357 148.627 43.7702 148.614 43.6346C148.609 43.5736 148.637 43.5375 148.698 43.5262C149.476 43.3906 150.228 43.1567 150.956 42.8246C150.988 42.8102 151.023 42.8045 151.057 42.8079C151.092 42.8113 151.125 42.8237 151.154 42.8439C151.182 42.8641 151.205 42.8914 151.22 42.9231C151.234 42.9548 151.24 42.9898 151.237 43.0245L151.196 43.4821C151.16 43.873 151.268 43.9171 151.518 43.6143C151.844 43.2211 152.273 42.9726 152.806 42.8686C156.952 42.0586 157.718 49.1898 154.549 50.4371C153.401 50.889 152.35 50.758 151.396 50.0439C151.25 49.9332 151.177 49.9705 151.18 50.1558ZM154.454 44.8717C154.325 44.3543 154.067 43.9171 153.681 43.5601C152.512 42.4822 151.227 43.8821 151.196 45.048C151.167 46.11 151.166 47.242 151.193 48.4441C151.216 49.4429 151.664 50.0349 152.539 50.2202C155.237 50.7964 154.83 46.397 154.454 44.8717Z" fill="currentColor"/>
<path d="M145.63 49.171C145.43 49.4524 145.247 49.7845 144.986 50.015C143.448 51.3606 140.902 50.7335 140.848 48.3712C140.814 47.0312 140.805 45.6495 140.821 44.226C140.828 43.7108 140.58 43.4362 140.079 43.4023C139.981 43.3978 139.924 43.347 139.906 43.2498C139.89 43.1549 139.931 43.1018 140.028 43.0905C140.708 43.0114 141.423 42.9323 142.173 42.8533C142.322 42.8397 142.398 42.9075 142.4 43.0566C142.412 44.5592 142.413 46.0799 142.404 47.6187C142.401 48.3056 142.483 48.7892 142.648 49.0694C143.248 50.0794 144.685 50.0794 145.268 49.0456C145.478 48.6705 145.581 48.2616 145.576 47.8187C145.563 46.4697 145.558 45.175 145.563 43.9345C145.563 43.8289 145.525 43.7269 145.456 43.6471C145.386 43.5674 145.291 43.5154 145.186 43.5006C145.037 43.4803 144.906 43.4272 144.793 43.3413C144.599 43.1899 144.625 43.1007 144.871 43.0736L147.04 42.8533C147.06 42.8514 147.08 42.8536 147.099 42.8599C147.118 42.8662 147.135 42.8764 147.15 42.8898C147.165 42.9032 147.176 42.9196 147.184 42.9378C147.192 42.956 147.196 42.9757 147.196 42.9956L147.2 49.4219C147.2 49.5281 147.232 49.623 147.298 49.7066C147.461 49.9122 147.668 50.0478 147.922 50.1133C147.979 50.1289 148.032 50.1592 148.074 50.2014C148.146 50.276 148.175 50.3426 148.159 50.4014C148.141 50.4827 148.09 50.5268 148.006 50.5336L145.956 50.6658C145.911 50.6689 145.866 50.661 145.824 50.6427C145.783 50.6245 145.747 50.5965 145.719 50.5611C145.691 50.5257 145.672 50.4841 145.663 50.4397C145.655 50.3953 145.658 50.3496 145.671 50.3065C145.777 49.963 145.826 49.6038 145.817 49.2287C145.81 49.0276 145.748 49.0084 145.63 49.171Z" fill="currentColor"/>
<path d="M18.9142 49.7705C18.9128 49.7135 18.9227 49.6569 18.9433 49.6037C18.9638 49.5506 18.9947 49.502 19.034 49.4607C19.0734 49.4195 19.1205 49.3864 19.1726 49.3634C19.2247 49.3404 19.2809 49.3278 19.3379 49.3265H19.3921C19.8432 49.3168 20.2801 49.5103 20.6068 49.8643C20.9336 50.2184 21.1233 50.704 21.1342 51.2144L21.1546 52.116C21.1601 52.3689 21.1215 52.6203 21.041 52.8559C20.9606 53.0914 20.8397 53.3065 20.6855 53.4888C20.5312 53.671 20.3466 53.8169 20.1421 53.9181C19.9376 54.0193 19.7173 54.0737 19.4938 54.0784H19.4395C19.3826 54.0798 19.3259 54.0699 19.2727 54.0493C19.2196 54.0288 19.171 53.9979 19.1298 53.9586C19.0885 53.9192 19.0554 53.8721 19.0324 53.82C19.0094 53.7679 18.9968 53.7117 18.9955 53.6547L18.9142 49.7705Z" fill="currentColor"/>
</svg>
