<svg viewBox="0 0 165 92" fill="none" xmlns="http://www.w3.org/2000/svg">
<path d="M37.6195 53.7556C27.7171 63.0983 18.0284 72.2172 8.55342 81.1121C8.54034 81.1238 8.52653 81.123 8.51199 81.1099C8.496 81.094 8.496 81.0772 8.51199 81.0598C17.4535 71.5339 26.4153 62.0197 35.3975 52.5171C36.4703 51.3818 37.0918 50.5837 37.2619 50.1229C37.666 49.0283 37.6805 47.9955 37.3055 47.0244C37.1063 46.5127 36.6121 45.8033 35.8227 44.8963C33.0113 41.6604 30.2152 38.4085 27.4344 35.1407C27.4198 35.1247 27.4205 35.1095 27.4365 35.0949V35.0927C27.4525 35.0767 27.4685 35.076 27.4845 35.0906C30.5939 37.729 33.7571 40.4517 36.974 43.2587C38.2169 44.3431 39.0811 44.9609 39.5666 45.1121C41.5509 45.727 42.8417 45.1187 44.427 43.745C47.7806 40.8376 51.1422 37.9463 54.5118 35.0709C54.5278 35.0564 54.5437 35.0571 54.5597 35.0731C54.5786 35.0906 54.5794 35.1095 54.5619 35.1298C51.7374 38.4296 48.8934 41.7302 46.0296 45.0314C45.1894 45.9996 44.685 46.7431 44.5164 47.2621C43.8251 49.3859 44.6799 50.716 46.1256 52.3754C48.9849 55.6606 51.7905 58.9176 54.5423 62.1462C54.5597 62.168 54.559 62.1883 54.5401 62.2072C54.5256 62.2218 54.511 62.2225 54.4965 62.2094C51.2926 59.4867 48.1004 56.7385 44.9198 53.9649C43.8295 53.0128 43.0344 52.456 42.5343 52.2947C41.4833 51.9516 40.4737 51.9778 39.5056 52.3732C39.0128 52.5738 38.3841 53.0346 37.6195 53.7556Z" fill="currentColor"/>
<path d="M69.8017 43.2323L67.7303 43.2235C67.6489 43.2235 67.6082 43.2642 67.6082 43.3457V48.8601C67.6082 48.8873 67.5974 48.9134 67.5781 48.9326C67.5589 48.9518 67.5329 48.9626 67.5057 48.9626H66.0208C65.9866 48.9626 65.9539 48.9488 65.9298 48.9243C65.9057 48.8998 65.8921 48.8665 65.8921 48.8318L65.8899 43.3762C65.8899 43.2773 65.8412 43.2279 65.7438 43.2279L63.9471 43.2301C63.9001 43.2301 63.8536 43.2393 63.8103 43.2573C63.7669 43.2753 63.7275 43.3016 63.6943 43.3348C63.661 43.368 63.6347 43.4075 63.6167 43.4508C63.5988 43.4942 63.5895 43.5407 63.5895 43.5877V48.8798C63.5895 48.935 63.5619 48.9626 63.5067 48.9626L61.9236 48.9604C61.8993 48.9604 61.876 48.9508 61.8589 48.9336C61.8417 48.9164 61.832 48.8931 61.832 48.8689C61.8466 47.1928 61.8487 45.4818 61.8386 43.736C61.8299 42.1834 62.9681 41.4617 64.3898 41.4748C66.7825 41.4937 69.1709 41.4951 71.5549 41.4791C71.6246 41.4791 71.6595 41.5133 71.6595 41.5816L71.6574 48.8798C71.6574 48.9023 71.6486 48.9239 71.6331 48.9399C71.6175 48.9558 71.5965 48.9648 71.5745 48.9648L70.0329 48.9604C70.0011 48.9604 69.9706 48.9476 69.9481 48.9247C69.9256 48.9018 69.913 48.8707 69.913 48.8383L69.9151 43.3457C69.9151 43.2701 69.8773 43.2323 69.8017 43.2323Z" fill="currentColor"/>
<path d="M80.8511 46.8022C80.8489 47.8968 79.9527 48.9565 78.8058 48.9543C77.6167 48.9543 76.3317 48.9594 74.9507 48.9696C73.3698 48.9783 72.6394 47.8488 72.635 46.3879C72.6306 45.5898 72.6328 44.754 72.6415 43.8803C72.6503 42.8497 73.0362 42.1403 73.7994 41.7521C74.2093 41.5457 74.7893 41.4498 75.5394 41.4643C77.2954 41.5007 79.0166 41.5036 80.7028 41.473C80.8017 41.4716 80.8518 41.521 80.8533 41.6213C80.8547 43.4529 80.854 45.1799 80.8511 46.8022ZM79.1372 46.9875V43.4813C79.1372 43.4136 79.1104 43.3487 79.0625 43.3009C79.0147 43.253 78.9498 43.2262 78.8821 43.2262H74.8417C74.7202 43.2262 74.6037 43.271 74.5179 43.3507C74.432 43.4304 74.3838 43.5386 74.3838 43.6514V46.8174C74.3838 46.9302 74.432 47.0384 74.5179 47.1181C74.6037 47.1978 74.7202 47.2426 74.8417 47.2426H78.8821C78.9498 47.2426 79.0147 47.2158 79.0625 47.1679C79.1104 47.1201 79.1372 47.0552 79.1372 46.9875Z" fill="currentColor"/>
<path d="M83.5779 46.7662V48.8879C83.5779 48.9358 83.5539 48.9605 83.5059 48.962L81.9076 48.9664C81.8742 48.9664 81.8575 48.9496 81.8575 48.9162C81.8618 47.4248 81.8575 45.9624 81.8444 44.529C81.8335 43.212 81.9512 42.2635 83.0764 41.7119C83.3947 41.5549 83.7858 41.4771 84.2495 41.4785C86.3791 41.4844 88.3365 41.4873 90.1216 41.4873C90.1317 41.4872 90.1417 41.4893 90.151 41.4933C90.1603 41.4973 90.1686 41.5031 90.1756 41.5105C90.1825 41.5178 90.1879 41.5265 90.1914 41.536C90.1948 41.5455 90.1963 41.5557 90.1957 41.5658C90.1724 42.3522 90.1724 43.2069 90.1957 44.13C90.2197 45.1287 89.8991 45.9551 88.9942 46.4174C88.9056 46.461 88.8838 46.5271 88.9288 46.6158L90.0714 48.9097C90.0741 48.9148 90.0754 48.9205 90.0752 48.9263C90.0749 48.932 90.0732 48.9377 90.0701 48.9425C90.067 48.9474 90.0627 48.9514 90.0575 48.954C90.0524 48.9567 90.0467 48.9579 90.0409 48.9576L88.423 48.9642C88.4045 48.9642 88.3863 48.9591 88.3706 48.9495C88.3548 48.9399 88.342 48.9261 88.3335 48.9097L87.2128 46.7946C87.1859 46.7439 87.1457 46.7015 87.0965 46.6719C87.0473 46.6424 86.9911 46.6267 86.9337 46.6267H83.7153C83.6237 46.6267 83.5779 46.6732 83.5779 46.7662ZM88.4449 43.474C88.4448 43.441 88.4382 43.4084 88.4255 43.3781C88.4128 43.3477 88.3942 43.3201 88.3708 43.2969C88.3475 43.2737 88.3198 43.2553 88.2893 43.2428C88.2588 43.2303 88.2262 43.2239 88.1933 43.2241L83.841 43.2393C83.7745 43.2395 83.7108 43.2661 83.664 43.3133C83.6171 43.3605 83.5909 43.4244 83.5912 43.4909L83.5952 44.6422C83.5953 44.6751 83.6019 44.7077 83.6146 44.7381C83.6273 44.7684 83.6459 44.796 83.6692 44.8192C83.6926 44.8424 83.7203 44.8608 83.7508 44.8733C83.7812 44.8858 83.8139 44.8922 83.8468 44.8921L88.1991 44.8769C88.2656 44.8766 88.3292 44.85 88.3761 44.8028C88.423 44.7556 88.4492 44.6917 88.4489 44.6252L88.4449 43.474Z" fill="currentColor"/>
<path d="M97.5198 43.2278H93.3834C93.0708 43.2278 92.9145 43.3841 92.9145 43.6966L92.9102 48.8819C92.9102 48.9342 92.884 48.9604 92.8317 48.9604L91.2792 48.9625C91.2526 48.9625 91.2271 48.952 91.2083 48.9332C91.1894 48.9144 91.1789 48.8888 91.1789 48.8622C91.1643 47.1484 91.1643 45.4461 91.1789 43.7555C91.192 42.275 92.1993 41.4638 93.6079 41.4747C95.4396 41.4907 97.3337 41.4929 99.2903 41.4813C99.3065 41.4813 99.322 41.4877 99.3335 41.4991C99.3449 41.5106 99.3514 41.5261 99.3514 41.5423L99.3536 48.9059C99.3536 48.9436 99.3339 48.9625 99.2947 48.9625H97.6877C97.6663 48.9625 97.6457 48.954 97.6306 48.9389C97.6155 48.9238 97.607 48.9033 97.607 48.8819L97.6113 43.3216C97.6113 43.2591 97.5808 43.2278 97.5198 43.2278Z" fill="currentColor"/>
<path d="M102.076 48.8845C102.076 48.8943 102.074 48.9039 102.07 48.9129C102.067 48.9219 102.061 48.9301 102.054 48.9369C102.047 48.9438 102.039 48.9493 102.03 48.953C102.021 48.9567 102.012 48.9587 102.002 48.9587H100.41C100.39 48.9587 100.372 48.9509 100.358 48.9369C100.344 48.923 100.336 48.9042 100.336 48.8845V41.5624C100.336 41.5428 100.344 41.5239 100.358 41.51C100.372 41.4961 100.39 41.4883 100.41 41.4883H102.002C102.012 41.4883 102.021 41.4902 102.03 41.4939C102.039 41.4976 102.047 41.5031 102.054 41.51C102.061 41.5169 102.067 41.5251 102.07 41.534C102.074 41.543 102.076 41.5527 102.076 41.5624V48.8845Z" fill="currentColor"/>
<path d="M109.353 43.2283H105.178C105.08 43.2283 104.986 43.2671 104.917 43.3362C104.848 43.4053 104.809 43.4991 104.809 43.5968L104.805 48.8649C104.805 48.9288 104.773 48.9608 104.709 48.9608L103.143 48.9586C103.089 48.9586 103.063 48.931 103.063 48.8758C103.065 47.1881 103.065 45.4757 103.063 43.7385C103.058 42.2057 104.144 41.4599 105.612 41.4708C107.532 41.4883 109.361 41.4926 111.1 41.4839C111.196 41.4824 111.244 41.5304 111.244 41.6278L111.242 48.8736C111.242 48.9318 111.213 48.9608 111.157 48.9608L109.606 48.9652C109.578 48.9652 109.552 48.9544 109.532 48.9352C109.513 48.916 109.502 48.8899 109.502 48.8627L109.499 43.3766C109.499 43.2777 109.451 43.2283 109.353 43.2283Z" fill="currentColor"/>
<path d="M118.389 47.0887V45.2877C118.389 45.244 118.41 45.2222 118.452 45.2222H120.083C120.117 45.2222 120.134 45.2397 120.134 45.2746L120.131 48.8637C120.131 48.8897 120.121 48.9146 120.103 48.933C120.084 48.9515 120.059 48.9618 120.033 48.9618L112.358 48.9596C112.271 48.9596 112.227 48.9167 112.227 48.831C112.236 47.197 112.234 45.4897 112.223 43.709C112.216 42.381 113.265 41.474 114.549 41.4805C116.265 41.4892 117.999 41.4907 119.752 41.4849C119.773 41.4849 119.793 41.4934 119.807 41.5085C119.822 41.5236 119.83 41.5441 119.83 41.5655L119.82 43.166C119.818 43.2082 119.797 43.2293 119.756 43.2293L114.425 43.2314C114.3 43.2314 114.18 43.2808 114.092 43.3688C114.004 43.4567 113.954 43.5759 113.954 43.7002L113.945 47.0909C113.945 47.197 113.998 47.2501 114.104 47.2501L118.232 47.2457C118.337 47.2457 118.389 47.1934 118.389 47.0887Z" fill="currentColor"/>
<path d="M123.027 44.4031L128.912 44.4118C128.994 44.4118 129.032 44.4525 129.028 44.5339C129.003 45.1285 129.003 45.7703 129.028 46.4593C129.08 47.8679 128.271 48.9756 126.808 48.9669C125.038 48.9567 123.162 48.9538 121.183 48.9582C121.164 48.9582 121.146 48.9508 121.133 48.9377C121.12 48.9246 121.113 48.9069 121.113 48.8884L121.122 47.3032C121.122 47.2875 121.128 47.2726 121.138 47.2615C121.149 47.2505 121.163 47.2443 121.178 47.2443H126.717C126.827 47.2443 126.933 47.2036 127.015 47.1299C127.096 47.0562 127.148 46.9548 127.159 46.8453L127.205 46.4004C127.23 46.1591 127.121 46.0385 126.878 46.0385L121.18 46.0363C121.171 46.0363 121.161 46.0344 121.152 46.0306C121.143 46.0269 121.135 46.0214 121.129 46.0144C121.122 46.0075 121.117 45.9993 121.113 45.9904C121.11 45.9814 121.108 45.9718 121.108 45.9622C121.126 45.3996 121.124 44.8108 121.104 44.1959C121.052 42.5867 121.811 41.4638 123.487 41.4747C125.425 41.4892 127.249 41.4921 128.96 41.4834C128.998 41.4834 129.017 41.5023 129.017 41.5401V43.1602C129.017 43.1793 129.01 43.1976 128.996 43.2111C128.983 43.2246 128.964 43.2322 128.945 43.2322L123.256 43.2256C122.997 43.2256 122.845 43.3521 122.798 43.605C122.769 43.7577 122.743 43.8994 122.72 44.0302C122.673 44.2788 122.776 44.4031 123.027 44.4031Z" fill="currentColor"/>
<path d="M134.947 43.3136L134.95 48.8739C134.95 48.8964 134.941 48.918 134.925 48.934C134.909 48.9499 134.887 48.9589 134.865 48.9589L133.29 48.9676C133.268 48.9676 133.246 48.9587 133.23 48.9427C133.214 48.9268 133.205 48.9051 133.205 48.8826L133.203 43.3114C133.203 43.2888 133.194 43.2672 133.178 43.2513C133.162 43.2353 133.141 43.2264 133.118 43.2264L130.113 43.2329C130.091 43.2329 130.069 43.2239 130.053 43.208C130.037 43.1921 130.028 43.1704 130.028 43.1479L130.02 41.5714C130.02 41.5488 130.028 41.5272 130.044 41.5112C130.06 41.4953 130.082 41.4863 130.105 41.4863H137.926C137.949 41.4863 137.97 41.4953 137.986 41.5112C138.002 41.5272 138.011 41.5488 138.011 41.5714L138.009 43.1457C138.009 43.1682 138 43.1899 137.984 43.2058C137.968 43.2218 137.946 43.2307 137.924 43.2307L135.033 43.2285C135.021 43.2285 135.01 43.2307 135 43.235C134.99 43.2393 134.98 43.2456 134.972 43.2535C134.964 43.2613 134.958 43.2707 134.954 43.281C134.95 43.2914 134.947 43.3024 134.947 43.3136Z" fill="currentColor"/>
<path d="M145.105 47.0783H140.858C140.827 47.0783 140.797 47.0905 140.775 47.1121C140.753 47.1338 140.74 47.1632 140.74 47.1939L140.747 48.923C140.747 48.9492 140.734 48.9622 140.707 48.9622L139.074 48.9535C139.044 48.9535 139.028 48.9375 139.028 48.9056C139.027 47.1699 139.027 45.464 139.028 43.7879C139.028 42.3532 140.007 41.4701 141.392 41.4766C143.219 41.4868 145.063 41.4897 146.922 41.4853C146.939 41.4853 146.956 41.492 146.968 41.5038C146.98 41.5157 146.987 41.5318 146.987 41.5486L146.985 48.923C146.985 48.9463 146.973 48.9579 146.95 48.9579L145.319 48.9622C145.289 48.9622 145.273 48.9477 145.273 48.9186L145.265 47.2353C145.265 47.1306 145.212 47.0783 145.105 47.0783ZM145.269 45.2707L145.265 43.2908C145.265 43.2734 145.258 43.2568 145.245 43.2445C145.233 43.2322 145.217 43.2254 145.199 43.2254L141.128 43.2319C141.077 43.2319 141.026 43.2398 140.978 43.2551C140.931 43.2704 140.888 43.2927 140.851 43.3209C140.815 43.3491 140.786 43.3825 140.767 43.4192C140.747 43.456 140.738 43.4953 140.738 43.535L140.742 45.0439C140.743 45.1234 140.784 45.1994 140.857 45.2554C140.931 45.3113 141.03 45.3427 141.133 45.3426L145.204 45.3361C145.221 45.3361 145.238 45.3292 145.25 45.3169C145.262 45.3047 145.269 45.288 145.269 45.2707Z" fill="currentColor"/>
<path d="M155.031 46.5927L156.193 48.9062C156.195 48.9114 156.197 48.9172 156.196 48.9231C156.196 48.9289 156.194 48.9346 156.191 48.9396C156.188 48.9446 156.184 48.9487 156.179 48.9517C156.174 48.9546 156.168 48.9562 156.162 48.9563L154.536 48.9629C154.498 48.9629 154.47 48.9469 154.453 48.9149L153.299 46.7366C153.26 46.6639 153.2 46.6276 153.118 46.6276L149.843 46.6297C149.753 46.6297 149.708 46.6741 149.708 46.7628L149.712 48.8931C149.712 48.9116 149.705 48.9293 149.693 48.9424C149.68 48.9555 149.663 48.9629 149.645 48.9629L148.046 48.9607C148.035 48.9607 148.023 48.9583 148.012 48.9537C148.001 48.9491 147.991 48.9423 147.982 48.9337C147.974 48.9252 147.968 48.9151 147.963 48.904C147.959 48.8929 147.957 48.881 147.957 48.8691C147.983 47.4561 147.98 46.041 147.948 44.6237C147.929 43.782 147.998 43.1773 148.155 42.8095C148.548 41.885 149.403 41.462 150.421 41.4729C152.392 41.4932 154.304 41.4961 156.156 41.4816C156.255 41.4801 156.305 41.5296 156.306 41.6299C156.326 42.5326 156.287 43.4091 156.313 44.2879C156.342 45.2662 155.931 45.9836 155.081 46.44C155.014 46.4749 154.997 46.5258 155.031 46.5927ZM154.569 43.4311C154.569 43.4044 154.564 43.3781 154.554 43.3535C154.544 43.3289 154.529 43.3066 154.51 43.2878C154.491 43.269 154.469 43.2541 154.444 43.2439C154.419 43.2338 154.393 43.2286 154.366 43.2286L149.922 43.2364C149.896 43.2364 149.869 43.2417 149.845 43.252C149.82 43.2622 149.798 43.2772 149.779 43.296C149.76 43.3149 149.745 43.3373 149.735 43.3619C149.725 43.3865 149.72 43.4129 149.72 43.4395L149.722 44.6868C149.722 44.7134 149.728 44.7398 149.738 44.7644C149.748 44.7889 149.763 44.8113 149.782 44.8301C149.801 44.8489 149.823 44.8638 149.848 44.8739C149.872 44.8841 149.899 44.8893 149.925 44.8892L154.369 44.8815C154.396 44.8814 154.422 44.8761 154.447 44.8659C154.471 44.8557 154.494 44.8407 154.512 44.8218C154.531 44.803 154.546 44.7806 154.556 44.756C154.566 44.7313 154.572 44.705 154.572 44.6783L154.569 43.4311Z" fill="currentColor"/>
<path d="M155.307 55.528C155.315 55.5134 155.32 55.4972 155.321 55.4805C155.322 55.4638 155.319 55.4471 155.312 55.4317C155.306 55.4163 155.296 55.4026 155.283 55.3917C155.271 55.3808 155.256 55.373 155.239 55.3688C154.644 55.2118 153.547 55.1049 153.456 54.3265C153.277 52.8002 155.172 52.8481 156.17 53.1469C156.317 53.1905 156.362 53.2828 156.303 53.4238L156.072 53.9863C156.023 54.1055 155.941 54.1361 155.826 54.0779C155.601 53.9631 155.364 53.8962 155.117 53.8773C154.986 53.8671 154.858 53.8839 154.731 53.9275C154.688 53.942 154.655 53.9704 154.633 54.0125C154.624 54.0308 154.619 54.0509 154.618 54.0714C154.618 54.092 154.623 54.1124 154.631 54.1311C154.64 54.1498 154.653 54.1663 154.669 54.1794C154.686 54.1925 154.704 54.2018 154.725 54.2066C155.266 54.3352 156.356 54.4573 156.476 55.1616C156.761 56.8363 154.529 56.7032 153.512 56.3042C153.421 56.2679 153.393 56.2046 153.43 56.1145L153.685 55.4822C153.72 55.3964 153.779 55.3731 153.863 55.4124C154.236 55.5839 154.627 55.6719 155.039 55.6762C155.159 55.6777 155.249 55.6283 155.307 55.528Z" fill="currentColor"/>
<path d="M63.8326 54.8548L64.563 53.0908C64.569 53.0772 64.5787 53.0657 64.5911 53.0575C64.6035 53.0494 64.618 53.0451 64.6328 53.045L65.7034 53.0385C65.7161 53.0385 65.7285 53.0417 65.7397 53.0477C65.7508 53.0538 65.7602 53.0625 65.7672 53.0731C65.7741 53.0837 65.7783 53.0958 65.7793 53.1084C65.7804 53.121 65.7783 53.1337 65.7732 53.1453L64.3624 56.4488C64.3565 56.4624 64.3467 56.4739 64.3344 56.4821C64.322 56.4902 64.3075 56.4945 64.2927 56.4946L63.2177 56.4902C63.2029 56.4902 63.1884 56.4858 63.176 56.4777C63.1636 56.4696 63.1538 56.458 63.1479 56.4444L61.7633 53.1301C61.7586 53.1184 61.7569 53.1058 61.7583 53.0933C61.7597 53.0808 61.7641 53.0688 61.7712 53.0585C61.7784 53.0481 61.7879 53.0397 61.7991 53.0339C61.8103 53.0281 61.8227 53.0252 61.8352 53.0254L62.9037 53.0363C62.9187 53.0365 62.9334 53.0412 62.9458 53.0497C62.9582 53.0583 62.9679 53.0703 62.9735 53.0843L63.6908 54.8548C63.6965 54.869 63.7063 54.8811 63.7189 54.8897C63.7315 54.8983 63.7464 54.9028 63.7617 54.9028C63.777 54.9028 63.7919 54.8983 63.8045 54.8897C63.8171 54.8811 63.8269 54.869 63.8326 54.8548Z" fill="currentColor"/>
<path d="M76.5312 55.297L76.5508 55.4998C76.5525 55.5214 76.5621 55.5416 76.5778 55.5566C76.5935 55.5715 76.6142 55.58 76.6359 55.5805L78.1404 55.6066C78.1521 55.6066 78.1636 55.609 78.1743 55.6135C78.185 55.618 78.1947 55.6246 78.2029 55.633C78.211 55.6413 78.2174 55.6512 78.2216 55.662C78.2259 55.6728 78.2279 55.6844 78.2276 55.696L78.2189 56.3851C78.2189 56.4078 78.21 56.4297 78.1941 56.446C78.1783 56.4623 78.1566 56.4717 78.1339 56.4723L75.4693 56.505C75.4466 56.505 75.4247 56.4961 75.4084 56.4802C75.3921 56.4644 75.3827 56.4427 75.3821 56.42L75.3516 53.1318C75.3516 53.1086 75.3608 53.0865 75.3771 53.0701C75.3935 53.0538 75.4157 53.0446 75.4388 53.0446L78.1077 53.0293C78.1305 53.0293 78.1523 53.0382 78.1686 53.0541C78.1849 53.07 78.1944 53.0916 78.1949 53.1143L78.2102 53.8077C78.2102 53.8301 78.2016 53.8517 78.1862 53.8679C78.1708 53.8842 78.1497 53.8938 78.1273 53.895L76.6141 53.9495C76.5931 53.9504 76.5732 53.9589 76.558 53.9733C76.5428 53.9877 76.5333 54.0071 76.5312 54.028L76.5138 54.2308C76.5126 54.2426 76.5138 54.2545 76.5174 54.2658C76.5209 54.2771 76.5268 54.2876 76.5345 54.2966C76.5423 54.3056 76.5518 54.3129 76.5625 54.318C76.5732 54.3232 76.5848 54.3262 76.5966 54.3267L77.8918 54.3725C77.9138 54.3736 77.9346 54.383 77.95 54.3987C77.9653 54.4145 77.9742 54.4355 77.9747 54.4575L77.9812 55.0484C77.9813 55.0708 77.9727 55.0924 77.9573 55.1086C77.9418 55.1249 77.9208 55.1345 77.8984 55.1357L76.6141 55.2011C76.6022 55.2016 76.5906 55.2046 76.5799 55.2097C76.5692 55.2149 76.5597 55.2222 76.552 55.2312C76.5442 55.2402 76.5384 55.2506 76.5348 55.262C76.5312 55.2733 76.53 55.2852 76.5312 55.297Z" fill="currentColor"/>
<path d="M89.3266 55.1452L89.3463 56.4186C89.3463 56.4373 89.339 56.4553 89.326 56.4687C89.3129 56.4822 89.2952 56.49 89.2765 56.4906L88.2538 56.4993C88.2347 56.4993 88.2164 56.4917 88.2029 56.4782C88.1895 56.4647 88.1819 56.4464 88.1819 56.4273L88.1797 53.1152C88.1797 53.0961 88.1873 53.0778 88.2008 53.0643C88.2143 53.0508 88.2326 53.0432 88.2516 53.0432L89.1413 53.0476C89.1521 53.0474 89.1628 53.0496 89.1726 53.0542C89.1824 53.0587 89.1911 53.0654 89.198 53.0737L90.3231 54.4518C90.3325 54.4639 90.3455 54.4727 90.3603 54.4768C90.375 54.481 90.3907 54.4804 90.405 54.475C90.4194 54.4697 90.4317 54.4599 90.4401 54.4471C90.4485 54.4343 90.4526 54.4191 90.4518 54.4038L90.4212 53.1239C90.4209 53.1142 90.4226 53.1047 90.4261 53.0957C90.4296 53.0867 90.4348 53.0785 90.4415 53.0716C90.4482 53.0647 90.4563 53.0592 90.4651 53.0554C90.474 53.0517 90.4836 53.0497 90.4932 53.0497L91.518 53.041C91.5371 53.041 91.5554 53.0486 91.5689 53.0621C91.5824 53.0756 91.59 53.0939 91.59 53.113L91.5922 56.4252C91.5922 56.4442 91.5846 56.4625 91.5711 56.476C91.5576 56.4895 91.5393 56.4971 91.5202 56.4971L90.6306 56.4927C90.6198 56.4929 90.6091 56.4907 90.5992 56.4861C90.5894 56.4816 90.5808 56.4749 90.5739 56.4666L89.4531 55.0972C89.4435 55.086 89.4306 55.0781 89.4163 55.0744C89.402 55.0708 89.3869 55.0717 89.3731 55.0769C89.3592 55.0821 89.3474 55.0915 89.3391 55.1037C89.3308 55.1159 89.3264 55.1304 89.3266 55.1452Z" fill="currentColor"/>
<path d="M102.245 53.9541L101.493 53.9584C101.477 53.9587 101.461 53.9558 101.447 53.9499C101.432 53.944 101.418 53.9352 101.407 53.9241C101.396 53.9129 101.387 53.8996 101.38 53.8849C101.374 53.8702 101.371 53.8544 101.371 53.8385L101.375 53.1473C101.375 53.1155 101.388 53.085 101.411 53.0625C101.433 53.04 101.464 53.0273 101.495 53.0273L104.428 53.0404C104.444 53.0404 104.459 53.0435 104.474 53.0496C104.489 53.0556 104.502 53.0644 104.513 53.0756C104.524 53.0867 104.533 53.0999 104.539 53.1145C104.545 53.129 104.548 53.1446 104.548 53.1604L104.546 53.8516C104.546 53.8675 104.543 53.8833 104.537 53.898C104.53 53.9127 104.521 53.926 104.51 53.9372C104.499 53.9483 104.485 53.9571 104.47 53.963C104.456 53.9689 104.44 53.9718 104.424 53.9715L103.669 53.9606C103.653 53.9603 103.638 53.9632 103.623 53.9691C103.608 53.975 103.594 53.9838 103.583 53.9949C103.572 54.0061 103.563 54.0194 103.557 54.0341C103.55 54.0488 103.547 54.0646 103.547 54.0805L103.541 56.3679C103.541 56.3836 103.538 56.3992 103.532 56.4138C103.526 56.4283 103.517 56.4415 103.506 56.4527C103.494 56.4638 103.481 56.4726 103.467 56.4787C103.452 56.4847 103.437 56.4878 103.421 56.4878L102.474 56.4856C102.459 56.4856 102.443 56.4825 102.429 56.4765C102.414 56.4705 102.401 56.4616 102.39 56.4505C102.378 56.4394 102.37 56.4261 102.364 56.4116C102.358 56.397 102.355 56.3814 102.355 56.3657L102.368 54.0762C102.368 54.06 102.365 54.044 102.359 54.0291C102.353 54.0141 102.344 54.0006 102.332 53.9892C102.321 53.9778 102.307 53.9688 102.293 53.9628C102.278 53.9567 102.262 53.9538 102.245 53.9541Z" fill="currentColor"/>
<path d="M115.628 55.5256C115.746 55.5895 115.861 55.6142 115.973 55.5997C116.296 55.5605 116.458 55.3787 116.459 55.0546L116.468 53.1227C116.468 53.066 116.496 53.0376 116.553 53.0376L117.571 53.0354C117.616 53.0354 117.639 53.058 117.639 53.103C117.611 54.3743 118.042 56.389 116.239 56.5678C113.849 56.8055 114.253 54.625 114.261 53.1227C114.261 53.0616 114.291 53.0318 114.351 53.0333L115.338 53.0354C115.361 53.036 115.383 53.0454 115.399 53.0617C115.415 53.078 115.423 53.0999 115.423 53.1227L115.441 55.2138C115.442 55.2779 115.459 55.3406 115.492 55.3955C115.525 55.4503 115.572 55.4952 115.628 55.5256Z" fill="currentColor"/>
<path d="M129.105 55.6761C129.086 55.6502 129.059 55.6309 129.028 55.621C128.997 55.6111 128.964 55.6111 128.934 55.621C128.903 55.6308 128.876 55.6501 128.857 55.676C128.837 55.7019 128.827 55.7332 128.826 55.7655L128.824 56.3303C128.822 56.4364 128.769 56.4895 128.665 56.4895L127.777 56.4982C127.678 56.4996 127.629 56.4502 127.629 56.3499L127.631 53.1795C127.631 53.1411 127.646 53.1043 127.673 53.0769C127.7 53.0496 127.737 53.034 127.775 53.0334C128.577 53.029 130.357 52.8022 130.751 53.7857C131.013 54.4325 130.888 54.9595 130.376 55.3665C130.304 55.4247 130.293 55.4923 130.346 55.5693L130.895 56.3848C130.946 56.4604 130.926 56.4982 130.834 56.4982H129.822C129.782 56.4981 129.742 56.4884 129.707 56.4698C129.671 56.4512 129.64 56.4243 129.618 56.3914L129.105 55.6761ZM128.826 54.0669L128.822 54.6382C128.822 54.6671 128.833 54.6949 128.854 54.7153C128.874 54.7358 128.902 54.7473 128.931 54.7473L129.153 54.7494C129.222 54.7498 129.291 54.7407 129.355 54.7226C129.42 54.7045 129.478 54.6778 129.527 54.644C129.576 54.6101 129.616 54.5699 129.642 54.5255C129.669 54.4811 129.683 54.4335 129.683 54.3853V54.3286C129.683 54.2316 129.628 54.1383 129.53 54.0692C129.431 54.0001 129.297 53.9609 129.157 53.9601L128.935 53.9579C128.906 53.9579 128.878 53.9694 128.858 53.9898C128.837 54.0103 128.826 54.038 128.826 54.0669Z" fill="currentColor"/>
<path d="M142.026 55.5733L143.541 55.6147C143.564 55.6152 143.585 55.6244 143.601 55.6402C143.617 55.656 143.626 55.6773 143.626 55.6997L143.635 56.3844C143.635 56.4072 143.626 56.429 143.61 56.4453C143.594 56.4616 143.573 56.4711 143.55 56.4716L140.888 56.5C140.865 56.5 140.842 56.4908 140.826 56.4744C140.81 56.4581 140.8 56.4359 140.8 56.4127L140.785 53.1224C140.785 53.0992 140.794 53.0771 140.811 53.0607C140.827 53.0443 140.849 53.0352 140.872 53.0352H143.537C143.56 53.0352 143.582 53.0443 143.599 53.0607C143.615 53.0771 143.624 53.0992 143.624 53.1224L143.615 53.8114C143.615 53.8334 143.606 53.8544 143.591 53.8702C143.575 53.886 143.555 53.8954 143.533 53.8965L142.024 53.9488C142.003 53.9497 141.983 53.9578 141.968 53.9718C141.953 53.9857 141.943 54.0046 141.941 54.0251L141.915 54.2257C141.913 54.2377 141.914 54.2498 141.918 54.2614C141.921 54.273 141.927 54.2837 141.935 54.293C141.942 54.3022 141.952 54.3097 141.963 54.315C141.974 54.3203 141.985 54.3233 141.998 54.3238L143.317 54.3762C143.339 54.3773 143.36 54.387 143.376 54.4032C143.391 54.4194 143.4 54.441 143.4 54.4634L143.406 55.0456C143.406 55.068 143.398 55.0895 143.382 55.1058C143.367 55.122 143.346 55.1317 143.323 55.1328L142.006 55.1982C141.995 55.1988 141.983 55.2016 141.973 55.2067C141.962 55.2117 141.953 55.2188 141.945 55.2276C141.937 55.2363 141.931 55.2465 141.928 55.2576C141.924 55.2686 141.922 55.2803 141.923 55.292L141.941 55.4926C141.942 55.5142 141.952 55.5344 141.968 55.5493C141.983 55.5642 142.004 55.5728 142.026 55.5733Z" fill="currentColor"/>
</svg>
