<svg viewBox="0 0 165 92" fill="none" xmlns="http://www.w3.org/2000/svg">
<path d="M115.374 52.7552C116.168 52.7979 116.782 52.4936 117.216 51.8422C117.504 51.4065 117.633 50.8214 117.604 50.0867C117.561 49.0979 117.562 48.1796 117.607 47.3317C117.609 47.2954 117.629 47.2773 117.668 47.2773H118.927C118.967 47.2773 118.989 47.2976 118.991 47.3381C119.087 49.1748 119.038 50.6035 118.843 51.6244C118.475 53.5753 116.143 54.405 114.374 53.9917C112.448 53.5411 111.488 52.2351 111.495 50.0739C111.507 46.5052 111.499 42.88 111.469 39.1982C111.456 37.3017 112.026 35.684 113.974 35.1138C116.293 34.4347 118.75 35.5751 118.776 38.2628C118.785 39.1961 118.786 40.1197 118.779 41.0338C118.777 41.132 118.728 41.1811 118.632 41.1811L117.581 41.1875C117.556 41.1876 117.531 41.1825 117.508 41.1727C117.485 41.1629 117.464 41.1485 117.447 41.1305C117.43 41.1124 117.417 41.0911 117.409 41.0679C117.4 41.0446 117.397 41.0199 117.399 40.9953C117.473 39.8186 117.451 38.8341 117.331 38.0417C117.137 36.7668 116.366 36.1688 115.018 36.2478C113.224 36.3503 112.837 37.8591 112.837 39.4577C112.839 42.9452 112.857 46.4818 112.891 50.0675C112.908 51.776 113.736 52.6719 115.374 52.7552Z" fill="currentColor"/>
<path d="M52.918 47.7436L52.6104 35.311C52.61 35.2944 52.613 35.2778 52.6192 35.2623C52.6255 35.2467 52.6349 35.2326 52.6468 35.2206C52.6587 35.2087 52.673 35.1992 52.6888 35.1927C52.7045 35.1862 52.7215 35.1829 52.7386 35.1829H55.6729C55.7776 35.1829 55.8299 35.2352 55.8299 35.3399L55.8331 53.5995C55.8331 53.6414 55.8163 53.6817 55.7864 53.7117C55.7564 53.7416 55.7157 53.7588 55.6729 53.7597L51.6013 53.7661C51.55 53.766 51.5003 53.7485 51.4601 53.7165C51.42 53.6845 51.3919 53.6399 51.3803 53.5899C50.4598 49.6945 49.5202 45.7094 48.5613 41.6346C48.4929 41.3442 48.4598 41.0484 48.462 40.7473C48.462 40.57 48.4246 40.5625 48.3498 40.7249C48.29 40.8551 48.2612 40.9907 48.2633 41.1317C48.3381 45.4841 48.4171 49.6294 48.5004 53.5675C48.5047 53.6999 48.4406 53.765 48.3082 53.7629L45.4603 53.7597C45.3279 53.7597 45.2617 53.6924 45.2617 53.5579V35.3399C45.2617 35.2352 45.3151 35.1829 45.4219 35.1829L49.5191 35.1797C49.6387 35.1797 49.7134 35.2373 49.7433 35.3527L52.7834 47.7596C52.8838 48.1611 52.9286 48.1558 52.918 47.7436Z" fill="currentColor"/>
<path d="M71.8403 52.9684L71.8563 53.5547C71.8606 53.6913 71.7933 53.7597 71.6545 53.7597L68.7266 53.7629C68.6198 53.7629 68.5664 53.7084 68.5664 53.5995V35.2598C68.5664 35.2394 68.5748 35.2198 68.5899 35.2054C68.6049 35.191 68.6253 35.1829 68.6465 35.1829L71.6898 35.1797C71.741 35.1797 71.7666 35.2064 71.7666 35.2598L71.7699 41.0132C71.7699 41.1797 71.8318 41.2086 71.9557 41.0997C72.9936 40.1867 74.3166 39.6869 75.6236 40.1643C76.8217 40.6031 77.488 41.7211 77.472 42.9705C77.4378 45.6443 77.44 48.2925 77.4784 50.915C77.5232 54.0928 73.9898 55.0571 71.9973 52.9044C71.8905 52.789 71.8382 52.8104 71.8403 52.9684ZM74.2574 43.6667C74.2579 43.5098 74.2276 43.3543 74.168 43.2092C74.1085 43.064 74.0209 42.9319 73.9104 42.8206C73.7998 42.7093 73.6684 42.6208 73.5236 42.5602C73.3789 42.4997 73.2236 42.4682 73.0667 42.4677L72.9898 42.4674C72.6729 42.4663 72.3685 42.5912 72.1437 42.8145C71.9188 43.0377 71.7919 43.3412 71.7907 43.6581L71.7682 50.1227C71.7676 50.2796 71.798 50.435 71.8575 50.5802C71.9171 50.7254 72.0046 50.8574 72.1152 50.9688C72.2258 51.0801 72.3572 51.1686 72.502 51.2292C72.6467 51.2897 72.802 51.3212 72.9589 51.3217L73.0358 51.322C73.3527 51.3231 73.657 51.1982 73.8819 50.9749C74.1068 50.7516 74.2337 50.4482 74.2348 50.1313L74.2574 43.6667Z" fill="currentColor"/>
<path d="M93.1463 38.2757C93.1462 38.29 93.1434 38.3042 93.1379 38.3174C93.1324 38.3306 93.1244 38.3426 93.1142 38.3527C93.1041 38.3627 93.0921 38.3708 93.0788 38.3762C93.0656 38.3817 93.0515 38.3844 93.0371 38.3844L90.0579 38.3792C90.0436 38.3792 90.0295 38.3764 90.0163 38.3709C90.0031 38.3654 89.9911 38.3573 89.981 38.3472C89.9709 38.3371 89.9629 38.325 89.9574 38.3118C89.952 38.2986 89.9492 38.2844 89.9492 38.2701L89.9544 35.2845C89.9544 35.2702 89.9573 35.256 89.9628 35.2428C89.9683 35.2296 89.9763 35.2176 89.9864 35.2075C89.9966 35.1975 90.0086 35.1894 90.0218 35.184C90.035 35.1785 90.0492 35.1758 90.0635 35.1758L93.0427 35.181C93.057 35.181 93.0712 35.1838 93.0844 35.1893C93.0976 35.1948 93.1096 35.2029 93.1197 35.213C93.1298 35.2231 93.1378 35.2352 93.1432 35.2484C93.1487 35.2616 93.1515 35.2758 93.1514 35.2901L93.1463 38.2757Z" fill="currentColor"/>
<path d="M156.499 53.6572C156.499 53.6844 156.488 53.7104 156.469 53.7297C156.45 53.7489 156.424 53.7597 156.396 53.7597H155.403C155.376 53.7597 155.35 53.7489 155.331 53.7297C155.312 53.7104 155.301 53.6844 155.301 53.6572V35.2822C155.301 35.255 155.312 35.2289 155.331 35.2097C155.35 35.1905 155.376 35.1797 155.403 35.1797H156.396C156.424 35.1797 156.45 35.1905 156.469 35.2097C156.488 35.2289 156.499 35.255 156.499 35.2822V53.6572Z" fill="currentColor"/>
<path d="M139.526 38.9113C139.526 38.9256 139.523 38.9398 139.517 38.953C139.512 38.9663 139.504 38.9783 139.494 38.9884C139.484 38.9985 139.472 39.0066 139.459 39.0121C139.445 39.0176 139.431 39.0204 139.417 39.0205L138.437 39.0222C138.422 39.0222 138.408 39.0194 138.395 39.014C138.382 39.0085 138.37 39.0005 138.36 38.9904C138.35 38.9803 138.341 38.9683 138.336 38.9551C138.33 38.9419 138.328 38.9278 138.328 38.9135L138.324 36.9722C138.324 36.9579 138.327 36.9437 138.332 36.9305C138.338 36.9173 138.346 36.9052 138.356 36.8951C138.366 36.885 138.378 36.8769 138.391 36.8714C138.404 36.8659 138.419 36.8631 138.433 36.8631L139.413 36.8613C139.428 36.8613 139.442 36.8641 139.455 36.8695C139.468 36.875 139.48 36.883 139.49 36.8931C139.5 36.9032 139.508 36.9152 139.514 36.9284C139.519 36.9416 139.522 36.9558 139.522 36.9701L139.526 38.9113Z" fill="currentColor"/>
<path d="M143.845 40.4594L145.453 40.4658C145.562 40.4658 145.616 40.5192 145.614 40.626L145.604 41.43C145.602 41.5347 145.549 41.587 145.444 41.587L143.768 41.5838C143.66 41.5838 143.605 41.6383 143.605 41.7472L143.608 51.963C143.608 52.0697 143.638 52.1669 143.698 52.2545C144.086 52.8375 144.746 52.735 145.338 52.6293C145.522 52.5951 145.613 52.6709 145.61 52.8567L145.607 53.5455C145.607 53.5979 145.588 53.6486 145.554 53.6885C145.52 53.7284 145.473 53.7549 145.421 53.7633C144.281 53.9427 142.417 54.0164 142.413 52.373C142.405 48.6976 142.404 45.1706 142.41 41.792C142.41 41.6511 142.339 41.5806 142.196 41.5806L141.212 41.587C141.107 41.587 141.054 41.5347 141.052 41.43L141.039 40.5875C141.037 40.5064 141.078 40.4658 141.161 40.4658L142.247 40.4626C142.289 40.4626 142.33 40.4457 142.36 40.4157C142.39 40.3856 142.407 40.3449 142.407 40.3024L142.41 37.1759C142.41 37.0669 142.465 37.0136 142.574 37.0157L143.455 37.0317C143.557 37.0338 143.608 37.0851 143.608 37.1855L143.605 40.2191C143.605 40.3793 143.685 40.4594 143.845 40.4594Z" fill="currentColor"/>
<path d="M63.0319 52.8706C61.7505 54.4947 58.9379 54.5876 58.137 52.4541C57.9598 51.9822 57.8797 51.3714 57.8968 50.6218C57.932 49.0809 57.6373 47.3895 59.2326 46.5246C60.3923 45.8945 61.6491 45.2624 63.0031 44.6281C63.1163 44.5769 63.1793 44.4893 63.1921 44.3654C63.301 43.382 63.2594 41.8507 61.7441 42.2608C60.9401 42.4786 61.0714 43.5229 61.1451 44.1572C61.1686 44.3644 61.0757 44.4679 60.8664 44.4679L58.4542 44.4711C58.2299 44.4711 58.1253 44.359 58.1402 44.1348C58.1659 43.7119 58.1701 43.2944 58.1531 42.8822C58.0954 41.5336 59.0244 40.5053 60.3154 40.1913C62.4905 39.6628 66.3731 39.8165 66.3891 43.0232C66.4041 45.6329 66.4094 48.6057 66.4051 51.9416C66.403 52.5203 66.5386 53.0756 66.812 53.6074C66.8632 53.7077 66.8333 53.7579 66.7223 53.7579L63.7719 53.7611C63.6395 53.7611 63.5402 53.7024 63.474 53.5849C63.3651 53.3863 63.2967 53.1696 63.269 52.9346C63.2412 52.7254 63.1622 52.704 63.0319 52.8706ZM63.2017 47.3671C63.2017 47.1236 63.1003 47.0691 62.8974 47.2037L61.6672 48.027C61.5065 48.1345 61.371 48.2754 61.2698 48.4402C61.1686 48.605 61.1042 48.7896 61.081 48.9816C60.9892 49.7483 60.9999 50.4253 61.113 51.0126C61.2156 51.5508 61.5252 51.7259 62.042 51.5379C62.2257 51.4717 62.3635 51.4226 62.4553 51.3906C62.9529 51.2091 63.2017 50.8535 63.2017 50.3238V47.3671Z" fill="currentColor"/>
<path d="M84.396 52.8667C83.2876 54.1075 82.0127 54.3958 80.5711 53.7317C78.8285 52.9276 79.0911 49.3173 79.4019 48.0295C79.5684 47.3333 80.1141 46.7417 81.0388 46.2548C82.1494 45.6696 83.2748 45.1058 84.4153 44.5634C84.5306 44.5079 84.5882 44.416 84.5882 44.2879C84.585 43.3973 84.6555 42.023 83.2941 42.2121C82.2433 42.3594 82.4195 43.4742 82.4259 44.2398C82.4281 44.3915 82.3533 44.4673 82.2017 44.4673L79.7831 44.4705C79.5994 44.4705 79.5119 44.3786 79.5204 44.195C79.5482 43.5799 79.561 42.9798 79.5588 42.3946C79.5588 41.4721 80.5199 40.5366 81.4104 40.2772C83.7778 39.5884 87.7853 39.7358 87.7308 43.1923C87.686 46.0733 87.6849 48.9404 87.7276 51.7936C87.7362 52.43 87.8921 53.0365 88.1953 53.6131C88.2466 53.7135 88.2156 53.7626 88.1024 53.7605L85.0399 53.7573C84.9139 53.7551 84.8338 53.6932 84.7997 53.5715L84.6171 52.918C84.5744 52.7642 84.5007 52.7471 84.396 52.8667ZM84.3256 47.171C83.656 47.6259 82.6053 48.0391 82.4419 48.9425C82.2924 49.7733 82.3127 50.5111 82.5028 51.1561C82.5297 51.2475 82.5758 51.3322 82.638 51.4044C82.7003 51.4766 82.7773 51.5348 82.8639 51.5751C82.9505 51.6154 83.0448 51.6368 83.1405 51.6381C83.2362 51.6393 83.3311 51.6202 83.419 51.5821C83.7564 51.4348 84.0704 51.2426 84.3608 51.0055C84.4569 50.9286 84.505 50.8283 84.505 50.7044L84.5082 47.2671C84.5082 47.1197 84.4473 47.0877 84.3256 47.171Z" fill="currentColor"/>
<path d="M97.9961 50.6896C98.1242 51.9934 99.9726 52.0671 100.232 50.837C100.498 49.578 100.098 49.0046 99.1557 48.396C98.0794 47.704 97.0692 46.9715 96.1253 46.1984C94.8503 45.1509 94.9816 42.7867 95.5935 41.5214C96.4456 39.7563 99.4408 39.7883 101.03 40.2047C103.25 40.7846 103.295 42.6426 103.144 44.5614C103.14 44.6041 103.116 44.6255 103.074 44.6255L100.44 44.6287C100.428 44.6288 100.415 44.6262 100.404 44.6211C100.392 44.616 100.382 44.6085 100.373 44.5991C100.365 44.5898 100.358 44.5787 100.354 44.5667C100.351 44.5547 100.349 44.542 100.351 44.5294C100.46 43.4691 100.373 41.8065 98.9059 42.2485C98.5599 42.3532 98.3431 42.587 98.2556 42.9501C98.0869 43.6591 98.3154 44.2304 98.9411 44.6639C99.9961 45.3922 101.046 46.1375 102.09 46.8999C103.298 47.7809 103.339 49.0206 103.33 50.3693C103.317 52.648 102.161 53.8578 99.8605 53.9988C98.861 54.0607 98.0025 53.9988 97.2849 53.813C94.94 53.2075 94.9016 51.1669 95.0009 49.1648C95.0094 49.026 95.0831 48.9566 95.2219 48.9566H97.7943C97.9181 48.9566 97.9758 49.0185 97.9673 49.1424C97.9352 49.6592 97.9448 50.1749 97.9961 50.6896Z" fill="currentColor"/>
<path d="M93.1527 53.6458C93.1527 53.6755 93.1409 53.7041 93.1198 53.7251C93.0988 53.7461 93.0703 53.7579 93.0405 53.7579H90.0613C90.0316 53.7579 90.0031 53.7461 89.9821 53.7251C89.961 53.7041 89.9492 53.6755 89.9492 53.6458V40.3387C89.9492 40.3089 89.961 40.2804 89.9821 40.2594C90.0031 40.2384 90.0316 40.2266 90.0613 40.2266H93.0405C93.0703 40.2266 93.0988 40.2384 93.1198 40.2594C93.1409 40.2804 93.1527 40.3089 93.1527 40.3387V53.6458Z" fill="currentColor"/>
<path d="M130.788 53.0236L130.791 57.9953C130.791 58.0444 130.767 58.0701 130.717 58.0722L129.673 58.085C129.618 58.085 129.59 58.0573 129.59 58.0017V40.6198C129.59 40.5109 129.644 40.4575 129.753 40.4597L130.689 40.4725C130.705 40.4729 130.722 40.4766 130.737 40.4833C130.752 40.49 130.766 40.4996 130.777 40.5116C130.789 40.5235 130.797 40.5375 130.803 40.5528C130.809 40.5681 130.811 40.5844 130.81 40.6006L130.769 41.331C130.76 41.5189 130.817 41.5403 130.938 41.3951C132.178 39.9247 134.574 39.9279 135.427 41.7667C135.679 42.3112 135.795 43.189 135.776 44.3999C135.739 46.5569 135.731 48.7609 135.75 51.0118C135.769 53.645 132.697 54.8463 130.983 52.9467C130.853 52.8015 130.788 52.8271 130.788 53.0236ZM134.572 43.2885C134.573 43.0512 134.527 42.8161 134.437 42.5966C134.347 42.377 134.214 42.1774 134.047 42.009C133.88 41.8407 133.681 41.7069 133.462 41.6153C133.243 41.5238 133.009 41.4762 132.771 41.4754L132.643 41.475C132.164 41.4733 131.704 41.662 131.364 41.9997C131.024 42.3373 130.832 42.7962 130.83 43.2754L130.803 50.8995C130.803 51.1368 130.849 51.3719 130.939 51.5914C131.029 51.8109 131.161 52.0106 131.328 52.1789C131.495 52.3473 131.694 52.4811 131.913 52.5726C132.132 52.6642 132.367 52.7118 132.604 52.7126L132.732 52.713C133.211 52.7147 133.671 52.526 134.011 52.1883C134.351 51.8507 134.543 51.3918 134.545 50.9126L134.572 43.2885Z" fill="currentColor"/>
<path d="M125.661 52.9325C124.498 53.8935 122.422 54.2139 121.41 52.9421C120.228 51.4589 120.602 48.9026 121.823 47.6853C122.867 46.6441 124.382 46.1156 125.632 45.3019C125.68 45.2699 125.72 45.2275 125.75 45.1776C125.78 45.1278 125.799 45.0718 125.805 45.0136C125.904 43.9212 126.08 41.887 124.748 41.6243C122.611 41.2015 122.323 42.9409 122.486 44.4882C122.495 44.5736 122.456 44.6164 122.371 44.6164L121.426 44.6324C121.325 44.6345 121.272 44.5854 121.265 44.485C121.118 42.0632 121.749 40.1507 124.757 40.4198C126.205 40.548 127.048 41.4994 127.041 42.8929C127.028 46.0899 127.025 49.1727 127.032 52.1412C127.032 52.5225 127.448 52.7018 127.775 52.6634C127.82 52.6591 127.841 52.6794 127.839 52.7243L127.829 53.6661C127.827 53.7067 127.807 53.7302 127.768 53.7366C126.88 53.8668 126.261 53.6148 125.91 52.9806C125.846 52.8652 125.763 52.8492 125.661 52.9325ZM125.693 46.6281C123.915 47.7589 121.528 48.3772 121.97 51.1322C122.332 53.381 124.7 52.7787 125.734 51.4845C125.8 51.4034 125.834 51.3105 125.834 51.2058L125.837 46.7082C125.837 46.6912 125.833 46.6744 125.825 46.6596C125.816 46.6448 125.804 46.6326 125.789 46.6244C125.774 46.6161 125.757 46.6121 125.74 46.6127C125.723 46.6134 125.707 46.6187 125.693 46.6281Z" fill="currentColor"/>
<path d="M151.43 52.8969C149.726 54.2616 147.016 54.1815 146.541 51.6219C145.798 47.6368 148.781 46.8968 151.382 45.2663C151.423 45.2406 151.458 45.2051 151.483 45.1627C151.508 45.1204 151.523 45.0724 151.526 45.0228C151.58 43.9401 151.85 41.8931 150.408 41.6176C148.258 41.2043 148.105 42.9918 148.172 44.5391C148.174 44.5989 148.146 44.6277 148.089 44.6256L147.064 44.6224C147.006 44.6203 146.976 44.5904 146.974 44.5327C146.932 43.5172 146.935 42.207 147.592 41.3549C148.636 39.9934 151.769 39.987 152.509 41.7008C152.667 42.0682 152.745 42.459 152.743 42.8733C152.73 45.891 152.729 48.9396 152.74 52.0191C152.742 52.4826 152.981 52.694 153.458 52.6534C153.517 52.6492 153.546 52.6758 153.544 52.7335L153.531 53.6241C153.531 53.6881 153.5 53.7245 153.438 53.733C152.552 53.8654 151.947 53.6006 151.622 52.9385C151.577 52.8446 151.513 52.8307 151.43 52.8969ZM151.302 46.6758C150.44 47.3229 149.431 47.64 148.672 48.3096C147.813 49.0634 147.492 50.0138 147.707 51.1606C148.121 53.3614 150.392 52.8104 151.436 51.481C151.502 51.3977 151.536 51.3037 151.536 51.1991L151.539 46.7943C151.539 46.5936 151.46 46.5541 151.302 46.6758Z" fill="currentColor"/>
<path d="M139.443 53.6561C139.443 53.6687 139.44 53.6812 139.436 53.6929C139.431 53.7045 139.424 53.7151 139.415 53.724C139.406 53.733 139.395 53.74 139.384 53.7449C139.372 53.7497 139.359 53.7522 139.347 53.7522H138.424C138.412 53.7522 138.399 53.7497 138.387 53.7449C138.376 53.74 138.365 53.733 138.356 53.724C138.347 53.7151 138.34 53.7045 138.335 53.6929C138.331 53.6812 138.328 53.6687 138.328 53.6561V40.5668C138.328 40.5413 138.338 40.5169 138.356 40.4988C138.374 40.4808 138.399 40.4707 138.424 40.4707H139.347C139.372 40.4707 139.397 40.4808 139.415 40.4988C139.433 40.5169 139.443 40.5413 139.443 40.5668V53.6561Z" fill="currentColor"/>
<path d="M17.0793 33.1159L16.0209 34.1761C16.0149 34.1822 16.0078 34.187 15.9999 34.1904C15.992 34.1937 15.9836 34.1954 15.975 34.1954C15.9665 34.1954 15.958 34.1937 15.9502 34.1904C15.9423 34.187 15.9352 34.1822 15.9292 34.1761L14.8708 33.1159C14.8618 33.107 14.8556 33.0957 14.8529 33.0833C14.8503 33.0709 14.8514 33.058 14.8562 33.0462C14.8609 33.0344 14.8689 33.0243 14.8794 33.0171C14.8898 33.01 14.9022 33.006 14.9149 33.0059H17.0352C17.0479 33.006 17.0602 33.01 17.0707 33.0171C17.0811 33.0243 17.0892 33.0344 17.0939 33.0462C17.0986 33.058 17.0998 33.0709 17.0971 33.0833C17.0945 33.0957 17.0883 33.107 17.0793 33.1159Z" fill="currentColor"/>
<path d="M22.053 33.0972L18.4909 36.652C18.4857 36.6573 18.4794 36.6615 18.4724 36.6644C18.4655 36.6673 18.4581 36.6688 18.4506 36.6688C18.4431 36.6688 18.4357 36.6673 18.4287 36.6644C18.4218 36.6615 18.4155 36.6573 18.4102 36.652L17.2785 35.5239C17.2732 35.5186 17.269 35.5123 17.2661 35.5054C17.2632 35.4985 17.2617 35.491 17.2617 35.4835C17.2617 35.476 17.2632 35.4686 17.2661 35.4617C17.269 35.4548 17.2732 35.4485 17.2785 35.4432L19.6997 33.022C19.705 33.0167 19.7113 33.0126 19.7182 33.0097C19.7252 33.0069 19.7326 33.0055 19.7401 33.0055L22.0127 33C22.024 32.9999 22.035 33.0032 22.0444 33.0095C22.0538 33.0157 22.0612 33.0246 22.0655 33.0351C22.0698 33.0455 22.0709 33.057 22.0687 33.068C22.0665 33.0791 22.061 33.0893 22.053 33.0972Z" fill="currentColor"/>
<path d="M25.8601 34.4218L21.0856 39.1981C21.0801 39.2038 21.0735 39.2083 21.0663 39.2113C21.0591 39.2144 21.0513 39.216 21.0434 39.216C21.0355 39.216 21.0277 39.2144 21.0205 39.2113C21.0132 39.2083 21.0067 39.2038 21.0012 39.1981L19.7796 37.9802C19.7739 37.9747 19.7694 37.9681 19.7664 37.9609C19.7633 37.9536 19.7617 37.9459 19.7617 37.938C19.7617 37.9301 19.7633 37.9223 19.7664 37.9151C19.7694 37.9078 19.7739 37.9013 19.7796 37.8958L24.6458 33.0296C24.6566 33.0191 24.6711 33.0132 24.6862 33.0131L27.1569 33.0039C27.1719 33.004 27.1864 33.0099 27.1972 33.0204L29.5909 35.4086C29.602 35.4193 29.6084 35.434 29.6088 35.4495C29.6091 35.4649 29.6034 35.4799 29.5927 35.4911L23.4976 41.6578C23.4921 41.6635 23.4856 41.668 23.4783 41.671C23.4711 41.6741 23.4633 41.6757 23.4554 41.6757C23.4475 41.6757 23.4397 41.6741 23.4325 41.671C23.4252 41.668 23.4187 41.6635 23.4132 41.6578L22.2797 40.5206C22.274 40.5151 22.2695 40.5086 22.2664 40.5013C22.2634 40.4941 22.2618 40.4863 22.2618 40.4784C22.2618 40.4705 22.2634 40.4627 22.2664 40.4555C22.2695 40.4482 22.274 40.4417 22.2797 40.4362L27.0762 35.6415C27.0818 35.6361 27.0863 35.6295 27.0894 35.6223C27.0925 35.615 27.0941 35.6072 27.0941 35.5993C27.0941 35.5915 27.0925 35.5837 27.0894 35.5764C27.0863 35.5692 27.0818 35.5626 27.0762 35.5572L25.9445 34.4218C25.939 34.4161 25.9324 34.4116 25.9252 34.4085C25.9179 34.4055 25.9101 34.4039 25.9023 34.4039C25.8944 34.4039 25.8866 34.4055 25.8794 34.4085C25.8721 34.4116 25.8655 34.4161 25.8601 34.4218Z" fill="currentColor"/>
<path d="M32.1836 33.0276L33.374 34.2125C33.3858 34.2242 33.3923 34.24 33.3924 34.2566L33.4034 36.597C33.4037 36.6095 33.4003 36.6218 33.3936 36.6323C33.3869 36.6428 33.3772 36.6511 33.3657 36.656C33.3543 36.661 33.3416 36.6623 33.3294 36.66C33.3171 36.6577 33.3058 36.6517 33.297 36.6429L29.7643 33.1083C29.7556 33.0996 29.7497 33.0885 29.7473 33.0764C29.7449 33.0644 29.7461 33.0518 29.7508 33.0405C29.7555 33.0291 29.7635 33.0194 29.7737 33.0125C29.784 33.0057 29.796 33.002 29.8083 33.002L32.1396 33.0093C32.1561 33.0093 32.172 33.0159 32.1836 33.0276Z" fill="currentColor"/>
<path d="M8.56658 34.1992L9.6983 33.0748C9.70983 33.0641 9.7251 33.0583 9.74086 33.0586C9.75662 33.059 9.77162 33.0654 9.78267 33.0767L10.9236 34.2286C10.9345 34.2398 10.9407 34.255 10.9407 34.2707C10.9407 34.2865 10.9345 34.3016 10.9236 34.3129L8.64362 36.602C8.63526 36.6109 8.62443 36.617 8.61253 36.6196C8.60064 36.6222 8.58823 36.6212 8.57694 36.6166C8.56565 36.6121 8.55599 36.6042 8.54924 36.5941C8.54248 36.584 8.53894 36.572 8.53907 36.5599L8.54824 34.2432C8.54815 34.235 8.54974 34.2269 8.55289 34.2193C8.55604 34.2118 8.5607 34.2049 8.56658 34.1992Z" fill="currentColor"/>
<path d="M13.4711 36.814L11.0976 39.193C11.0911 39.1995 11.0834 39.2047 11.0749 39.2083C11.0664 39.2118 11.0573 39.2136 11.0481 39.2136C11.0388 39.2136 11.0297 39.2118 11.0212 39.2083C11.0127 39.2047 11.005 39.1995 10.9985 39.193L9.81362 38.0081C9.80708 38.0016 9.80188 37.9939 9.79834 37.9854C9.79479 37.9769 9.79297 37.9677 9.79297 37.9585C9.79297 37.9493 9.79479 37.9402 9.79834 37.9317C9.80188 37.9232 9.80708 37.9155 9.81362 37.909L12.1963 35.5263C12.203 35.5197 12.2083 35.5118 12.2118 35.5031C12.2154 35.4943 12.2171 35.4849 12.217 35.4755C12.2168 35.4661 12.2147 35.4568 12.2108 35.4482C12.207 35.4396 12.2014 35.4318 12.1945 35.4255L11.0407 34.3451C11.0338 34.3387 11.0282 34.331 11.0243 34.3224C11.0205 34.3138 11.0184 34.3045 11.0182 34.2951C11.018 34.2856 11.0198 34.2763 11.0233 34.2675C11.0269 34.2588 11.0322 34.2509 11.0389 34.2442L12.2128 33.0832C12.2193 33.0766 12.227 33.0714 12.2355 33.0679C12.244 33.0643 12.2531 33.0625 12.2623 33.0625C12.2715 33.0625 12.2806 33.0643 12.2891 33.0679C12.2976 33.0714 12.3054 33.0766 12.3118 33.0832L18.1465 38.9178C18.1531 38.9243 18.1583 38.932 18.1618 38.9405C18.1654 38.949 18.1672 38.9582 18.1672 38.9674C18.1672 38.9766 18.1654 38.9857 18.1618 38.9942C18.1583 39.0027 18.1531 39.0104 18.1465 39.0169L17.013 40.1523C17.0065 40.1588 16.9988 40.164 16.9903 40.1676C16.9818 40.1711 16.9727 40.1729 16.9635 40.1729C16.9542 40.1729 16.9451 40.1711 16.9366 40.1676C16.9281 40.164 16.9204 40.1588 16.9139 40.1523L13.5701 36.814C13.5636 36.8074 13.5559 36.8022 13.5474 36.7987C13.5389 36.7951 13.5298 36.7933 13.5206 36.7933C13.5114 36.7933 13.5023 36.7951 13.4938 36.7987C13.4853 36.8022 13.4776 36.8074 13.4711 36.814Z" fill="currentColor"/>
<path d="M30.9984 39.2508C30.9906 39.2427 30.9811 39.2363 30.9708 39.2319C30.9604 39.2275 30.9492 39.2252 30.9379 39.2252C30.9266 39.2252 30.9154 39.2275 30.905 39.2319C30.8946 39.2363 30.8852 39.2427 30.8774 39.2508L28.5094 41.6885C28.4886 41.7118 28.4672 41.7124 28.4452 41.6904L27.2364 40.4889C27.2181 40.4694 27.2181 40.4498 27.2364 40.4302L30.8462 36.8241C30.8975 36.7728 30.9489 36.7722 31.0003 36.8223C31.7278 37.5487 32.4407 38.261 33.139 38.9592C33.3126 39.1328 33.3994 39.3383 33.3994 39.5755C33.3994 40.2089 33.3988 40.8509 33.3976 41.5014C33.3976 41.6017 33.3621 41.6164 33.2912 41.5454L30.9984 39.2508Z" fill="currentColor"/>
<path d="M8.55895 44.1658L13.4435 39.2812C13.4586 39.2662 13.4791 39.2578 13.5004 39.2578C13.5217 39.2578 13.5421 39.2662 13.5572 39.2812L14.6798 40.3983C14.6948 40.4134 14.7032 40.4338 14.7032 40.4552C14.7032 40.4765 14.6948 40.4969 14.6798 40.512L8.64332 46.5521C8.63215 46.564 8.61764 46.5722 8.60172 46.5756C8.58581 46.5791 8.56921 46.5776 8.55413 46.5715C8.53905 46.5653 8.52618 46.5548 8.51722 46.5412C8.50826 46.5276 8.50362 46.5116 8.50392 46.4953L8.5351 44.2227C8.53521 44.2013 8.54379 44.1808 8.55895 44.1658Z" fill="currentColor"/>
<path d="M8.64234 39.4513L9.67318 40.4858C9.68326 40.4961 9.68891 40.5099 9.68891 40.5243C9.68891 40.5387 9.68326 40.5526 9.67318 40.5628L8.64234 41.5973C8.63466 41.6057 8.62459 41.6114 8.61351 41.6138C8.60244 41.6162 8.59089 41.6151 8.58046 41.6107C8.57003 41.6063 8.56121 41.5988 8.55521 41.5892C8.54922 41.5795 8.54633 41.5683 8.54696 41.557V39.4917C8.54633 39.4803 8.54922 39.4691 8.55521 39.4595C8.56121 39.4499 8.57003 39.4424 8.58046 39.4379C8.59089 39.4335 8.60244 39.4324 8.61351 39.4348C8.62459 39.4372 8.63466 39.443 8.64234 39.4513Z" fill="currentColor"/>
<path d="M20.971 44.3069L18.6086 46.6694C18.6026 46.6755 18.5954 46.6803 18.5876 46.6836C18.5797 46.6869 18.5712 46.6886 18.5627 46.6886C18.5542 46.6886 18.5457 46.6869 18.5378 46.6836C18.53 46.6803 18.5228 46.6755 18.5168 46.6694L17.3044 45.4551C17.2983 45.4491 17.2935 45.442 17.2902 45.4341C17.2869 45.4263 17.2852 45.4178 17.2852 45.4093C17.2852 45.4007 17.2869 45.3923 17.2902 45.3844C17.2935 45.3765 17.2983 45.3694 17.3044 45.3634L19.6706 42.9991C19.6766 42.993 19.6813 42.9857 19.6844 42.9778C19.6876 42.9699 19.6891 42.9614 19.6889 42.9528C19.6888 42.9443 19.6869 42.9359 19.6834 42.9281C19.68 42.9203 19.675 42.9132 19.6687 42.9074L18.2637 41.5647C18.2575 41.5589 18.2525 41.5518 18.249 41.544C18.2456 41.5362 18.2437 41.5278 18.2435 41.5192C18.2434 41.5107 18.2449 41.5022 18.2481 41.4943C18.2512 41.4863 18.2559 41.4791 18.2619 41.473L19.4578 40.2771C19.4638 40.271 19.4709 40.2661 19.4788 40.2628C19.4867 40.2595 19.4951 40.2578 19.5037 40.2578C19.5122 40.2578 19.5207 40.2595 19.5285 40.2628C19.5364 40.2661 19.5435 40.271 19.5495 40.2771L23.3996 44.129C23.4055 44.1351 23.4127 44.1399 23.4206 44.1432C23.4284 44.1465 23.4369 44.1482 23.4454 44.1482C23.454 44.1482 23.4624 44.1465 23.4703 44.1432C23.4782 44.1399 23.4853 44.1351 23.4913 44.129L25.8996 41.7225C25.9056 41.7164 25.9127 41.7115 25.9206 41.7082C25.9285 41.7049 25.9369 41.7032 25.9455 41.7032C25.954 41.7032 25.9625 41.7049 25.9703 41.7082C25.9782 41.7115 25.9854 41.7164 25.9913 41.7225L28.3777 44.1033C28.3836 44.1094 28.3908 44.1142 28.3987 44.1175C28.4065 44.1208 28.415 44.1226 28.4235 44.1226C28.4321 44.1226 28.4405 44.1208 28.4484 44.1175C28.4563 44.1142 28.4634 44.1094 28.4694 44.1033L30.8539 41.7206C30.8599 41.7145 30.867 41.7097 30.8749 41.7064C30.8827 41.7031 30.8912 41.7014 30.8997 41.7014C30.9083 41.7014 30.9167 41.7031 30.9246 41.7064C30.9325 41.7097 30.9396 41.7145 30.9456 41.7206L33.3704 44.1473C33.382 44.1591 33.3886 44.1748 33.3888 44.1913L33.4053 46.5098C33.4051 46.5223 33.4013 46.5344 33.3944 46.5447C33.3874 46.5551 33.3776 46.5632 33.3661 46.568C33.3547 46.5729 33.342 46.5743 33.3298 46.5721C33.3175 46.5699 33.3061 46.5642 33.2971 46.5556L30.9914 44.239C30.9855 44.2329 30.9783 44.2281 30.9705 44.2248C30.9626 44.2215 30.9541 44.2197 30.9456 44.2197C30.9371 44.2197 30.9286 44.2215 30.9207 44.2248C30.9128 44.2281 30.9057 44.2329 30.8997 44.239L28.4712 46.6675C28.4652 46.6736 28.4581 46.6785 28.4502 46.6818C28.4424 46.6851 28.4339 46.6868 28.4254 46.6868C28.4168 46.6868 28.4084 46.6851 28.4005 46.6818C28.3926 46.6785 28.3855 46.6736 28.3795 46.6675L26.0225 44.2574C26.0165 44.2513 26.0094 44.2464 26.0015 44.2431C25.9937 44.2398 25.9852 44.2381 25.9767 44.2381C25.9681 44.2381 25.9597 44.2398 25.9518 44.2431C25.9439 44.2464 25.9368 44.2513 25.9308 44.2574L23.5151 46.6694C23.5091 46.6755 23.502 46.6803 23.4941 46.6836C23.4863 46.6869 23.4778 46.6886 23.4693 46.6886C23.4607 46.6886 23.4523 46.6869 23.4444 46.6836C23.4365 46.6803 23.4294 46.6755 23.4234 46.6694L21.0628 44.3069C21.0568 44.3008 21.0496 44.2959 21.0418 44.2926C21.0339 44.2893 21.0254 44.2876 21.0169 44.2876C21.0084 44.2876 20.9999 44.2893 20.992 44.2926C20.9842 44.2959 20.977 44.3008 20.971 44.3069Z" fill="currentColor"/>
<path d="M27.1645 52.8338L25.919 54.0847C25.9138 54.09 25.9075 54.0943 25.9005 54.0972C25.8936 54.1 25.8862 54.1015 25.8787 54.1015C25.8712 54.1015 25.8638 54.1 25.8568 54.0972C25.8499 54.0943 25.8436 54.09 25.8383 54.0847L21.0088 49.2534C21.0035 49.248 20.9972 49.2438 20.9903 49.2409C20.9834 49.238 20.976 49.2366 20.9685 49.2366C20.961 49.2366 20.9535 49.238 20.9466 49.2409C20.9397 49.2438 20.9334 49.248 20.9281 49.2534L16.1316 54.1104C16.1263 54.1157 16.12 54.12 16.1131 54.1228C16.1062 54.1257 16.0987 54.1272 16.0912 54.1272C16.0837 54.1272 16.0763 54.1257 16.0694 54.1228C16.0625 54.12 16.0562 54.1157 16.0509 54.1104L14.7999 52.8576C14.7946 52.8523 14.7904 52.8461 14.7875 52.8391C14.7846 52.8322 14.7831 52.8248 14.7831 52.8173C14.7831 52.8098 14.7846 52.8023 14.7875 52.7954C14.7904 52.7885 14.7946 52.7822 14.7999 52.7769L17.1257 50.4493C17.1311 50.444 17.1353 50.4377 17.1382 50.4308C17.1411 50.4239 17.1425 50.4164 17.1425 50.4089C17.1425 50.4014 17.1411 50.394 17.1382 50.3871C17.1353 50.3801 17.1311 50.3739 17.1257 50.3686L12.2981 45.5409C12.2927 45.5356 12.2885 45.5293 12.2856 45.5224C12.2827 45.5155 12.2812 45.508 12.2812 45.5005C12.2812 45.493 12.2827 45.4856 12.2856 45.4787C12.2885 45.4717 12.2927 45.4655 12.2981 45.4602L15.9793 41.7844C15.9846 41.7791 15.9909 41.7748 15.9978 41.7719C16.0048 41.7691 16.0122 41.7676 16.0197 41.7676C16.0272 41.7676 16.0346 41.7691 16.0416 41.7719C16.0485 41.7748 16.0548 41.7791 16.0601 41.7844L17.1918 42.9161C17.1971 42.9214 17.2013 42.9277 17.2042 42.9346C17.2071 42.9415 17.2086 42.949 17.2086 42.9565C17.2086 42.964 17.2071 42.9714 17.2042 42.9783C17.2013 42.9852 17.1971 42.9915 17.1918 42.9968L14.844 45.3483C14.8386 45.3536 14.8344 45.3599 14.8315 45.3668C14.8286 45.3737 14.8272 45.3811 14.8272 45.3886C14.8272 45.3961 14.8286 45.4036 14.8315 45.4105C14.8344 45.4174 14.8386 45.4237 14.844 45.429L18.4794 49.0626C18.4847 49.0679 18.491 49.0722 18.4979 49.075C18.5048 49.0779 18.5123 49.0794 18.5198 49.0794C18.5273 49.0794 18.5347 49.0779 18.5416 49.075C18.5485 49.0722 18.5548 49.0679 18.5601 49.0626L20.9244 46.6873C20.9297 46.682 20.936 46.6777 20.9429 46.6748C20.9499 46.672 20.9573 46.6705 20.9648 46.6705C20.9723 46.6705 20.9797 46.672 20.9866 46.6748C20.9936 46.6777 20.9999 46.682 21.0051 46.6873L23.4061 49.0846C23.4114 49.0899 23.4177 49.0942 23.4246 49.097C23.4316 49.0999 23.439 49.1014 23.4465 49.1014C23.454 49.1014 23.4614 49.0999 23.4684 49.097C23.4753 49.0942 23.4816 49.0899 23.4869 49.0846L25.8677 46.7056C25.873 46.7003 25.8793 46.6961 25.8862 46.6932C25.8931 46.6903 25.9005 46.6888 25.908 46.6888C25.9155 46.6888 25.923 46.6903 25.9299 46.6932C25.9368 46.6961 25.9431 46.7003 25.9484 46.7056L27.1223 47.9034C27.1276 47.9087 27.1318 47.9149 27.1347 47.9219C27.1376 47.9288 27.1391 47.9362 27.1391 47.9437C27.1391 47.9512 27.1376 47.9587 27.1347 47.9656C27.1318 47.9725 27.1276 47.9788 27.1223 47.9841L24.7671 50.2732C24.7617 50.2784 24.7573 50.2845 24.7543 50.2914C24.7512 50.2983 24.7496 50.3057 24.7494 50.3132C24.7492 50.3207 24.7506 50.3281 24.7533 50.3351C24.756 50.3421 24.7601 50.3485 24.7653 50.3539L27.1645 52.7531C27.1698 52.7584 27.174 52.7646 27.1769 52.7716C27.1798 52.7785 27.1813 52.7859 27.1813 52.7934C27.1813 52.8009 27.1798 52.8084 27.1769 52.8153C27.174 52.8222 27.1698 52.8285 27.1645 52.8338Z" fill="currentColor"/>
<path d="M9.83624 55.3385C9.82803 55.3466 9.82156 55.3562 9.8172 55.3669C9.81285 55.3776 9.81069 55.3891 9.81086 55.4007C9.81103 55.4123 9.81353 55.4239 9.8182 55.4346C9.82287 55.4453 9.82963 55.4551 9.83807 55.4632L11.0028 56.5546C11.0236 56.5742 11.0242 56.5944 11.0046 56.6151L9.7702 57.8496C9.74697 57.8728 9.72374 57.8728 9.7005 57.8496L8.61831 56.7344C8.58744 56.7023 8.56809 56.661 8.56328 56.617C8.47891 55.7696 8.47891 54.9662 8.56328 54.2068C8.57513 54.1011 8.62234 54.0028 8.69718 53.928L12.1455 50.4815C12.1639 50.4631 12.1639 50.4448 12.1455 50.4265L11.034 49.3149C11.0108 49.2905 10.9869 49.2905 10.9625 49.3149C10.1896 50.0951 9.42782 50.8587 8.67701 51.6059C8.63787 51.645 8.59263 51.6395 8.54127 51.5894C8.53373 51.5824 8.52772 51.574 8.52361 51.5645C8.51951 51.555 8.5174 51.5447 8.51743 51.5343L8.55778 49.225C8.559 49.1517 8.5859 49.0887 8.63849 49.0361L10.9441 46.7286C10.9535 46.7198 10.9659 46.7148 10.9786 46.7148C10.9912 46.7148 11.0032 46.7198 11.012 46.7286L14.7043 50.4191C14.7119 50.4269 14.7179 50.436 14.722 50.446C14.7261 50.456 14.7283 50.4667 14.7283 50.4774C14.7283 50.4882 14.7261 50.4987 14.722 50.5086C14.7179 50.5184 14.7119 50.5273 14.7043 50.5347L9.83624 55.3385Z" fill="currentColor"/>
<path d="M28.4657 51.5779C28.4594 51.5842 28.4519 51.5892 28.4436 51.5926C28.4354 51.596 28.4266 51.5977 28.4177 51.5977C28.4087 51.5977 28.3999 51.596 28.3917 51.5926C28.3835 51.5892 28.376 51.5842 28.3697 51.5779L27.2543 50.4624C27.248 50.4561 27.243 50.4487 27.2395 50.4404C27.2361 50.4322 27.2344 50.4234 27.2344 50.4145C27.2344 50.4055 27.2361 50.3967 27.2395 50.3885C27.243 50.3802 27.248 50.3728 27.2543 50.3665L30.8469 46.7738C30.8532 46.7675 30.8607 46.7625 30.8689 46.7591C30.8772 46.7557 30.886 46.7539 30.8949 46.7539C30.9038 46.7539 30.9127 46.7557 30.9209 46.7591C30.9291 46.7625 30.9366 46.7675 30.9429 46.7738L32.0583 47.8892C32.0646 47.8955 32.0696 47.903 32.073 47.9112C32.0764 47.9195 32.0782 47.9283 32.0782 47.9372C32.0782 47.9461 32.0764 47.9549 32.073 47.9632C32.0696 47.9714 32.0646 47.9789 32.0583 47.9852L28.4657 51.5779Z" fill="currentColor"/>
<path d="M33.4422 51.1154C33.4991 51.9224 32.6553 52.4012 32.1747 52.9056C31.7822 53.3177 31.3811 53.7175 30.9715 54.1052C30.9507 54.1247 30.9293 54.1241 30.9073 54.1033L29.7169 52.9129C29.6985 52.8958 29.6985 52.8787 29.7169 52.8616L33.3046 49.2701C33.3682 49.2066 33.3994 49.2194 33.3982 49.3087C33.3872 49.9384 33.4018 50.5407 33.4422 51.1154Z" fill="currentColor"/>
<path d="M25.9727 56.506L28.3224 54.1582C28.3444 54.1349 28.367 54.1349 28.3902 54.1582L29.566 55.3321C29.6063 55.3724 29.6075 55.414 29.5696 55.4568C28.8445 56.2565 28.0711 57.0269 27.2493 57.7679C27.2018 57.8118 27.1404 57.8384 27.0751 57.8431C26.257 57.9055 25.497 57.9037 24.7951 57.8376C24.6897 57.8282 24.5903 57.7815 24.5145 57.7056L21.0882 54.281C21.0759 54.2687 21.0613 54.259 21.0453 54.2523C21.0292 54.2456 21.012 54.2422 20.9946 54.2422C20.9772 54.2422 20.96 54.2456 20.944 54.2523C20.9279 54.259 20.9133 54.2687 20.9011 54.281L19.8629 55.3247C19.8079 55.3785 19.8079 55.4329 19.8629 55.488L22.1428 57.7661C22.204 57.8272 22.1911 57.8578 22.1043 57.8578L19.8372 57.8596C19.7843 57.8596 19.7319 57.8493 19.6831 57.8291C19.6343 57.809 19.5901 57.7795 19.5529 57.7422L17.317 55.5081C17.2485 55.4397 17.2485 55.3706 17.317 55.3009L20.8754 51.7461C20.8957 51.7261 20.923 51.7148 20.9515 51.7148C20.98 51.7148 21.0074 51.7261 21.0276 51.7461L25.7875 56.5078C25.8498 56.5689 25.9116 56.5683 25.9727 56.506Z" fill="currentColor"/>
<path d="M14.6541 55.2871C14.6634 55.2965 14.6707 55.3077 14.6757 55.32C14.6807 55.3322 14.6832 55.3454 14.6831 55.3586C14.683 55.3719 14.6803 55.385 14.6752 55.3972C14.67 55.4094 14.6625 55.4205 14.6531 55.4298L12.3284 57.7222C12.3189 57.7315 12.3078 57.7389 12.2955 57.7439C12.2832 57.7489 12.2701 57.7514 12.2568 57.7513C12.2436 57.7512 12.2305 57.7485 12.2183 57.7433C12.2061 57.7382 12.195 57.7307 12.1857 57.7212L11.158 56.679C11.1487 56.6696 11.1413 56.6584 11.1363 56.6462C11.1313 56.6339 11.1288 56.6208 11.1289 56.6075C11.129 56.5943 11.1317 56.5812 11.1369 56.569C11.142 56.5568 11.1495 56.5457 11.159 56.5364L13.4837 54.2439C13.4931 54.2346 13.5043 54.2272 13.5166 54.2223C13.5288 54.2173 13.542 54.2148 13.5552 54.2148C13.5685 54.2149 13.5816 54.2176 13.5938 54.2228C13.606 54.228 13.617 54.2355 13.6263 54.2449L14.6541 55.2871Z" fill="currentColor"/>
<path d="M33.291 56.5319L32.2107 55.4533C32.2046 55.4474 32.1997 55.4402 32.1964 55.4324C32.1931 55.4245 32.1914 55.416 32.1914 55.4075C32.1914 55.3989 32.1931 55.3905 32.1964 55.3826C32.1997 55.3747 32.2046 55.3676 32.2107 55.3616L33.291 54.2831C33.3001 54.2746 33.3115 54.2688 33.3237 54.2666C33.336 54.2644 33.3486 54.2659 33.3601 54.2707C33.3716 54.2756 33.3814 54.2837 33.3883 54.294C33.3953 54.3044 33.3991 54.3165 33.3993 54.329V56.486C33.3991 56.4985 33.3953 56.5106 33.3883 56.521C33.3814 56.5313 33.3716 56.5394 33.3601 56.5443C33.3486 56.5491 33.336 56.5505 33.3237 56.5483C33.3115 56.5461 33.3001 56.5404 33.291 56.5319Z" fill="currentColor"/>
<path d="M29.7629 57.7655L30.8378 56.6906C30.843 56.6853 30.8493 56.6811 30.8563 56.6782C30.8632 56.6753 30.8706 56.6738 30.8781 56.6738C30.8856 56.6738 30.893 56.6753 30.9 56.6782C30.9069 56.6811 30.9132 56.6853 30.9185 56.6906L31.9988 57.7618C32.0068 57.7698 32.0123 57.7799 32.0145 57.791C32.0167 57.8021 32.0156 57.8135 32.0113 57.824C32.007 57.8344 31.9996 57.8433 31.9902 57.8495C31.9808 57.8558 31.9698 57.8591 31.9585 57.859L29.8033 57.8627C29.792 57.8628 29.7809 57.8595 29.7715 57.8532C29.7621 57.847 29.7548 57.8381 29.7504 57.8276C29.7461 57.8172 29.745 57.8057 29.7472 57.7947C29.7494 57.7836 29.7549 57.7734 29.7629 57.7655Z" fill="currentColor"/>
<path d="M14.9088 57.7517L15.9525 56.7135C15.9642 56.7019 15.98 56.6953 15.9965 56.6953C16.013 56.6953 16.0288 56.7019 16.0405 56.7135L17.0842 57.7517C17.0929 57.7604 17.0988 57.7715 17.1012 57.7836C17.1036 57.7957 17.1024 57.8082 17.0977 57.8195C17.093 57.8309 17.085 57.8406 17.0748 57.8475C17.0645 57.8544 17.0525 57.858 17.0402 57.8581H14.9528C14.9405 57.858 14.9285 57.8544 14.9183 57.8475C14.908 57.8406 14.9001 57.8309 14.8954 57.8195C14.8907 57.8082 14.8894 57.7957 14.8918 57.7836C14.8942 57.7715 14.9001 57.7604 14.9088 57.7517Z" fill="currentColor"/>
</svg>
