<svg viewBox="0 0 164 92" fill="none" xmlns="http://www.w3.org/2000/svg">
<path d="M73.8735 37.9682C73.8761 37.9677 73.8785 37.9663 73.8802 37.9643C73.8819 37.9624 73.8828 37.96 73.8828 37.9575L73.8833 24.8315C73.8833 24.8284 73.8839 24.8253 73.8851 24.8224C73.8863 24.8196 73.8881 24.817 73.8903 24.8148C73.8926 24.8126 73.8952 24.8108 73.8982 24.8096C73.9011 24.8084 73.9042 24.8078 73.9074 24.8078L76 24.8083C76.0182 24.8083 76.0274 24.8174 76.0274 24.8357V40.9973C76.0274 41.0024 76.0254 41.0072 76.0218 41.0108C76.0182 41.0144 76.0134 41.0164 76.0083 41.0164L73.7176 41.0168C73.7004 41.0168 73.6835 41.0126 73.6683 41.0046C73.6531 40.9966 73.64 40.9851 73.6303 40.9709C70.6369 36.6084 67.6395 32.2397 64.638 27.8648C64.6324 27.8568 64.6244 27.854 64.6139 27.8565C64.6116 27.857 64.6097 27.8583 64.6082 27.8601C64.6068 27.862 64.606 27.8643 64.606 27.8667L64.6051 40.9918C64.6051 41.0082 64.5969 41.0164 64.5805 41.0164L62.4934 41.0159C62.4718 41.0159 62.4609 41.0052 62.4609 40.9839L62.4614 24.8334C62.4614 24.8267 62.464 24.8202 62.4687 24.8155C62.4734 24.8107 62.4798 24.808 62.4865 24.8078L64.7949 24.8074C64.8047 24.8074 64.8144 24.8097 64.8231 24.8142C64.8317 24.8188 64.8391 24.8253 64.8445 24.8334C67.8441 29.2051 70.8459 33.58 73.8498 37.958C73.8554 37.9666 73.8633 37.97 73.8735 37.9682Z" fill="currentColor"/>
<path d="M93.6005 27.4132C93.6005 27.4185 93.5984 27.4235 93.5947 27.4273C93.5909 27.431 93.5858 27.4331 93.5805 27.4331H91.7075C91.7022 27.4331 91.6971 27.431 91.6933 27.4273C91.6896 27.4235 91.6875 27.4185 91.6875 27.4132V24.8254C91.6875 24.8201 91.6896 24.815 91.6933 24.8113C91.6971 24.8075 91.7022 24.8054 91.7075 24.8054H93.5805C93.5858 24.8054 93.5909 24.8075 93.5947 24.8113C93.5984 24.815 93.6005 24.8201 93.6005 24.8254V27.4132Z" fill="currentColor"/>
<path d="M46.0589 62.3543L14.629 24.8508C14.6269 24.8482 14.6255 24.8451 14.6251 24.8418C14.6247 24.8385 14.6253 24.8352 14.6267 24.8322C14.6281 24.8292 14.6303 24.8266 14.6331 24.8248C14.6359 24.823 14.6391 24.822 14.6424 24.822L21.8113 24.8215C21.8139 24.8216 21.8164 24.8222 21.8188 24.8233C21.8211 24.8244 21.8231 24.826 21.8248 24.828L46.0849 53.7342C46.0876 53.7374 46.0891 53.7416 46.0891 53.7458L46.09 62.3427C46.09 62.3463 46.089 62.3499 46.0869 62.3529C46.0848 62.3559 46.0819 62.3582 46.0785 62.3594C46.0751 62.3607 46.0714 62.3609 46.0679 62.36C46.0644 62.3591 46.0612 62.3571 46.0589 62.3543Z" fill="currentColor"/>
<path d="M39.8569 24.822H46.074C46.0785 24.822 46.0829 24.8238 46.0861 24.8271C46.0893 24.8303 46.0911 24.8346 46.0911 24.8392L46.0925 32.2475C46.0925 32.251 46.0914 32.2544 46.0894 32.2573C46.0874 32.2602 46.0846 32.2624 46.0813 32.2636C46.078 32.2648 46.0745 32.265 46.0711 32.2641C46.0677 32.2632 46.0646 32.2613 46.0624 32.2587L39.8439 24.8503C39.8418 24.8478 39.8405 24.8448 39.84 24.8416C39.8396 24.8383 39.84 24.835 39.8414 24.832C39.8428 24.8291 39.845 24.8265 39.8477 24.8248C39.8505 24.823 39.8537 24.822 39.8569 24.822Z" fill="currentColor"/>
<path d="M79.8676 39.7451C78.2354 38.2136 77.795 35.8351 78.1742 33.697C78.6601 30.9547 80.7383 29.1364 83.5122 28.9776C85.5542 28.8611 87.5814 29.5336 88.7959 31.2717C89.2891 31.9771 89.6158 32.7602 89.7761 33.6209C90.1357 35.552 89.8359 37.6446 88.6024 39.1984C87.5786 40.4886 86.0048 41.1666 84.3731 41.24C82.7116 41.3142 81.0891 40.8914 79.8676 39.7451ZM82.7552 39.4068C83.4393 39.6033 84.1181 39.6362 84.7917 39.5056C86.5636 39.1622 87.677 37.7936 87.935 36.0365C88.0913 34.971 87.9949 33.9905 87.6459 33.0951C87.2161 31.9919 86.32 31.1069 85.1676 30.7941C83.4973 30.3402 81.7449 30.8252 80.7439 32.2825C79.9595 33.4237 79.8087 34.9686 80.0756 36.3117C80.3619 37.7532 81.3161 38.9937 82.7552 39.4068Z" fill="currentColor"/>
<path d="M97.8354 30.7506C97.8354 30.7893 97.8476 30.7936 97.872 30.7636C98.4749 30.0117 99.2843 29.4223 100.205 29.1253C100.833 28.9225 101.559 28.8803 102.157 29.1815C102.173 29.1892 102.181 29.202 102.181 29.22L102.18 30.6016C102.18 30.606 102.179 30.6103 102.177 30.6143C102.175 30.6183 102.173 30.622 102.17 30.6251C102.167 30.6281 102.163 30.6306 102.159 30.6322C102.155 30.6338 102.15 30.6346 102.146 30.6346C101.838 30.6281 101.527 30.6288 101.213 30.6369C100.003 30.667 98.8903 31.224 98.3041 32.2621C97.9944 32.8107 97.8389 33.4363 97.8377 34.1389C97.8337 36.2976 97.8329 38.5783 97.8354 40.9811C97.8354 40.9898 97.8319 40.9982 97.8257 41.0044C97.8195 41.0106 97.8112 41.014 97.8024 41.014L95.9623 41.0131C95.9484 41.0131 95.9414 41.006 95.9414 40.9918V29.2205C95.9414 29.2182 95.9418 29.216 95.9427 29.2139C95.9436 29.2118 95.9448 29.2099 95.9464 29.2083C95.948 29.2067 95.9499 29.2055 95.952 29.2046C95.9541 29.2037 95.9563 29.2033 95.9586 29.2033L97.8024 29.2019C97.8241 29.2019 97.8349 29.2126 97.8349 29.2339L97.8354 30.7506Z" fill="currentColor"/>
<path d="M93.6005 40.987C93.6005 40.9933 93.598 40.9993 93.5936 41.0038C93.5891 41.0082 93.5831 41.0107 93.5768 41.0107H91.7112C91.7049 41.0107 91.6989 41.0082 91.6944 41.0038C91.69 40.9993 91.6875 40.9933 91.6875 40.987V29.2231C91.6875 29.2169 91.69 29.2108 91.6944 29.2064C91.6989 29.202 91.7049 29.1995 91.7112 29.1995H93.5768C93.5831 29.1995 93.5891 29.202 93.5936 29.2064C93.598 29.2108 93.6005 29.2169 93.6005 29.2231V40.987Z" fill="currentColor"/>
<path d="M70.2316 59.8489L75.6754 46.1721C75.6767 46.1689 75.6789 46.1662 75.6817 46.1643C75.6845 46.1624 75.6878 46.1614 75.6912 46.1614H77.9458C77.9486 46.1614 77.9513 46.1621 77.9538 46.1634C77.9563 46.1648 77.9584 46.1667 77.9599 46.169C77.9615 46.1714 77.9624 46.174 77.9627 46.1768C77.963 46.1796 77.9626 46.1824 77.9615 46.185L71.3189 62.3416C71.3176 62.3447 71.3155 62.3474 71.3127 62.3493C71.3099 62.3512 71.3065 62.3522 71.3032 62.3523H69.1289C69.1255 62.3522 69.1222 62.3512 69.1194 62.3493C69.1166 62.3474 69.1144 62.3447 69.1131 62.3416L62.47 46.185C62.469 46.1824 62.4686 46.1796 62.4688 46.1768C62.4691 46.174 62.4701 46.1714 62.4716 46.169C62.4732 46.1667 62.4753 46.1648 62.4778 46.1634C62.4802 46.1621 62.483 46.1614 62.4858 46.1614H64.7404C64.7438 46.1614 64.7471 46.1624 64.7499 46.1643C64.7527 46.1662 64.7549 46.1689 64.7562 46.1721L70.2 59.8489C70.2013 59.852 70.2035 59.8547 70.2063 59.8565C70.2091 59.8584 70.2124 59.8593 70.2158 59.8593C70.2191 59.8593 70.2224 59.8584 70.2252 59.8565C70.228 59.8547 70.2302 59.852 70.2316 59.8489Z" fill="currentColor"/>
<path d="M103.234 50.5387C103.239 50.5387 103.244 50.5366 103.248 50.5329C103.251 50.5291 103.253 50.5241 103.253 50.5188L103.254 46.1744C103.254 46.1709 103.256 46.1676 103.258 46.1652C103.261 46.1627 103.264 46.1614 103.268 46.1614H105.132C105.134 46.1614 105.137 46.1618 105.139 46.1628C105.141 46.1637 105.143 46.165 105.145 46.1667C105.146 46.1684 105.148 46.1704 105.149 46.1726C105.15 46.1747 105.15 46.1771 105.15 46.1795V50.509C105.15 50.517 105.153 50.5247 105.159 50.5304C105.165 50.536 105.172 50.5392 105.18 50.5392L108.569 50.5397C108.573 50.5397 108.577 50.5404 108.58 50.5418C108.584 50.5432 108.587 50.5453 108.589 50.5479C108.592 50.5506 108.594 50.5537 108.596 50.5571C108.597 50.5606 108.598 50.5642 108.598 50.568L108.598 52.2058C108.598 52.2097 108.597 52.2135 108.594 52.2163C108.591 52.219 108.587 52.2206 108.583 52.2206H105.174C105.168 52.2206 105.162 52.2231 105.157 52.2275C105.153 52.232 105.151 52.238 105.151 52.2443C105.149 54.6854 105.149 57.0339 105.151 59.2897C105.152 60.0067 105.478 60.6425 106.193 60.8639C106.337 60.9085 106.568 60.9292 106.886 60.9261C107.525 60.9202 108.132 60.9191 108.707 60.9229C108.712 60.923 108.716 60.9249 108.72 60.9282C108.723 60.9315 108.725 60.9359 108.725 60.9405V62.3323C108.725 62.3407 108.722 62.3489 108.717 62.3554C108.711 62.362 108.704 62.3666 108.696 62.3685C107.821 62.5644 106.876 62.6771 105.991 62.5333C104.651 62.3156 103.591 61.4287 103.317 60.0685C103.273 59.8457 103.25 59.5467 103.251 59.1714C103.255 56.8042 103.256 54.4956 103.254 52.2457C103.254 52.2391 103.251 52.2329 103.247 52.2283C103.242 52.2237 103.236 52.2211 103.229 52.2211C102.67 52.2198 102.106 52.22 101.536 52.2215C101.484 52.2215 101.433 52.2186 101.382 52.2127C101.375 52.212 101.37 52.2091 101.366 52.2045C101.362 52.1998 101.359 52.1938 101.359 52.1877L101.36 50.5591C101.36 50.5471 101.366 50.541 101.377 50.541L103.234 50.5387Z" fill="currentColor"/>
<path d="M78.0424 56.8418C78.0096 56.8397 77.9936 56.8551 77.9946 56.8882C78.0707 59.0189 79.4272 60.7217 81.6187 60.9096C83.4008 61.0628 85.1662 60.0873 85.7519 58.3515C85.7541 58.3451 85.7582 58.3394 85.7638 58.3354C85.7694 58.3314 85.7761 58.3293 85.783 58.3293H87.6524C87.6546 58.3292 87.6569 58.3297 87.6589 58.3307C87.6609 58.3317 87.6627 58.3332 87.664 58.335C87.6654 58.3368 87.6663 58.3389 87.6667 58.3412C87.6671 58.3434 87.667 58.3457 87.6663 58.3478C87.2834 59.6264 86.5061 60.7579 85.4182 61.5181C84.1766 62.3862 82.7614 62.7312 81.1727 62.553C79.507 62.3664 78.0414 61.5696 77.0975 60.1713C76.4681 59.2389 76.1298 58.0768 76.0741 56.9472C75.9911 55.2625 76.3438 53.6025 77.4284 52.2914C78.8341 50.5914 81.1314 50.0396 83.2444 50.4206C84.9309 50.7251 86.3181 51.7266 87.1247 53.22C87.6386 54.1714 87.9045 55.2695 87.9225 56.5142C87.9237 56.611 87.9004 56.6861 87.8524 56.7393C87.7874 56.8117 87.6926 56.848 87.5679 56.8483C84.2796 56.8505 81.1337 56.8494 78.1301 56.8451C78.1035 56.8451 78.0742 56.844 78.0424 56.8418ZM85.8911 55.1344C85.421 53.1894 83.7679 51.8737 81.7496 51.9893C79.9294 52.0932 78.4986 53.389 78.092 55.1511C78.0916 55.153 78.0916 55.1549 78.092 55.1567C78.0924 55.1585 78.0932 55.1602 78.0944 55.1617C78.0955 55.1631 78.097 55.1643 78.0987 55.1652C78.1004 55.166 78.1022 55.1664 78.1041 55.1665L85.8647 55.1683C85.8879 55.1683 85.8967 55.157 85.8911 55.1344Z" fill="currentColor"/>
<path d="M91.599 51.961C91.599 52.013 91.6158 52.0194 91.6495 51.9801C92.5889 50.8811 94.0846 50.2508 95.5215 50.3103C96.5573 50.3529 97.5719 50.6291 98.3891 51.2245C99.405 51.9657 99.9968 53.0498 100.152 54.2987C100.184 54.558 100.2 54.8666 100.199 55.2246C100.195 57.5831 100.195 59.9524 100.197 62.3326C100.197 62.3379 100.195 62.343 100.191 62.3467C100.187 62.3505 100.182 62.3526 100.177 62.3526L98.3135 62.3507C98.3056 62.3507 98.2981 62.3477 98.2925 62.3422C98.2869 62.3367 98.2838 62.3293 98.2838 62.3215C98.2822 59.8686 98.2827 57.5537 98.2852 55.3768C98.2855 55.0937 98.2677 54.8503 98.2318 54.6468C97.9728 53.1802 96.8896 52.1583 95.4059 52.0047C93.2391 51.78 91.6064 53.1487 91.6022 55.3731C91.5982 57.3978 91.5976 59.7175 91.6003 62.3322C91.6003 62.3372 91.5983 62.3421 91.5948 62.3456C91.5912 62.3492 91.5864 62.3512 91.5813 62.3512L89.7407 62.3517C89.7307 62.3517 89.7212 62.3477 89.7141 62.3405C89.7071 62.3334 89.7031 62.3237 89.7031 62.3136V50.5729C89.7031 50.5513 89.7141 50.5404 89.7361 50.5404L91.5757 50.5386C91.5819 50.5386 91.5878 50.5411 91.5922 50.5455C91.5965 50.55 91.599 50.556 91.599 50.5623V51.961Z" fill="currentColor"/>
<path d="M125.107 52.117C125.121 52.1108 125.133 52.1022 125.142 52.091C125.768 51.3339 126.509 50.8042 127.366 50.502C128.04 50.2639 128.77 50.2152 129.419 50.5247C129.425 50.5278 129.431 50.5326 129.435 50.5387C129.438 50.5448 129.441 50.5518 129.441 50.5591L129.441 51.9611C129.441 51.9775 129.433 51.9858 129.416 51.9861C129.151 51.9895 128.89 51.9892 128.635 51.9852C127.198 51.9615 125.91 52.6586 125.364 54.0147C125.144 54.5614 125.093 55.0905 125.094 55.7244C125.099 57.9298 125.1 60.1306 125.096 62.3267C125.096 62.3331 125.094 62.3392 125.089 62.3437C125.085 62.3482 125.078 62.3508 125.072 62.3508L123.204 62.3531C123.191 62.3531 123.184 62.3461 123.184 62.3322V50.5707C123.184 50.5512 123.193 50.5414 123.213 50.5414L125.069 50.5386C125.089 50.5386 125.098 50.5487 125.098 50.5688L125.098 52.1105C125.098 52.1117 125.098 52.1128 125.098 52.1139C125.099 52.1149 125.1 52.1158 125.101 52.1164C125.102 52.1171 125.103 52.1175 125.104 52.1176C125.105 52.1177 125.106 52.1175 125.107 52.117Z" fill="currentColor"/>
<path d="M131.294 56.849C131.27 56.849 131.259 56.8611 131.261 56.8852C131.288 57.3363 131.356 57.7461 131.467 58.1146C131.868 59.46 132.852 60.4805 134.225 60.8017C136.049 61.2291 137.922 60.5172 138.813 58.8427C138.894 58.6901 138.959 58.5169 139.025 58.354C139.032 58.3373 139.044 58.329 139.062 58.329L140.908 58.3294C140.929 58.3294 140.937 58.3397 140.93 58.3601C140.181 60.8527 138.012 62.5272 135.405 62.5963C133.457 62.6483 131.58 61.8956 130.437 60.274C129.519 58.9727 129.23 57.3335 129.356 55.7672C129.583 52.9613 131.35 50.8255 134.161 50.3925C135.441 50.1952 136.791 50.3289 137.941 50.8765C139.839 51.7806 140.932 53.6309 141.142 55.6887C141.17 55.9709 141.19 56.2523 141.199 56.5329C141.201 56.5982 141.184 56.6559 141.146 56.706C141.074 56.8016 140.982 56.8494 140.871 56.8494C137.597 56.8498 134.405 56.8496 131.294 56.849ZM139.158 55.1202C138.738 53.443 137.466 52.2224 135.738 52.0052C135.553 51.982 135.377 51.9885 135.188 51.9857C134.522 51.9764 133.835 52.182 133.268 52.5116C132.286 53.0829 131.634 54.0217 131.363 55.1406C131.358 55.1583 131.365 55.1671 131.384 55.1671L139.121 55.1676C139.153 55.1676 139.166 55.1518 139.158 55.1202Z" fill="currentColor"/>
<path d="M142.475 54.152C142.244 52.1383 143.641 50.8137 145.491 50.4429C146.522 50.2359 147.582 50.2522 148.563 50.5817C149.888 51.0272 150.993 51.9823 151.455 53.298C151.456 53.3011 151.456 53.3043 151.456 53.3075C151.456 53.3107 151.455 53.3139 151.453 53.3167C151.452 53.3195 151.45 53.322 151.447 53.324C151.445 53.326 151.442 53.3274 151.439 53.3282L149.745 53.7464C149.739 53.7477 149.733 53.747 149.728 53.7443C149.723 53.7415 149.719 53.737 149.717 53.7315C149.307 52.6376 148.201 52.0385 147.082 51.9879C146.486 51.961 145.901 52.0241 145.357 52.2557C144.751 52.5133 144.303 53.0154 144.367 53.7074C144.424 54.3279 145.105 54.6727 145.616 54.8593C146.478 55.1739 147.255 55.3285 148.109 55.5317C148.754 55.6849 149.362 55.8834 149.931 56.1272C150.194 56.2401 150.458 56.3843 150.722 56.5597C151.49 57.0707 151.885 57.7909 151.927 58.7507C151.977 59.8973 151.542 60.8232 150.623 61.5283C149.408 62.4602 147.664 62.6946 146.139 62.5656C143.781 62.3655 141.75 60.9004 141.695 58.3544C141.695 58.3512 141.696 58.348 141.697 58.345C141.698 58.342 141.7 58.3393 141.702 58.337C141.704 58.3347 141.707 58.3329 141.71 58.3316C141.713 58.3304 141.716 58.3298 141.719 58.3298L143.452 58.3288C143.47 58.3288 143.479 58.3375 143.48 58.3548C143.54 59.3322 144.024 60.0528 144.933 60.5166C145.732 60.9241 146.683 60.9844 147.592 60.8846C148.563 60.7779 149.9 60.337 150.04 59.2018C150.113 58.6064 149.775 58.1576 149.281 57.881C148.408 57.3918 147.331 57.1635 146.295 56.9263C145.638 56.7763 145.021 56.5837 144.444 56.3485C143.425 55.9332 142.606 55.2927 142.475 54.152Z" fill="currentColor"/>
<path d="M118.945 60.919C118.945 60.9152 118.944 60.9115 118.942 60.9084C118.94 60.9053 118.937 60.9029 118.933 60.9016C118.929 60.9004 118.926 60.9002 118.922 60.9013C118.918 60.9023 118.915 60.9045 118.913 60.9074C118.04 61.9605 116.657 62.5517 115.325 62.6C115.12 62.6074 114.81 62.5864 114.394 62.5369C113.73 62.4584 113.028 62.2306 112.45 61.8751C111.006 60.9859 110.346 59.5119 110.348 57.8184C110.35 55.402 110.35 52.9833 110.348 50.5623C110.348 50.5474 110.355 50.54 110.37 50.54L112.234 50.5409C112.252 50.5409 112.261 50.5497 112.261 50.5674C112.261 52.916 112.26 55.2137 112.26 57.4606C112.259 57.7963 112.28 58.0738 112.323 58.2932C112.381 58.5961 112.476 58.8864 112.607 59.1643C113.295 60.6155 114.878 61.1395 116.381 60.8494C117.775 60.5807 118.706 59.5119 118.904 58.1331C118.934 57.9236 118.948 57.6174 118.948 57.2146C118.944 54.9811 118.944 52.7633 118.946 50.5613C118.946 50.548 118.953 50.5414 118.967 50.5414L120.82 50.5391C120.823 50.539 120.825 50.5395 120.828 50.5404C120.83 50.5413 120.832 50.5427 120.834 50.5445C120.836 50.5462 120.837 50.5484 120.838 50.5507C120.839 50.553 120.84 50.5556 120.84 50.5581V62.3336C120.84 62.3381 120.838 62.3425 120.835 62.3457C120.831 62.3489 120.827 62.3508 120.822 62.3508L118.964 62.3531C118.959 62.3531 118.955 62.3511 118.951 62.3476C118.948 62.3442 118.946 62.3394 118.946 62.3345L118.945 60.919Z" fill="currentColor"/>
<path d="M20.8572 62.3702L14.6305 62.3693C14.6261 62.3693 14.622 62.3676 14.619 62.3645C14.6159 62.3615 14.6142 62.3574 14.6142 62.353L14.6133 54.9326C14.6133 54.9293 14.6144 54.926 14.6163 54.9233C14.6182 54.9206 14.621 54.9186 14.6241 54.9174C14.6272 54.9163 14.6306 54.9162 14.6339 54.9171C14.6371 54.918 14.6399 54.9198 14.6421 54.9224L20.8698 62.3433C20.8718 62.3457 20.8732 62.3486 20.8736 62.3517C20.874 62.3548 20.8736 62.358 20.8722 62.3608C20.8709 62.3637 20.8688 62.3661 20.8661 62.3677C20.8635 62.3694 20.8604 62.3703 20.8572 62.3702Z" fill="currentColor"/>
</svg>
