<svg viewBox="0 0 165 92" fill="none" xmlns="http://www.w3.org/2000/svg">
<path d="M108.617 42.4278C108.83 46.4153 111.092 49.5844 115.061 50.4632C116.346 50.7474 117.698 50.732 119.117 50.417C121.749 49.8338 123.569 48.1018 124.579 45.2209C124.588 45.1948 124.607 45.1734 124.632 45.1613C124.657 45.1492 124.685 45.1475 124.712 45.1565L129.15 46.6989C129.161 46.7025 129.171 46.7083 129.18 46.7159C129.189 46.7236 129.196 46.7329 129.201 46.7434C129.207 46.7539 129.21 46.7653 129.21 46.777C129.211 46.7886 129.21 46.8004 129.206 46.8115C127.078 53.0271 121.205 56.166 114.786 55.245C110.72 54.6619 107.217 52.3856 105.142 48.8485C102.835 44.9212 102.526 39.8136 103.879 35.6431C105.21 31.5389 108.311 28.1486 112.461 26.8194C114.641 26.1236 116.905 26.0794 119.133 26.4836C126.911 27.8912 129.94 35.0378 129.316 42.2086C129.314 42.236 129.302 42.2616 129.281 42.2803C129.261 42.2989 129.234 42.3092 129.206 42.3091H108.729C108.65 42.3091 108.613 42.3487 108.617 42.4278ZM118.655 31.2634C113.795 30.0066 109.296 32.7897 108.796 37.8912C108.789 37.9569 108.819 37.9898 108.886 37.9898H123.72C123.767 37.9898 123.791 37.967 123.791 37.9214C123.783 34.6517 121.768 32.0698 118.655 31.2634Z" fill="currentColor"/>
<path d="M14.0487 30.8646C15.4536 28.481 17.5429 27.0178 20.3166 26.4749C22.4823 26.0486 25.0743 26.308 27.0409 27.2953C29.9768 28.7673 31.5734 31.6428 32.0379 34.8501C32.1425 35.5714 32.1928 36.6472 32.1888 38.0776C32.174 43.6839 32.172 49.1327 32.1827 54.4239C32.1827 54.4517 32.1719 54.4783 32.1527 54.4979C32.1335 54.5175 32.1074 54.5285 32.0802 54.5285H26.9002C26.8804 54.5285 26.8615 54.5207 26.8476 54.5067C26.8336 54.4928 26.8258 54.4738 26.8258 54.4541C26.8218 48.9054 26.8218 43.4091 26.8258 37.965C26.8258 37.3228 26.7708 36.6975 26.6609 36.0888C26.0818 32.9103 24.1346 31.2648 20.8193 31.1522C16.1239 30.9933 14.0366 34.5887 14.0306 38.7814C14.0226 43.9064 14.0219 49.1112 14.0286 54.3958C14.0286 54.4843 13.9844 54.5285 13.8959 54.5285H8.75208C8.70382 54.5285 8.67969 54.5044 8.67969 54.4561V27.2048C8.67969 27.123 8.7199 27.0822 8.80034 27.0822H13.7893C13.8805 27.0822 13.926 27.1277 13.926 27.2189L13.9321 30.8324C13.9321 30.9879 13.971 30.9987 14.0487 30.8646Z" fill="currentColor"/>
<path d="M138.195 30.8198C139.835 28.1882 142.209 26.7002 145.316 26.3556C148.525 25.9997 151.749 26.9046 153.89 29.4242C155.654 31.5015 156.346 34.4031 156.348 37.1621C156.35 42.9265 156.351 48.6964 156.35 54.4716C156.35 54.5105 156.33 54.5299 156.291 54.5299H151.069C151.002 54.5299 150.969 54.4964 150.969 54.4294C150.974 48.9411 150.975 43.4547 150.971 37.9704C150.969 35.2035 150.044 32.5069 147.246 31.5537C145.876 31.0872 144.492 31.0034 143.094 31.3024C139.74 32.0223 138.214 35.1934 138.206 38.4349C138.193 43.7182 138.192 49.0557 138.202 54.4475C138.202 54.4694 138.193 54.4903 138.177 54.5058C138.162 54.5212 138.141 54.5299 138.119 54.5299H132.905C132.881 54.5299 132.859 54.5206 132.842 54.504C132.826 54.4874 132.816 54.4649 132.816 54.4415V27.156C132.816 27.1465 132.818 27.137 132.822 27.1283C132.826 27.1195 132.831 27.1115 132.838 27.1048C132.844 27.0981 132.852 27.0927 132.861 27.0891C132.87 27.0854 132.879 27.0836 132.889 27.0836H137.996C138.016 27.0836 138.035 27.0914 138.049 27.1054C138.063 27.1193 138.071 27.1382 138.071 27.158L138.073 30.7836C138.073 30.9377 138.114 30.9498 138.195 30.8198Z" fill="currentColor"/>
<path d="M94.8385 48.9012C94.8412 48.7483 94.8043 48.7376 94.7279 48.869C92.4576 52.8123 87.7281 53.7997 83.5535 52.9249C80.5694 52.2995 77.8829 50.5199 76.1756 48.0124C73.4328 43.9806 73.1231 38.6116 74.9007 34.256C77.3037 28.3601 83.3263 25.5208 89.4836 26.9103C91.8778 27.4506 93.6407 28.7174 94.7722 30.7109C94.8352 30.8194 94.8667 30.8114 94.8667 30.6867L94.8747 27.1657C94.8747 27.1438 94.8834 27.1229 94.8989 27.1074C94.9143 27.0919 94.9353 27.0832 94.9572 27.0832L100.049 27.0812C100.132 27.0812 100.173 27.1228 100.173 27.2059C100.167 35.5483 100.167 43.9518 100.175 52.4162C100.177 55.2756 99.6123 58.1653 98.1967 60.52C95.5886 64.8554 90.8429 66.3957 85.9082 66.2288C80.6418 66.0499 75.9725 63.2668 74.2331 58.2437C74.0079 57.5935 73.8511 56.8951 73.7626 56.1484C73.7588 56.114 73.7677 56.0794 73.7877 56.0512C73.8078 56.023 73.8375 56.0032 73.8712 55.9955L78.836 54.8453C78.8499 54.8421 78.8644 54.8418 78.8784 54.8445C78.8924 54.8472 78.9057 54.8528 78.9175 54.861C78.9292 54.8691 78.9391 54.8796 78.9466 54.8918C78.954 54.904 78.9588 54.9176 78.9607 54.9318C79.2181 57.2966 80.5091 59.4341 82.5963 60.6024C84.6253 61.7406 87.1831 61.7788 89.4393 61.2137C93.3847 60.2264 94.7923 56.8843 94.7963 53.0476C94.7976 51.6708 94.8117 50.2887 94.8385 48.9012ZM91.0923 32.1305C90.0815 31.5621 88.9882 31.2417 87.8125 31.1693C83.2056 30.8858 80.0727 33.7372 79.4111 38.143C78.8702 41.7465 79.8414 45.7079 83.0588 47.6544C84.575 48.5714 86.5135 48.8911 88.2509 48.6619C91.7639 48.1954 94.1146 45.724 94.7842 42.3377C95.5343 38.5372 94.6394 34.1253 91.0923 32.1305Z" fill="currentColor"/>
<path d="M57.3715 43.4165H51.18C51.1597 43.4165 51.1403 43.4084 51.126 43.3941C51.1116 43.3798 51.1036 43.3603 51.1036 43.3401L51.1016 37.225C51.1016 37.2142 51.1037 37.2035 51.1078 37.1935C51.112 37.1835 51.1181 37.1744 51.1257 37.1667C51.1334 37.1591 51.1425 37.153 51.1525 37.1489C51.1625 37.1447 51.1732 37.1426 51.184 37.1426H57.291C57.3011 37.1426 57.311 37.1446 57.3203 37.1484C57.3295 37.1522 57.338 37.1579 57.3451 37.165C57.3521 37.1721 57.3578 37.1805 57.3616 37.1897C57.3655 37.199 57.3674 37.209 57.3674 37.219L57.3715 43.4165Z" fill="currentColor"/>
<path d="M62.8247 26H68.4833L68.4873 31.5942C68.4873 31.6707 68.4491 31.7089 68.3727 31.7089L62.9252 31.7068C62.8475 31.7068 62.8086 31.668 62.8086 31.5902L62.8247 26Z" fill="currentColor"/>
<path d="M62.7925 37.0519C62.7925 37.0743 62.7836 37.0958 62.7678 37.1116C62.7519 37.1275 62.7305 37.1364 62.7081 37.1364H57.4516C57.4292 37.1364 57.4078 37.1275 57.3919 37.1116C57.3761 37.0958 57.3672 37.0743 57.3672 37.0519V31.7915C57.3672 31.7691 57.3761 31.7476 57.3919 31.7318C57.4078 31.7159 57.4292 31.707 57.4516 31.707H62.7081C62.7305 31.707 62.7519 31.7159 62.7678 31.7318C62.7836 31.7476 62.7925 31.7691 62.7925 31.7915V37.0519Z" fill="currentColor"/>
<path d="M51.1051 48.7348C51.1051 48.7604 51.095 48.785 51.0769 48.8031C51.0588 48.8212 51.0342 48.8313 51.0086 48.8313H45.7723C45.7467 48.8313 45.7222 48.8212 45.704 48.8031C45.6859 48.785 45.6758 48.7604 45.6758 48.7348V43.5106C45.6758 43.485 45.6859 43.4604 45.704 43.4423C45.7222 43.4242 45.7467 43.4141 45.7723 43.4141H51.0086C51.0342 43.4141 51.0588 43.4242 51.0769 43.4423C51.095 43.4604 51.1051 43.485 51.1051 43.5106V48.7348Z" fill="currentColor"/>
<path d="M45.6756 54.4729C45.6756 54.4798 45.6742 54.4866 45.6716 54.4929C45.669 54.4993 45.6651 54.505 45.6603 54.5099C45.6554 54.5147 45.6497 54.5186 45.6433 54.5212C45.637 54.5239 45.6302 54.5252 45.6233 54.5252H40.021C40.0072 54.5252 39.9939 54.5197 39.9841 54.5099C39.9743 54.5001 39.9688 54.4868 39.9688 54.4729V48.8706C39.9688 48.8568 39.9743 48.8435 39.9841 48.8337C39.9939 48.8239 40.0072 48.8184 40.021 48.8184H45.6233C45.6302 48.8184 45.637 48.8197 45.6433 48.8223C45.6497 48.825 45.6554 48.8288 45.6603 48.8337C45.6651 48.8385 45.669 48.8443 45.6716 48.8506C45.6742 48.857 45.6756 48.8638 45.6756 48.8706V54.4729Z" fill="currentColor"/>
<path d="M39.9844 26H45.6671L45.6631 31.5942C45.6631 31.6693 45.6255 31.7068 45.5505 31.7068L40.1151 31.7089C40.0293 31.7089 39.9864 31.666 39.9864 31.5802L39.9844 26Z" fill="currentColor"/>
<path d="M51.1052 37.0174C51.1052 37.0499 51.0923 37.0811 51.0693 37.1041C51.0463 37.1271 51.0151 37.1401 50.9826 37.1401H45.7945C45.762 37.1401 45.7308 37.1271 45.7078 37.1041C45.6848 37.0811 45.6719 37.0499 45.6719 37.0174V31.8414C45.6719 31.8089 45.6848 31.7777 45.7078 31.7547C45.7308 31.7317 45.762 31.7188 45.7945 31.7188H50.9826C51.0151 31.7188 51.0463 31.7317 51.0693 31.7547C51.0923 31.7777 51.1052 31.8089 51.1052 31.8414V37.0174Z" fill="currentColor"/>
<path d="M62.7943 48.8253L57.4856 48.8293C57.4119 48.8293 57.375 48.7924 57.375 48.7187L57.377 43.416L62.7219 43.418C62.7411 43.418 62.7595 43.4257 62.7731 43.4392C62.7867 43.4528 62.7943 43.4712 62.7943 43.4904V48.8253Z" fill="currentColor"/>
<path d="M62.793 48.8262L68.3912 48.8242C68.465 48.8242 68.5018 48.8604 68.5018 48.9328L68.5038 54.4567C68.5038 54.4753 68.4966 54.4932 68.4838 54.5064C68.471 54.5196 68.4536 54.527 68.4355 54.527L62.8513 54.5291C62.8372 54.529 62.8237 54.5234 62.8136 54.5133C62.8035 54.5031 62.7975 54.4893 62.797 54.4748L62.793 48.8262Z" fill="currentColor"/>
</svg>
