<svg viewBox="0 0 165 92" fill="none" xmlns="http://www.w3.org/2000/svg">
<path fill-rule="evenodd" clip-rule="evenodd" d="M147.078 40.5195V40.5589L147.116 40.5195H147.078Z" fill="currentColor"/>
<path fill-rule="evenodd" clip-rule="evenodd" d="M47.1088 40.5589H51.626V35.057H47.1088V40.5589ZM42.5938 44.2276H56.1409V31.3887H42.5938V44.2276Z" fill="currentColor"/>
<path fill-rule="evenodd" clip-rule="evenodd" d="M80.5496 35.0568V44.2274H76.0337V35.0568H71.9688V31.3887H84.6143V35.0568H80.5496Z" fill="currentColor"/>
<path fill-rule="evenodd" clip-rule="evenodd" d="M85.75 44.2274H90.2661V31.3887H85.75V44.2274Z" fill="currentColor"/>
<path fill-rule="evenodd" clip-rule="evenodd" d="M104.052 31.3906H108.568V44.2294H104.052V36.8928L102.245 38.7272V44.2294H97.7286V36.8928L95.9226 38.7272V44.2294H91.4062V31.3906H95.9226V33.2245L97.7286 31.3906H102.245V33.2245L104.052 31.3906Z" fill="currentColor"/>
<path fill-rule="evenodd" clip-rule="evenodd" d="M109.707 44.2274H114.223V31.3887H109.707V44.2274Z" fill="currentColor"/>
<path fill-rule="evenodd" clip-rule="evenodd" d="M128.005 31.3906V35.0587H119.876V35.9759H128.005V44.2294H115.359V40.5609H123.489V39.6439H115.359V31.3906H128.005Z" fill="currentColor"/>
<path fill-rule="evenodd" clip-rule="evenodd" d="M137.726 35.0568V44.2274H133.21V35.0568H129.145V31.3887H141.79V35.0568H137.726Z" fill="currentColor"/>
<path fill-rule="evenodd" clip-rule="evenodd" d="M142.93 31.3887V44.2276H147.445V40.5198H151.962V44.2276H156.477V31.3887H142.93ZM147.445 37.1199H151.962V35.0572H147.445V37.1199Z" fill="currentColor"/>
<path fill-rule="evenodd" clip-rule="evenodd" d="M61.7984 35.0572H66.3133V37.0688L61.7984 37.1199V35.0572ZM57.2812 31.3887V44.2276H61.7984V40.5198H70.8305V31.3887H57.2812Z" fill="currentColor"/>
<path fill-rule="evenodd" clip-rule="evenodd" d="M55.2391 48.043V51.7111H47.1097V57.2132H55.2391V60.8817H42.5938V48.043H55.2391Z" fill="currentColor"/>
<path fill-rule="evenodd" clip-rule="evenodd" d="M60.8938 53.7742H65.4112V51.7115H60.8938V53.7742ZM56.3789 48.043V60.8819H60.8938V57.1741H65.4112V60.8819H69.926V48.043H56.3789Z" fill="currentColor"/>
<path fill-rule="evenodd" clip-rule="evenodd" d="M87.1016 60.8817H91.6177V48.043H87.1016V60.8817Z" fill="currentColor"/>
<path fill-rule="evenodd" clip-rule="evenodd" d="M101.339 51.7111V60.8815H96.8227V51.7111H92.7578V48.043H105.403V51.7111H101.339Z" fill="currentColor"/>
<path fill-rule="evenodd" clip-rule="evenodd" d="M122.574 48.043H127.09V57.2132H135.22V60.8817H122.574V48.043Z" fill="currentColor"/>
<path fill-rule="evenodd" clip-rule="evenodd" d="M71.1484 57.1738V57.2132L71.1867 57.1738H71.1484Z" fill="currentColor"/>
<path fill-rule="evenodd" clip-rule="evenodd" d="M111.054 53.7742H115.571V51.7115H111.054V53.7742ZM106.539 48.043V60.8819H111.054V57.1741H115.571V60.8819H120.086V48.043H106.539Z" fill="currentColor"/>
<path fill-rule="evenodd" clip-rule="evenodd" d="M121.309 57.1738V57.2132L121.347 57.1738H121.309Z" fill="currentColor"/>
<path fill-rule="evenodd" clip-rule="evenodd" d="M76.9312 51.7115H81.4463V53.7231L76.9312 53.7742V51.7115ZM72.4141 48.043V60.8819H76.9312V57.1741H85.9635V48.043H72.4141Z" fill="currentColor"/>
<path fill-rule="evenodd" clip-rule="evenodd" d="M25.5755 54.4231C26.0223 53.9427 26.2458 53.1958 26.2458 52.1812V40.0895C26.2458 39.0753 26.0223 38.3278 25.5755 37.8474C25.128 37.367 24.4577 37.1268 23.5643 37.1268C22.6701 37.1268 21.9997 37.367 21.5531 37.8474C21.1057 38.3278 20.8826 39.0753 20.8826 40.0895V52.1812C20.8826 53.2221 21.1057 53.9765 21.5531 54.4432C21.9997 54.9105 22.6701 55.1439 23.5643 55.1439C24.4577 55.1439 25.128 54.9037 25.5755 54.4231ZM12.424 58.427C9.80757 55.8644 8.5 51.7675 8.5 46.1353C8.5 40.5036 9.80757 36.406 12.424 33.8435C15.0395 31.2812 18.7533 30 23.5643 30C28.3754 30 32.0885 31.2812 34.7047 33.8435C37.3202 36.406 38.6284 40.5036 38.6284 46.1353C38.6284 51.7675 37.3202 55.8644 34.7047 58.427C32.0885 60.9895 28.3754 62.2707 23.5643 62.2707C18.7533 62.2707 15.0395 60.9895 12.424 58.427Z" fill="currentColor"/>
</svg>
