<svg viewBox="0 0 165 92" fill="none" xmlns="http://www.w3.org/2000/svg">
<path d="M103.358 41.4676L102.058 41.4763C102.033 41.4763 102.008 41.4715 101.986 41.4621C101.963 41.4528 101.942 41.4391 101.924 41.4218C101.907 41.4045 101.893 41.384 101.884 41.3615C101.874 41.3389 101.869 41.3147 101.869 41.2903L101.867 38.4242C101.867 38.4128 101.869 38.4016 101.874 38.3911C101.878 38.3806 101.885 38.371 101.893 38.363C101.901 38.355 101.91 38.3486 101.921 38.3442C101.931 38.3399 101.942 38.3376 101.954 38.3376L103.364 38.3247C103.443 38.3232 103.483 38.2828 103.483 38.2035L103.492 35.093C103.492 35.0683 103.501 35.0447 103.518 35.0272C103.535 35.0098 103.558 35 103.583 35L106.775 35.0043C106.796 35.0043 106.817 35.0128 106.832 35.0278C106.847 35.0428 106.855 35.0631 106.855 35.0844L106.857 38.21C106.857 38.2259 106.861 38.2417 106.867 38.2564C106.873 38.2711 106.882 38.2844 106.894 38.2957C106.905 38.3069 106.919 38.3158 106.934 38.3219C106.949 38.328 106.965 38.3312 106.981 38.3312L111.307 38.3376C111.33 38.3376 111.353 38.347 111.37 38.3636C111.386 38.3803 111.396 38.4028 111.396 38.4263V41.3919C111.396 41.4137 111.387 41.4346 111.372 41.45C111.357 41.4655 111.337 41.4741 111.316 41.4741L106.942 41.472C106.918 41.472 106.896 41.4813 106.879 41.4979C106.862 41.5146 106.853 41.5371 106.853 41.5606C106.852 43.966 106.855 46.075 106.862 47.8877C106.868 49.6052 107.993 49.9556 109.503 49.9145C110.132 49.8972 110.737 49.8965 111.318 49.9123C111.339 49.9129 111.358 49.9218 111.373 49.9372C111.387 49.9525 111.396 49.9731 111.396 49.9945L111.4 52.9169C111.4 53.0106 111.353 53.0567 111.259 53.0553C110.455 53.0423 109.667 53.0402 108.895 53.0488C105.348 53.0834 103.474 51.3876 103.485 47.773C103.491 45.7354 103.49 43.6754 103.483 41.5931C103.483 41.5095 103.441 41.4676 103.358 41.4676Z" fill="currentColor"/>
<path d="M8.53357 43.5607L18.3237 35.0511C18.3417 35.0355 18.3648 35.0271 18.3886 35.0274L28.0749 35.0338C28.0987 35.0336 28.1218 35.042 28.1398 35.0576L37.9191 43.5759C37.9297 43.585 37.9381 43.5963 37.9439 43.609C37.9497 43.6217 37.9527 43.6355 37.9527 43.6494C37.9527 43.6634 37.9497 43.6772 37.9439 43.6898C37.9381 43.7025 37.9297 43.7138 37.9191 43.723L23.2858 56.4657C23.268 56.4817 23.2449 56.4905 23.2209 56.4905C23.197 56.4905 23.1739 56.4817 23.1561 56.4657L8.53357 43.7078C8.52303 43.6987 8.51458 43.6874 8.50879 43.6747C8.503 43.662 8.5 43.6482 8.5 43.6343C8.5 43.6203 8.503 43.6065 8.50879 43.5939C8.51458 43.5812 8.52303 43.5699 8.53357 43.5607ZM22.7559 36.0938C22.7559 36.0714 22.747 36.0499 22.7312 36.0341C22.7154 36.0183 22.6939 36.0094 22.6715 36.0094L19.5588 36.0116C19.5443 36.0119 19.5302 36.0161 19.5177 36.0235C19.5053 36.031 19.495 36.0415 19.4878 36.0542C19.4806 36.0668 19.4768 36.081 19.4767 36.0955C19.4767 36.1101 19.4804 36.1243 19.4875 36.137L22.254 40.9585C22.2602 40.9692 22.2686 40.9785 22.2787 40.9856C22.2888 40.9927 22.3003 40.9975 22.3124 40.9996L22.6521 41.0624C22.6643 41.0646 22.6769 41.0641 22.689 41.0609C22.7011 41.0577 22.7122 41.0518 22.7218 41.0437C22.7313 41.0357 22.7389 41.0256 22.744 41.0142C22.7492 41.0028 22.7518 40.9905 22.7516 40.978L22.7559 36.0938ZM26.9847 36.1586C26.9939 36.1431 26.9989 36.1254 26.999 36.1073C26.9991 36.0893 26.9944 36.0715 26.9854 36.0559C26.9763 36.0402 26.9633 36.0273 26.9476 36.0184C26.9319 36.0094 26.9141 36.0048 26.896 36.0051L23.8353 36.0202C23.8219 36.0202 23.8087 36.0228 23.7964 36.0279C23.784 36.0331 23.7728 36.0405 23.7634 36.05C23.7539 36.0594 23.7464 36.0706 23.7413 36.083C23.7362 36.0953 23.7336 36.1085 23.7336 36.1219L23.7358 40.9802C23.7357 40.9961 23.7394 41.0119 23.7466 41.0262C23.7538 41.0404 23.7642 41.0528 23.7771 41.0623C23.7899 41.0717 23.8048 41.0781 23.8206 41.0807C23.8363 41.0834 23.8525 41.0823 23.8677 41.0775L24.1597 40.9845C24.1834 40.9768 24.2034 40.9606 24.216 40.9391L26.9847 36.1586ZM29.7318 39.8099C29.741 39.8052 29.7491 39.7986 29.7557 39.7906C29.7622 39.7827 29.767 39.7734 29.7699 39.7635C29.7727 39.7536 29.7735 39.7432 29.7722 39.7329C29.7708 39.7227 29.7674 39.7128 29.7621 39.7039L27.9819 36.6129C27.9752 36.6017 27.9657 36.5924 27.9543 36.586C27.9429 36.5796 27.9301 36.5762 27.917 36.5762C27.9039 36.5762 27.8911 36.5796 27.8797 36.586C27.8684 36.5924 27.8588 36.6017 27.8521 36.6129L25.0488 41.4863C25.0425 41.4971 25.0391 41.5093 25.0387 41.5218C25.0383 41.5342 25.0411 41.5466 25.0466 41.5577L25.2499 41.973C25.2543 41.982 25.2604 41.99 25.2679 41.9966C25.2754 42.0032 25.2841 42.0083 25.2936 42.0115C25.303 42.0147 25.313 42.016 25.323 42.0154C25.3329 42.0147 25.3426 42.0121 25.3516 42.0076L29.7318 39.8099ZM16.9307 39.5915C18.2588 40.3269 19.6172 41.0725 21.0059 41.8281C21.2266 41.9478 21.3686 41.8894 21.4321 41.6529C21.4494 41.588 21.4414 41.526 21.4083 41.4669L18.6482 36.6583C18.6393 36.6426 18.6265 36.6294 18.6109 36.6203C18.5953 36.6112 18.5776 36.6064 18.5595 36.6064C18.5414 36.6064 18.5237 36.6112 18.5081 36.6203C18.4925 36.6294 18.4796 36.6426 18.4708 36.6583L16.8788 39.4011C16.8695 39.417 16.8635 39.4345 16.8612 39.4527C16.8588 39.4709 16.86 39.4894 16.8649 39.5072C16.8697 39.5249 16.878 39.5415 16.8893 39.5559C16.9006 39.5704 16.9147 39.5825 16.9307 39.5915ZM13.645 43.0156L16.5219 38.0427C16.6055 37.8999 16.5846 37.8833 16.4591 37.9929L10.7334 42.9918C10.6166 43.0928 10.6354 43.1433 10.7897 43.1433L13.433 43.1389C13.5267 43.1389 13.5974 43.0978 13.645 43.0156ZM30.0022 38.1249L32.8402 43.0373C32.8806 43.1065 32.9411 43.1411 33.0219 43.1411L35.5852 43.1368C35.8 43.1368 35.826 43.0661 35.663 42.9248L30.0801 38.06C29.9272 37.9273 29.9013 37.949 30.0022 38.1249ZM20.2791 42.5462C18.9366 41.8281 17.6395 41.1193 16.3877 40.4199C16.3674 40.4085 16.3434 40.4058 16.3207 40.4123C16.298 40.4187 16.2786 40.4339 16.2666 40.4545L14.7784 43.0611C14.7738 43.069 14.7714 43.078 14.7715 43.0871C14.7715 43.0963 14.7739 43.1053 14.7785 43.1132C14.7831 43.1211 14.7898 43.1276 14.7977 43.1322C14.8057 43.1367 14.8147 43.139 14.8238 43.1389L20.4046 43.1411C20.4636 43.1409 20.5209 43.1204 20.5669 43.0831C20.6129 43.0457 20.6449 42.9937 20.6577 42.9356C20.6851 42.8101 20.631 42.7164 20.4955 42.6544C20.4219 42.6212 20.3498 42.5852 20.2791 42.5462ZM31.6743 43.0351L30.3548 40.7141C30.3423 40.6909 30.3209 40.6736 30.2951 40.6659C30.2692 40.6582 30.241 40.6608 30.2164 40.673L26.193 42.6933C25.622 42.9803 25.6559 43.1245 26.2947 43.126L31.6116 43.1454C31.6244 43.1453 31.637 43.1417 31.648 43.1352C31.659 43.1287 31.6682 43.1194 31.6745 43.1082C31.6809 43.0971 31.6842 43.0845 31.6842 43.0716C31.6841 43.0588 31.6807 43.0462 31.6743 43.0351ZM16.5067 49.1804L13.6709 44.2746C13.6454 44.2299 13.6086 44.1928 13.5641 44.167C13.5197 44.1412 13.4692 44.1275 13.4178 44.1275L10.8221 44.1296C10.6447 44.1296 10.6224 44.188 10.7551 44.3048L16.3986 49.2691C16.612 49.4566 16.648 49.427 16.5067 49.1804ZM14.9644 44.1123C14.9386 44.1123 14.9132 44.119 14.8908 44.1319C14.8684 44.1448 14.8498 44.1634 14.8369 44.1858C14.8239 44.2081 14.8171 44.2335 14.8171 44.2594C14.8171 44.2852 14.8239 44.3106 14.8368 44.333L16.1022 46.4982C16.1212 46.5302 16.1517 46.5538 16.1874 46.5642C16.2231 46.5747 16.2615 46.5712 16.2947 46.5544L20.569 44.4152C20.5988 44.4005 20.6227 44.3762 20.6369 44.3462C20.6511 44.3162 20.6548 44.2822 20.6473 44.2499C20.6397 44.2175 20.6215 44.1887 20.5955 44.168C20.5695 44.1474 20.5373 44.1361 20.5041 44.1361L14.9644 44.1123ZM25.9962 44.1361C25.9855 44.1362 25.975 44.1386 25.9653 44.1431C25.9556 44.1476 25.947 44.154 25.9399 44.1621L25.7734 44.3438C25.7659 44.3524 25.7604 44.3626 25.7574 44.3736C25.7543 44.3846 25.7538 44.3962 25.7559 44.4074C25.758 44.4186 25.7626 44.4293 25.7694 44.4385C25.7761 44.4477 25.7849 44.4552 25.795 44.4606L30.0931 46.8313C30.1103 46.8408 30.1306 46.8431 30.1496 46.8379C30.1686 46.8326 30.1848 46.8202 30.1947 46.8032L31.6765 44.2356C31.6834 44.224 31.6872 44.2107 31.6873 44.1971C31.6873 44.1835 31.6838 44.1701 31.6769 44.1584C31.67 44.1467 31.6602 44.137 31.6483 44.1304C31.6364 44.1239 31.623 44.1206 31.6094 44.121L25.9962 44.1361ZM29.9308 49.2561C29.8328 49.4263 29.8573 49.4465 30.0044 49.3167L35.6782 44.3394C35.8397 44.1981 35.813 44.1267 35.5981 44.1253L32.9959 44.1188C32.9195 44.1188 32.8626 44.1513 32.8251 44.2161L29.9308 49.2561ZM16.7252 47.45C16.7173 47.454 16.7104 47.4597 16.7048 47.4665C16.6992 47.4734 16.695 47.4813 16.6926 47.4898C16.6902 47.4983 16.6895 47.5072 16.6906 47.516C16.6918 47.5248 16.6947 47.5332 16.6992 47.5408L18.4946 50.6405C18.5003 50.6504 18.5085 50.6586 18.5184 50.6643C18.5282 50.67 18.5394 50.673 18.5508 50.673C18.5622 50.673 18.5734 50.67 18.5833 50.6643C18.5932 50.6586 18.6014 50.6504 18.6071 50.6405L21.4537 45.7281C21.4596 45.7174 21.4623 45.7052 21.4616 45.6929C21.4608 45.6807 21.4566 45.6689 21.4494 45.6589L21.1833 45.2717C21.1745 45.2588 21.1613 45.2496 21.1462 45.2456C21.1312 45.2416 21.1151 45.2432 21.1011 45.2501L16.7252 47.45ZM27.85 50.634C27.8567 50.6452 27.8662 50.6545 27.8776 50.6609C27.8889 50.6674 27.9018 50.6707 27.9148 50.6707C27.9279 50.6707 27.9408 50.6674 27.9521 50.6609C27.9635 50.6545 27.973 50.6452 27.9797 50.634L29.6237 47.7831C29.6287 47.7744 29.632 47.7649 29.6333 47.7549C29.6346 47.745 29.6339 47.735 29.6313 47.7253C29.6287 47.7156 29.6242 47.7066 29.618 47.6987C29.6119 47.6908 29.6043 47.6842 29.5956 47.6793L25.3191 45.3431C25.3021 45.3335 25.282 45.3308 25.2631 45.3356C25.2441 45.3405 25.2278 45.3525 25.2175 45.3691L25.0358 45.6589C25.0284 45.6705 25.0243 45.6839 25.0239 45.6976C25.0235 45.7113 25.0269 45.7248 25.0336 45.7368L27.85 50.634ZM22.2021 46.3944C21.3153 47.9331 20.406 49.5085 19.4745 51.1207C19.4211 51.2116 19.4471 51.257 19.5523 51.257L22.572 51.2527C22.6903 51.2527 22.7494 51.1936 22.7494 51.0753L22.7537 46.3663C22.7537 46.2913 22.7184 46.2437 22.6477 46.2235C22.4502 46.1658 22.3016 46.2228 22.2021 46.3944ZM23.7379 51.1683C23.7379 51.1901 23.7466 51.211 23.762 51.2264C23.7774 51.2419 23.7983 51.2505 23.8201 51.2505L26.9263 51.2483C26.9408 51.2484 26.955 51.2446 26.9675 51.2374C26.98 51.2302 26.9904 51.2198 26.9976 51.2073C27.0049 51.1948 27.0087 51.1806 27.0087 51.1662C27.0087 51.1518 27.0049 51.1376 26.9977 51.1251L24.2052 46.2905C24.1991 46.2797 24.1908 46.2704 24.1806 46.2633C24.1705 46.2562 24.1589 46.2515 24.1467 46.2495L23.8331 46.1997C23.8213 46.1978 23.8092 46.1985 23.7976 46.2018C23.7861 46.2051 23.7755 46.2108 23.7664 46.2187C23.7573 46.2265 23.7501 46.2362 23.7452 46.2471C23.7402 46.2581 23.7378 46.2699 23.7379 46.2819V51.1683ZM19.9395 52.2261C19.9249 52.2259 19.9105 52.2302 19.8984 52.2384C19.8863 52.2466 19.877 52.2584 19.8718 52.2721C19.8666 52.2858 19.8657 52.3008 19.8693 52.315C19.873 52.3292 19.8808 52.342 19.892 52.3515L22.6369 54.6941C22.6472 54.7034 22.66 54.7094 22.6737 54.7115C22.6874 54.7136 22.7014 54.7117 22.714 54.7059C22.7267 54.7002 22.7373 54.6909 22.7448 54.6792C22.7522 54.6675 22.756 54.6539 22.7559 54.6401L22.7429 52.3039C22.7429 52.285 22.7354 52.2669 22.722 52.2535C22.7086 52.2401 22.6905 52.2326 22.6715 52.2326L19.9395 52.2261ZM23.7293 54.5406C23.7285 54.5534 23.7317 54.5662 23.7382 54.5772C23.7447 54.5883 23.7544 54.5971 23.766 54.6027C23.7776 54.6083 23.7905 54.6103 23.8033 54.6084C23.816 54.6066 23.8279 54.6011 23.8374 54.5925L26.5434 52.3342C26.5538 52.3256 26.5612 52.3139 26.5646 52.3009C26.568 52.2879 26.5673 52.2741 26.5625 52.2615C26.5578 52.2489 26.5492 52.2381 26.538 52.2306C26.5269 52.2231 26.5136 52.2192 26.5002 52.2196L23.8115 52.2369C23.7943 52.2369 23.7778 52.2437 23.7656 52.2559C23.7534 52.2681 23.7466 52.2846 23.7466 52.3018L23.7293 54.5406Z" fill="currentColor"/>
<path d="M64.0005 39.3412L64.0048 38.4824C64.0048 38.38 64.056 38.3288 64.1584 38.3288L67.3489 38.3267C67.3748 38.3267 67.3995 38.3369 67.4178 38.3552C67.436 38.3734 67.4463 38.3982 67.4463 38.424L67.442 52.9405C67.442 52.9703 67.4299 52.9989 67.4084 53.02C67.3869 53.0411 67.3577 53.053 67.3273 53.053L64.1476 53.0508C64.051 53.0494 64.0019 53.0011 64.0005 52.9059L63.9983 52.045C63.9969 51.9166 63.9464 51.8921 63.8469 51.9714C62.6074 52.9491 61.1906 53.3796 59.5099 53.3277C49.8409 53.04 49.5921 38.7571 59.0838 38.0693C61.0219 37.9287 62.3998 38.3483 63.8556 39.4147C63.9522 39.4854 64.0005 39.4609 64.0005 39.3412ZM63.9442 45.0815C63.946 44.579 63.8487 44.081 63.658 43.6161C63.4674 43.1512 63.187 42.7284 62.8329 42.3718C62.4788 42.0153 62.058 41.7319 61.5944 41.538C61.1308 41.3441 60.6336 41.2434 60.1311 41.2416L59.4086 41.2391C58.3938 41.2356 57.4191 41.6353 56.699 42.3504C55.9789 43.0655 55.5723 44.0374 55.5688 45.0522L55.5645 46.2895C55.5627 46.792 55.6599 47.2899 55.8506 47.7549C56.0413 48.2198 56.3217 48.6426 56.6758 48.9992C57.0299 49.3557 57.4507 49.639 57.9143 49.833C58.3779 50.0269 58.8751 50.1276 59.3776 50.1293L60.1001 50.1319C61.1149 50.1354 62.0896 49.7357 62.8097 49.0206C63.5298 48.3055 63.9363 47.3336 63.9399 46.3188L63.9442 45.0815Z" fill="currentColor"/>
<path d="M79.6844 47.1138C80.2439 49.0375 81.4401 50.0945 83.273 50.2848C84.878 50.4521 86.1088 50.0231 86.9654 48.9978C86.9985 48.9579 87.0401 48.9257 87.0872 48.9036C87.1343 48.8816 87.1858 48.8702 87.2379 48.8702L90.7032 48.8659C90.7192 48.866 90.735 48.87 90.7492 48.8775C90.7634 48.8849 90.7756 48.8956 90.7849 48.9087C90.7942 48.9218 90.8003 48.9368 90.8026 48.9527C90.8049 48.9686 90.8035 48.9848 90.7984 49C89.812 51.9461 86.8183 53.3348 83.7921 53.3197C78.6937 53.2959 75.594 49.3677 76.2516 44.4445C76.7707 40.5639 79.7666 38.1218 83.6861 38.0504C86.4311 38.0007 88.817 39.1168 90.3182 41.4357C91.3391 43.0104 91.6052 44.9615 91.3932 46.8196C91.3879 46.8659 91.3658 46.9086 91.3312 46.9397C91.2965 46.9708 91.2516 46.9881 91.205 46.9883L79.7774 46.9905C79.7623 46.9906 79.7473 46.9942 79.7338 47.0009C79.7202 47.0077 79.7085 47.0175 79.6994 47.0294C79.6904 47.0414 79.6843 47.0553 79.6817 47.0699C79.6791 47.0846 79.68 47.0996 79.6844 47.1138ZM87.796 43.9989C87.173 41.7709 85.0813 40.7067 82.862 41.1458C81.3204 41.4501 80.2937 42.3997 79.7818 43.9946C79.7787 44.0044 79.778 44.0147 79.7797 44.0249C79.7814 44.035 79.7855 44.0445 79.7916 44.0528C79.7977 44.061 79.8057 44.0677 79.8149 44.0722C79.8241 44.0768 79.8342 44.0791 79.8445 44.0789L87.7333 44.0811C87.791 44.0811 87.8119 44.0537 87.796 43.9989Z" fill="currentColor"/>
<path d="M95.2253 41.6008C94.8792 42.2108 94.9239 42.7725 95.3594 43.2859C95.9651 44.0019 97.2824 44.3025 98.1649 44.5881C99.7851 45.1137 101.226 45.94 101.585 47.7224C103.019 54.8454 91.5827 55.211 91.6173 48.7282C91.6173 48.6532 91.6548 48.6157 91.7298 48.6157L94.8316 48.6179C94.9484 48.6179 95.0104 48.6763 95.0176 48.7931C95.071 49.6309 95.4546 50.1458 96.1684 50.3376C96.8736 50.5279 97.8318 50.3484 98.1585 49.6064C98.6149 48.5703 98.033 47.7483 97.0423 47.3568C95.8786 46.8939 94.598 46.6127 93.5727 45.9292C92.4003 45.149 91.8365 43.9262 91.8812 42.2606C92.0347 36.4073 101.622 36.7166 101.682 42.5807C101.684 42.6744 101.637 42.7213 101.544 42.7213L98.431 42.7256C98.3055 42.7256 98.2378 42.6629 98.2277 42.5375C98.1498 41.5785 97.6667 41.0579 96.7784 40.9757C96.2095 40.926 95.5281 41.0666 95.2253 41.6008Z" fill="currentColor"/>
<path d="M126.018 49.5127C124.795 51.6714 122.88 52.9231 120.272 53.2678C116.359 53.7869 112.864 51.6822 111.864 47.7952C110.813 43.7113 112.66 39.7398 116.712 38.4333C119.985 37.3799 123.556 38.3057 125.552 41.1523C127.181 43.4733 127.398 47.0814 126.018 49.5127ZM123.413 45.0735C123.415 44.5713 123.318 44.0736 123.127 43.609C122.937 43.1443 122.656 42.7217 122.303 42.3654C121.949 42.009 121.528 41.7259 121.065 41.532C120.601 41.3382 120.104 41.2376 119.602 41.2358L118.88 41.2333C118.378 41.2315 117.88 41.3287 117.415 41.5193C116.951 41.7099 116.528 41.9901 116.172 42.344C115.815 42.6979 115.532 43.1185 115.338 43.5818C115.144 44.0451 115.044 44.5421 115.042 45.0443L115.038 46.2988C115.036 46.8011 115.133 47.2987 115.324 47.7634C115.514 48.228 115.795 48.6506 116.148 49.007C116.502 49.3633 116.923 49.6465 117.386 49.8403C117.85 50.0341 118.346 50.1348 118.849 50.1365L119.571 50.139C120.073 50.1408 120.571 50.0436 121.036 49.853C121.5 49.6625 121.923 49.3822 122.279 49.0284C122.636 48.6745 122.919 48.2539 123.113 47.7906C123.306 47.3272 123.407 46.8303 123.409 46.3281L123.413 45.0735Z" fill="currentColor"/>
<path d="M131.004 39.2372C131.004 39.3525 131.047 39.3713 131.132 39.2934C131.815 38.6849 132.543 38.3121 133.314 38.1751C137.364 37.4591 140.457 40.1154 140.468 44.1625C140.475 47.1404 140.475 50.0627 140.468 52.9295C140.468 52.9616 140.455 52.9925 140.431 53.0152C140.408 53.0379 140.377 53.0507 140.344 53.0507H137.208C137.114 53.0507 137.067 53.0045 137.067 52.9122C137.053 50.2934 137.053 47.6062 137.069 44.8504C137.074 43.9794 136.989 43.3391 136.816 42.9296C136.411 41.9677 135.686 41.4031 134.642 41.2359C132.607 40.9071 131.002 42.1033 131.002 44.2188C131 47.074 130.998 49.974 130.993 52.9187C130.993 52.9537 130.979 52.9873 130.954 53.012C130.929 53.0368 130.895 53.0507 130.859 53.0507L127.788 53.0571C127.651 53.0571 127.582 52.9879 127.582 52.8495L127.584 38.4606C127.584 38.3741 127.627 38.3308 127.714 38.3308L130.84 38.3265C130.949 38.3251 131.004 38.3791 131.004 38.4887V39.2372Z" fill="currentColor"/>
<path d="M144.885 46.9914C144.745 46.9914 144.696 47.0577 144.74 47.1904C145.476 49.5164 147.105 50.5417 149.624 50.2663C150.665 50.1524 151.462 49.7226 152.014 48.9771C152.039 48.9423 152.072 48.9139 152.11 48.8944C152.148 48.8748 152.19 48.8646 152.233 48.8646L155.752 48.8516C155.766 48.8517 155.779 48.855 155.792 48.8613C155.804 48.8675 155.815 48.8766 155.823 48.8878C155.831 48.8989 155.837 48.9118 155.839 48.9254C155.841 48.9391 155.84 48.9531 155.836 48.9663C154.714 52.7474 150.05 53.9003 146.632 53.0588C143.535 52.2931 141.491 49.6455 141.235 46.4982C140.863 41.9319 143.736 38.2438 148.449 38.0513C153.602 37.8393 157.039 41.681 156.427 46.8443C156.414 46.9424 156.358 46.9914 156.26 46.9914H144.885ZM152.832 43.9328C151.614 40.05 145.97 40.0479 144.835 43.9955C144.832 44.0052 144.832 44.0154 144.833 44.0253C144.835 44.0352 144.839 44.0445 144.845 44.0524C144.851 44.0604 144.859 44.0669 144.867 44.0712C144.876 44.0756 144.886 44.0778 144.895 44.0777H152.726C152.827 44.0777 152.862 44.0294 152.832 43.9328Z" fill="currentColor"/>
<path d="M48.0592 40.2014L52.3011 38.3714C52.3133 38.366 52.3267 38.3637 52.34 38.3648C52.3533 38.3659 52.3661 38.3703 52.3773 38.3776C52.3885 38.3849 52.3977 38.3949 52.404 38.4066C52.4103 38.4184 52.4136 38.4316 52.4135 38.4449L52.42 41.7912C52.4199 41.807 52.4151 41.8225 52.4063 41.8355C52.3974 41.8486 52.3849 41.8588 52.3703 41.8648L47.9879 43.658C47.9732 43.664 47.9607 43.6741 47.9519 43.6872C47.943 43.7003 47.9382 43.7157 47.9381 43.7315L47.9338 52.9744C47.9338 52.9956 47.9254 53.016 47.9103 53.031C47.8953 53.046 47.875 53.0544 47.8538 53.0544H44.6113C44.5901 53.0544 44.5697 53.046 44.5547 53.031C44.5397 53.016 44.5312 52.9956 44.5312 52.9744L44.5334 38.4125C44.5334 38.3913 44.5418 38.3709 44.5569 38.3559C44.5719 38.3409 44.5922 38.3325 44.6134 38.3325L47.8538 38.3281C47.875 38.3281 47.8953 38.3366 47.9103 38.3516C47.9254 38.3666 47.9338 38.3869 47.9338 38.4082L47.9489 40.1278C47.949 40.1409 47.9523 40.1538 47.9585 40.1653C47.9647 40.1768 47.9737 40.1866 47.9846 40.1939C47.9955 40.2011 48.008 40.2056 48.021 40.2069C48.034 40.2082 48.0471 40.2063 48.0592 40.2014Z" fill="currentColor"/>
<path d="M72.1026 40.2014L76.3163 38.3757C76.3307 38.3692 76.3466 38.3665 76.3624 38.3677C76.3782 38.3689 76.3935 38.374 76.4068 38.3826C76.4201 38.3912 76.4311 38.403 76.4387 38.4169C76.4463 38.4308 76.4503 38.4464 76.4504 38.4622L76.4461 41.7826C76.4462 41.8015 76.4408 41.82 76.4304 41.8358C76.42 41.8516 76.4051 41.864 76.3876 41.8713L72.0269 43.6537C72.0094 43.661 71.9945 43.6733 71.9841 43.6891C71.9737 43.7049 71.9683 43.7234 71.9685 43.7423L71.9706 52.9549C71.9706 52.9802 71.9606 53.0044 71.9427 53.0222C71.9249 53.0401 71.9007 53.0501 71.8754 53.0501L68.646 53.0544C68.6207 53.0544 68.5965 53.0444 68.5787 53.0266C68.5608 53.0087 68.5508 52.9845 68.5508 52.9593L68.5529 38.4298C68.5529 38.4045 68.563 38.3803 68.5808 38.3625C68.5987 38.3446 68.6229 38.3346 68.6481 38.3346L71.8841 38.3281C71.9093 38.3281 71.9336 38.3382 71.9514 38.356C71.9692 38.3739 71.9793 38.3981 71.9793 38.4233L71.9685 40.1148C71.9685 40.1307 71.9725 40.1463 71.9801 40.1602C71.9877 40.1741 71.9987 40.1859 72.012 40.1945C72.0254 40.2031 72.0406 40.2082 72.0564 40.2094C72.0722 40.2106 72.0881 40.2078 72.1026 40.2014Z" fill="currentColor"/>
</svg>
