<svg viewBox="0 0 165 92" fill="none" xmlns="http://www.w3.org/2000/svg">
<path d="M74.2034 66.3343H69.3945L77.8834 25.7388C77.919 25.564 78.0256 25.4766 78.2034 25.4766L81.9056 25.481C81.985 25.4814 82.0618 25.5089 82.1233 25.5591C82.1847 25.6092 82.2271 25.6789 82.2434 25.7566L87.5856 50.9343C87.5975 50.9995 87.5708 51.0321 87.5056 51.0321H83.6123C83.5772 51.0318 83.5434 51.0197 83.5166 50.9978C83.4899 50.9759 83.4718 50.9456 83.4656 50.9121C82.4553 44.8351 81.3471 38.5862 80.1412 32.1655C80.0612 31.7388 79.9856 31.7388 79.9145 32.1655L78.1279 42.7566C78.1219 42.7911 78.1236 42.8266 78.1328 42.8603C78.142 42.8941 78.1585 42.9253 78.181 42.9517C78.2036 42.9781 78.2317 42.9991 78.2633 43.013C78.2948 43.0269 78.329 43.0334 78.3634 43.0321L80.9145 42.9521C81.018 42.95 81.1188 42.984 81.1993 43.0482C81.2797 43.1124 81.3347 43.2027 81.3545 43.3032L81.8967 45.9077C81.9471 46.1536 81.8464 46.2766 81.5945 46.2766H77.9368C77.6701 46.2766 77.516 46.4084 77.4745 46.6721L74.2034 66.3343Z" fill="currentColor"/>
<path d="M82.8938 25.481L89.3116 25.4766C89.3768 25.4766 89.4395 25.5022 89.486 25.5479C89.5326 25.5936 89.5593 25.6558 89.5605 25.721L89.5872 28.561C89.5877 28.5941 89.5817 28.6269 89.5695 28.6576C89.5573 28.6883 89.539 28.7163 89.5158 28.7399C89.4927 28.7635 89.465 28.7822 89.4346 28.795C89.4041 28.8078 89.3713 28.8143 89.3383 28.8143L83.4494 28.801C83.3918 28.8011 83.3359 28.7812 83.2914 28.7447C83.2468 28.7083 83.2162 28.6575 83.2049 28.601L82.6494 25.7788C82.6421 25.7426 82.643 25.7053 82.652 25.6696C82.6609 25.6338 82.6777 25.6005 82.701 25.572C82.7244 25.5435 82.7539 25.5205 82.7872 25.5048C82.8205 25.4891 82.857 25.4809 82.8938 25.481Z" fill="currentColor"/>
<path d="M99.2069 29.5255C99.2337 29.4818 99.2484 29.4318 99.2495 29.3806C99.2506 29.3294 99.2381 29.2788 99.2132 29.234C99.1883 29.1893 99.152 29.1519 99.1079 29.1258C99.0638 29.0997 99.0136 29.0858 98.9624 29.0855L94.3669 29.0588C94.1683 29.0588 94.0691 29.1566 94.0691 29.3521L94.0646 50.7921C94.0646 50.958 93.9817 51.041 93.8157 51.041L90.1669 51.0321C90.1008 51.0321 90.0375 51.0059 89.9909 50.9592C89.9442 50.9125 89.918 50.8492 89.918 50.7832L89.9402 25.6855C89.9402 25.658 89.9455 25.6309 89.9558 25.6055C89.966 25.5802 89.9811 25.5571 90.0001 25.5377C90.0191 25.5183 90.0416 25.503 90.0664 25.4925C90.0912 25.482 90.1178 25.4766 90.1446 25.4766H102.962C103.031 25.4766 103.096 25.5037 103.145 25.5521C103.193 25.6004 103.22 25.666 103.22 25.7343C103.25 29.7373 103.263 33.6529 103.26 37.481C103.26 39.5655 101.154 39.4855 99.678 39.3788C99.6461 39.3763 99.6142 39.3821 99.5852 39.3955C99.5563 39.4089 99.5312 39.4296 99.5125 39.4554C99.4938 39.4813 99.482 39.5115 99.4783 39.5432C99.4746 39.5749 99.479 39.6071 99.4913 39.6366L104.042 50.9388C104.06 50.9892 104.044 51.0143 103.994 51.0143C101.457 51.0795 100.011 51.0529 99.6557 50.9343C99.638 50.9284 99.6276 50.918 99.6246 50.9032C98.4217 47.7151 97.0232 44.2114 95.4291 40.3921C95.1772 39.7936 95.0572 39.2247 95.0691 38.6855C95.078 38.2055 95.0809 37.7136 95.078 37.2099C95.078 37.0173 95.1728 36.921 95.3624 36.921L98.8513 36.9166C99.0706 36.9166 99.1787 36.8055 99.1757 36.5832C99.1283 34.5299 99.1209 32.5521 99.1535 30.6499C99.1565 30.4425 99.1432 30.2306 99.1135 30.0143C99.0869 29.8336 99.118 29.6706 99.2069 29.5255Z" fill="currentColor"/>
<path d="M106.141 28.6572C106.141 28.6881 106.135 28.7187 106.123 28.7472C106.111 28.7758 106.093 28.8016 106.071 28.8234C106.049 28.8451 106.023 28.8624 105.995 28.874C105.966 28.8857 105.935 28.8917 105.904 28.8915L103.887 28.881C103.856 28.8808 103.825 28.8745 103.797 28.8626C103.768 28.8506 103.742 28.8331 103.72 28.8111C103.699 28.7891 103.681 28.763 103.67 28.7344C103.658 28.7058 103.652 28.6751 103.652 28.6442L103.668 25.7109C103.668 25.6799 103.674 25.6493 103.686 25.6208C103.698 25.5923 103.716 25.5664 103.738 25.5447C103.76 25.5229 103.786 25.5057 103.814 25.494C103.843 25.4823 103.874 25.4764 103.904 25.4766L105.922 25.4871C105.953 25.4873 105.984 25.4935 106.012 25.5055C106.041 25.5175 106.067 25.535 106.088 25.557C106.11 25.579 106.127 25.605 106.139 25.6337C106.151 25.6623 106.157 25.693 106.157 25.7239L106.141 28.6572Z" fill="currentColor"/>
<path d="M110.636 35.8682C110.636 36.1556 110.692 36.1659 110.805 35.8993L115.223 25.5793C115.239 25.5421 115.265 25.5105 115.298 25.4884C115.331 25.4662 115.37 25.4546 115.409 25.4548L119.685 25.4459C119.697 25.4455 119.71 25.4482 119.72 25.4538C119.731 25.4595 119.741 25.4678 119.747 25.4781C119.754 25.4884 119.758 25.5003 119.759 25.5126C119.76 25.5248 119.757 25.5371 119.752 25.5482C116.898 31.4889 113.998 37.4607 111.049 43.4637C110.744 44.083 110.599 44.7215 110.614 45.3793C110.655 47.2104 110.657 49.0726 110.618 50.9659C110.618 51.0133 110.595 51.037 110.547 51.037L106.65 51.0415C106.57 51.0415 106.53 51.0015 106.53 50.9215L106.512 25.7659C106.512 25.5793 106.604 25.4859 106.787 25.4859L110.383 25.4415C110.534 25.4385 110.609 25.5141 110.609 25.6682L110.636 35.8682Z" fill="currentColor"/>
<path d="M114.787 25.8504L113.414 28.7393C113.393 28.7818 113.361 28.8177 113.321 28.8428C113.281 28.8679 113.234 28.8814 113.187 28.8815L111.254 28.8993C111.22 28.8999 111.187 28.8938 111.156 28.8813C111.124 28.8689 111.096 28.8503 111.072 28.8267C111.048 28.8031 111.029 28.775 111.016 28.744C111.003 28.7129 110.996 28.6796 110.996 28.646V25.726C110.996 25.6588 111.023 25.5944 111.07 25.5469C111.118 25.4993 111.182 25.4727 111.249 25.4727L114.556 25.4904C114.599 25.4902 114.641 25.5008 114.678 25.5211C114.716 25.5415 114.748 25.571 114.771 25.6069C114.794 25.6428 114.807 25.684 114.81 25.7265C114.813 25.7691 114.805 25.8117 114.787 25.8504Z" fill="currentColor"/>
<path d="M156.497 25.4414V28.9081L118.919 28.877C118.906 28.8769 118.892 28.8733 118.881 28.8667C118.869 28.86 118.859 28.8504 118.852 28.8389C118.845 28.8273 118.841 28.8142 118.84 28.8006C118.839 28.7871 118.842 28.7736 118.848 28.7614L120.444 25.6014C120.482 25.5244 120.543 25.4859 120.626 25.4859L156.497 25.4414Z" fill="currentColor"/>
<path d="M54.0638 50.6587C54.1171 50.7802 54.0742 50.8942 53.9349 51.0009C53.9 51.0241 53.8612 51.0365 53.8238 51.0365H8.70823C8.64897 51.0365 8.61934 51.0068 8.61934 50.9476L8.60156 47.8809C8.60156 47.8491 8.61467 47.8186 8.63801 47.796C8.66135 47.7735 8.693 47.7609 8.72601 47.7609L48.9038 47.7431C49.1065 47.7431 49.301 47.6626 49.4443 47.5192C49.5877 47.3759 49.6682 47.1814 49.6682 46.9787L49.6771 43.2498C49.6772 43.0821 49.6415 42.9165 49.5725 42.764C49.5035 42.6115 49.4028 42.4755 49.2771 42.3653L41.5616 35.6187C41.3172 35.405 41.1213 35.1413 40.9872 34.8454C40.853 34.5495 40.7837 34.2282 40.7838 33.9031L40.766 27.8853C40.763 26.4305 41.489 25.7031 42.9438 25.7031H53.8327C53.8576 25.7031 53.8822 25.7081 53.9051 25.7177C53.9281 25.7274 53.9489 25.7416 53.9663 25.7594C53.9837 25.7772 53.9973 25.7983 54.0064 25.8214C54.0155 25.8446 54.0199 25.8694 54.0193 25.8942V28.7387C54.0193 28.8453 53.9645 28.8987 53.8549 28.8987L46.5749 28.8631C46.3505 28.8619 46.1348 28.9496 45.9749 29.107C45.815 29.2644 45.7239 29.4788 45.7216 29.7031L45.6905 33.5342C45.689 33.7157 45.7263 33.8952 45.7999 34.0608C45.8735 34.2264 45.9817 34.3742 46.1171 34.4942C48.4905 36.5891 50.8253 38.6365 53.1216 40.6365C53.7053 41.1431 53.9986 41.7328 54.0016 42.4053C54.0253 44.9861 54.0386 47.6942 54.0416 50.5298C54.0416 50.5742 54.049 50.6172 54.0638 50.6587Z" fill="currentColor"/>
<path d="M66.1269 29.091L61.8291 29.0821C61.7325 29.0821 61.6398 29.1205 61.5714 29.1889C61.5031 29.2572 61.4647 29.3499 61.4647 29.4466V50.8066C61.4647 50.9517 61.3921 51.0243 61.2469 51.0243L57.478 51.0421C57.4555 51.0427 57.433 51.0388 57.412 51.0306C57.391 51.0223 57.3719 51.01 57.3557 50.9942C57.3396 50.9785 57.3267 50.9597 57.318 50.9389C57.3092 50.9181 57.3047 50.8958 57.3047 50.8732L57.3136 25.8688C57.3136 25.8311 57.3286 25.7949 57.3552 25.7682C57.3819 25.7415 57.4181 25.7266 57.4558 25.7266H68.3891C69.9091 25.7266 70.6691 26.488 70.6691 28.011V39.9132C70.6691 40.4386 70.4615 40.9426 70.0917 41.3149C69.7219 41.6872 69.22 41.8975 68.6958 41.8999L62.5358 41.9266C62.4474 41.9266 62.3626 41.8919 62.3001 41.8302C62.2376 41.7686 62.2025 41.6849 62.2025 41.5977L62.198 38.891C62.198 38.6925 62.2973 38.5932 62.4958 38.5932L66.1758 38.6021C66.3654 38.6021 66.4602 38.5088 66.4602 38.3221L66.4514 29.411C66.4514 29.1977 66.3432 29.091 66.1269 29.091Z" fill="currentColor"/>
<path d="M115.766 50.8729L112.295 43.4596C112.283 43.4376 112.277 43.4132 112.277 43.3885C112.277 43.3638 112.283 43.3394 112.295 43.3174L114.495 39.2729C114.508 39.247 114.529 39.2254 114.554 39.2107C114.579 39.1959 114.608 39.1886 114.637 39.1895C114.667 39.1905 114.695 39.1996 114.719 39.2159C114.743 39.2323 114.763 39.2551 114.775 39.2818L120.255 50.7574C120.266 50.7812 120.271 50.8075 120.269 50.8339C120.268 50.8602 120.259 50.8857 120.245 50.9079C120.231 50.9301 120.211 50.9484 120.188 50.9609C120.165 50.9735 120.139 50.9799 120.112 50.9796L115.903 50.9618C115.874 50.9613 115.846 50.9527 115.822 50.937C115.798 50.9213 115.778 50.8991 115.766 50.8729Z" fill="currentColor"/>
<path d="M56.9648 50.8265C56.9648 50.854 56.9595 50.8811 56.949 50.9065C56.9386 50.9319 56.9232 50.9549 56.9039 50.9743C56.8845 50.9938 56.8615 51.0092 56.8362 51.0197C56.8108 51.0303 56.7837 51.0357 56.7563 51.0358L54.5074 51.0397C54.4799 51.0397 54.4528 51.0344 54.4274 51.0239C54.402 51.0135 54.379 50.9981 54.3596 50.9788C54.3401 50.9594 54.3247 50.9364 54.3142 50.9111C54.3036 50.8857 54.2982 50.8586 54.2981 50.8312L54.293 47.8889C54.2929 47.8615 54.2983 47.8343 54.3087 47.809C54.3192 47.7836 54.3345 47.7606 54.3539 47.7411C54.3733 47.7217 54.3963 47.7063 54.4216 47.6957C54.4469 47.6852 54.4741 47.6797 54.5015 47.6797L56.7504 47.6758C56.7778 47.6757 56.805 47.6811 56.8304 47.6915C56.8557 47.702 56.8788 47.7173 56.8982 47.7367C56.9176 47.7561 56.9331 47.7791 56.9436 47.8044C56.9541 47.8297 56.9596 47.8569 56.9596 47.8843L56.9648 50.8265Z" fill="currentColor"/>
<path d="M72.0355 51.0185L62.0578 51.0274C62.0332 51.0274 62.009 51.0226 61.9863 51.0132C61.9637 51.0038 61.9431 50.9901 61.9258 50.9728C61.9084 50.9554 61.8947 50.9348 61.8853 50.9122C61.8759 50.8896 61.8711 50.8653 61.8711 50.8408V47.8585C61.8711 47.809 61.8908 47.7616 61.9258 47.7265C61.9608 47.6915 62.0083 47.6719 62.0578 47.6719L72.7867 47.6852C72.815 47.6851 72.8431 47.6914 72.8686 47.7037C72.8942 47.716 72.9166 47.734 72.9342 47.7563C72.9517 47.7786 72.964 47.8046 72.97 47.8323C72.976 47.86 72.9756 47.8888 72.9689 47.9163L72.2178 50.8763C72.2078 50.917 72.1844 50.9532 72.1513 50.979C72.1183 51.0048 72.0775 51.0188 72.0355 51.0185Z" fill="currentColor"/>
<path d="M83.957 53.069C83.957 53.0278 83.9734 52.9882 84.0026 52.959C84.0318 52.9299 84.0713 52.9135 84.1126 52.9135L86.3881 52.8868C86.614 52.8844 86.8382 52.926 87.0478 53.0092C87.2574 53.0923 87.4483 53.2154 87.6097 53.3714C87.7711 53.5274 87.8997 53.7133 87.9883 53.9184C88.0769 54.1235 88.1236 54.3438 88.1259 54.5668V54.6557C88.1306 55.1059 87.9539 55.5396 87.6347 55.8614C87.3154 56.1831 86.8798 56.3665 86.4237 56.3713L84.1481 56.3979C84.1069 56.3979 84.0673 56.3815 84.0382 56.3524C84.009 56.3232 83.9926 56.2836 83.9926 56.2424L83.957 53.069ZM84.757 53.6913L84.7837 55.5313C84.7849 55.5717 84.8018 55.6102 84.8308 55.6384C84.8599 55.6666 84.8988 55.6824 84.9393 55.6824L86.3215 55.6646C86.5948 55.6609 86.8555 55.5572 87.0464 55.3763C87.2372 55.1955 87.3426 54.9523 87.3393 54.7001V54.4513C87.3376 54.3263 87.3093 54.2029 87.256 54.0881C87.2026 53.9733 87.1252 53.8694 87.0282 53.7823C86.9312 53.6952 86.8165 53.6266 86.6906 53.5805C86.5648 53.5344 86.4303 53.5116 86.2948 53.5135L84.9126 53.5313C84.8918 53.5313 84.8712 53.5354 84.852 53.5435C84.8328 53.5516 84.8155 53.5635 84.801 53.5784C84.7865 53.5933 84.7751 53.611 84.7676 53.6304C84.76 53.6498 84.7564 53.6705 84.757 53.6913Z" fill="currentColor"/>
<path d="M90.1815 56.1982C90.1819 56.2488 90.1621 56.2976 90.1265 56.3337C90.0909 56.3698 90.0424 56.3902 89.9918 56.3906L89.4407 56.3944C89.4156 56.3946 89.3907 56.3898 89.3674 56.3804C89.3442 56.371 89.323 56.357 89.3051 56.3394C89.2873 56.3218 89.273 56.3008 89.2633 56.2777C89.2535 56.2546 89.2484 56.2298 89.2482 56.2047L89.2266 53.1025C89.2262 53.0518 89.246 53.0031 89.2816 52.967C89.3172 52.9309 89.3656 52.9104 89.4163 52.9101L89.9674 52.9063C89.9925 52.9061 90.0174 52.9108 90.0406 52.9203C90.0639 52.9297 90.0851 52.9437 90.1029 52.9613C90.1208 52.9789 90.135 52.9999 90.1448 53.023C90.1546 53.0461 90.1597 53.0709 90.1599 53.096L90.1815 56.1982Z" fill="currentColor"/>
<path d="M92.5976 55.6462L94.4599 55.6817C94.5179 55.6815 94.5744 55.6645 94.6226 55.6329C94.6707 55.6014 94.7084 55.5565 94.731 55.504L94.8021 55.344C94.8821 55.1573 94.8199 55.064 94.6154 55.064H93.6999C93.5695 55.064 93.5013 55.0003 93.4954 54.8728L93.4865 54.6906C93.4853 54.6627 93.4898 54.6347 93.4998 54.6086C93.5098 54.5825 93.5251 54.5586 93.5447 54.5386C93.5643 54.5186 93.5878 54.5029 93.6137 54.4923C93.6396 54.4818 93.6674 54.4767 93.6954 54.4773L95.0554 54.4862C95.3162 54.4862 95.445 54.6166 95.4421 54.8773L95.4243 56.0017C95.4231 56.0988 95.3833 56.1915 95.3134 56.2597C95.2435 56.328 95.1492 56.3662 95.051 56.3662L92.0643 56.3884C91.6673 56.3914 91.4688 56.1928 91.4688 55.7928V53.4151C91.4688 53.0803 91.6362 52.9114 91.971 52.9084L94.8465 52.8906C95.0658 52.8906 95.248 52.9706 95.3932 53.1306C95.5739 53.3351 95.605 53.5395 95.4865 53.744C95.4539 53.7998 95.4024 53.8422 95.3412 53.8634C95.2801 53.8846 95.2134 53.8832 95.1532 53.8595C94.4184 53.5721 93.5399 53.4862 92.5176 53.6017C92.3695 53.6195 92.2954 53.704 92.2954 53.8551L92.291 55.3262C92.288 55.5336 92.3902 55.6403 92.5976 55.6462Z" fill="currentColor"/>
<path d="M97.6325 56.2156C97.6325 56.271 97.6105 56.3241 97.5714 56.3633C97.5322 56.4025 97.4791 56.4245 97.4237 56.4245H96.9081C96.8527 56.4245 96.7996 56.4025 96.7604 56.3633C96.7212 56.3241 96.6992 56.271 96.6992 56.2156V53.0956C96.6992 53.0402 96.7212 52.9871 96.7604 52.9479C96.7996 52.9087 96.8527 52.8867 96.9081 52.8867H97.4237C97.4791 52.8867 97.5322 52.9087 97.5714 52.9479C97.6105 52.9871 97.6325 53.0402 97.6325 53.0956V56.2156Z" fill="currentColor"/>
<path d="M100.997 53.7043L100.988 56.2599C100.987 56.2944 100.972 56.3272 100.947 56.3513C100.923 56.3753 100.889 56.3888 100.855 56.3887L100.312 56.3799C100.279 56.3787 100.246 56.3648 100.223 56.3409C100.199 56.3169 100.185 56.2848 100.184 56.251L100.166 53.7087C100.166 53.6741 100.152 53.6409 100.128 53.616C100.104 53.5911 100.071 53.5766 100.037 53.5754L98.7347 53.5265C98.7167 53.526 98.6991 53.5218 98.6829 53.5143C98.6666 53.5068 98.652 53.4961 98.64 53.4828C98.628 53.4695 98.6187 53.454 98.6129 53.437C98.607 53.4201 98.6046 53.4022 98.6058 53.3843L98.6369 53.0376C98.6401 53.0054 98.655 52.9754 98.6787 52.9533C98.7024 52.9312 98.7334 52.9186 98.7658 52.9176L102.392 52.9043C102.426 52.9041 102.458 52.9163 102.482 52.9385C102.507 52.9607 102.522 52.9913 102.526 53.0243L102.557 53.3754C102.558 53.3929 102.556 53.4105 102.55 53.4272C102.545 53.4438 102.536 53.4592 102.524 53.4724C102.513 53.4856 102.499 53.4964 102.483 53.5042C102.467 53.5119 102.45 53.5165 102.432 53.5176L101.126 53.571C101.091 53.5721 101.058 53.5867 101.034 53.6116C101.01 53.6364 100.997 53.6697 100.997 53.7043Z" fill="currentColor"/>
<path d="M103.643 55.8328L103.349 56.255C103.302 56.3237 103.235 56.3768 103.158 56.4077C103.08 56.4385 102.995 56.4457 102.914 56.4283L102.723 56.3928C102.548 56.3602 102.506 56.2668 102.598 56.1128L104.354 53.1794C104.41 53.0862 104.49 53.0094 104.585 52.9567C104.68 52.904 104.788 52.8772 104.897 52.879C105.006 52.8808 105.112 52.9111 105.206 52.967C105.299 53.0228 105.376 53.1022 105.429 53.1972L107.069 56.135C107.085 56.1624 107.092 56.1934 107.092 56.2248C107.091 56.2561 107.081 56.2867 107.064 56.3132C107.048 56.3396 107.024 56.361 106.996 56.375C106.968 56.3891 106.936 56.3952 106.905 56.3928L106.483 56.3661C106.296 56.3513 106.163 56.2609 106.083 56.095L105.963 55.8461C105.883 55.6831 105.751 55.6017 105.567 55.6017L104.074 55.6061C103.89 55.6091 103.746 55.6846 103.643 55.8328ZM105.269 54.9794C105.298 54.9802 105.326 54.9739 105.351 54.961C105.376 54.9481 105.398 54.929 105.414 54.9055C105.43 54.882 105.44 54.8549 105.442 54.8267C105.445 54.7984 105.441 54.7699 105.429 54.7439L105.02 53.8372C105.008 53.8093 104.988 53.7854 104.962 53.7681C104.937 53.7508 104.908 53.7406 104.877 53.7388C104.846 53.737 104.816 53.7435 104.789 53.7577C104.761 53.7719 104.739 53.7933 104.723 53.8194L104.22 54.6905C104.206 54.7159 104.198 54.7447 104.198 54.774C104.198 54.8033 104.205 54.8322 104.219 54.8577C104.234 54.8833 104.255 54.9047 104.28 54.9198C104.305 54.9349 104.333 54.9432 104.363 54.9439L105.269 54.9794Z" fill="currentColor"/>
<path d="M108.881 55.6978L111.214 55.6667C111.234 55.6661 111.253 55.6693 111.271 55.6762C111.289 55.683 111.305 55.6933 111.319 55.7065C111.333 55.7197 111.345 55.7356 111.353 55.7531C111.36 55.7707 111.365 55.7897 111.365 55.8089L111.383 56.2223C111.384 56.2423 111.381 56.2623 111.375 56.2811C111.368 56.3 111.357 56.3172 111.343 56.3318C111.33 56.3464 111.313 56.358 111.295 56.3659C111.276 56.3738 111.257 56.3779 111.236 56.3778H108.108C108.069 56.3778 108.031 56.3624 108.004 56.3349C107.976 56.3074 107.961 56.2701 107.961 56.2312V53.0223C107.961 53.0018 107.965 52.9816 107.973 52.9629C107.981 52.9442 107.993 52.9274 108.008 52.9136C108.024 52.8997 108.041 52.8892 108.061 52.8827C108.08 52.8762 108.101 52.8737 108.121 52.8756L108.561 52.9112C108.597 52.9144 108.63 52.9307 108.655 52.9569C108.679 52.9831 108.693 53.0175 108.694 53.0534L108.734 55.5512C108.734 55.5901 108.75 55.6274 108.777 55.6549C108.805 55.6824 108.842 55.6978 108.881 55.6978Z" fill="currentColor"/>
<path d="M115.953 54.0802C116.065 54.4713 116.065 54.8639 115.953 55.258C115.939 55.3049 115.936 55.3544 115.945 55.4025C115.954 55.4506 115.974 55.496 116.004 55.5352C116.034 55.5745 116.072 55.6064 116.117 55.6284C116.161 55.6505 116.21 55.6621 116.259 55.6624L117.824 55.6713C118.013 55.6713 118.111 55.5765 118.117 55.3869C118.12 55.3454 118.126 55.3024 118.135 55.258C118.143 55.2238 118.159 55.1921 118.183 55.1657C118.206 55.1393 118.235 55.1191 118.268 55.1069C118.695 54.9558 118.92 55.1291 118.944 55.6269C118.949 55.7213 118.935 55.8158 118.903 55.9048C118.871 55.9937 118.821 56.0753 118.756 56.1446C118.691 56.2139 118.613 56.2695 118.526 56.3081C118.439 56.3467 118.346 56.3674 118.25 56.3691L115.957 56.4047C115.846 56.4064 115.736 56.3863 115.634 56.3454C115.531 56.3046 115.437 56.2438 115.358 56.1665C115.278 56.0893 115.215 55.9971 115.172 55.8954C115.128 55.7936 115.105 55.6842 115.104 55.5735L115.086 53.8447C115.084 53.6049 115.175 53.3737 115.342 53.2008C115.508 53.0279 115.735 52.9272 115.975 52.9202C116.692 52.8995 117.428 52.8935 118.184 52.9024C118.328 52.903 118.469 52.9447 118.591 53.0226C118.712 53.1005 118.809 53.2112 118.869 53.3416C118.929 53.4719 118.95 53.6164 118.929 53.7576C118.909 53.8989 118.847 54.0309 118.753 54.138C118.682 54.218 118.557 54.2387 118.379 54.2002C118.316 54.1855 118.259 54.1542 118.213 54.1095C118.166 54.0649 118.133 54.0087 118.117 53.9469L118.073 53.778C118.059 53.7282 118.029 53.6844 117.988 53.6538C117.947 53.6232 117.897 53.6075 117.846 53.6091L116.273 53.6447C115.976 53.6506 115.87 53.7958 115.953 54.0802Z" fill="currentColor"/>
<path d="M125.764 55.198L125.87 56.1091C125.873 56.1355 125.871 56.1622 125.863 56.1877C125.856 56.2131 125.843 56.2368 125.826 56.2572C125.809 56.2775 125.788 56.2942 125.764 56.3062C125.74 56.3182 125.715 56.3252 125.688 56.3269L125.119 56.358C125.092 56.3598 125.065 56.356 125.039 56.3467C125.014 56.3375 124.99 56.3229 124.97 56.3041C124.951 56.2853 124.935 56.2626 124.925 56.2374C124.915 56.2122 124.91 56.1852 124.91 56.158L124.99 53.1046C124.993 53.0543 125.014 53.0068 125.051 52.9721C125.087 52.9373 125.135 52.9179 125.186 52.918L128.524 52.958C128.575 52.9591 128.623 52.9802 128.659 53.0168C128.695 53.0533 128.715 53.1024 128.715 53.1535V54.7224C128.715 54.7735 128.695 54.8226 128.659 54.8591C128.623 54.8957 128.575 54.9168 128.524 54.918L125.955 54.9802C125.927 54.9806 125.9 54.9868 125.876 54.9982C125.851 55.0097 125.829 55.0262 125.811 55.0467C125.793 55.0672 125.779 55.0913 125.771 55.1173C125.763 55.1434 125.76 55.1709 125.764 55.198ZM128.026 53.9334C128.026 53.8814 127.995 53.83 127.935 53.7819C127.876 53.7338 127.788 53.69 127.677 53.6531C127.567 53.6162 127.436 53.5868 127.291 53.5667C127.147 53.5465 126.992 53.536 126.835 53.5357C126.519 53.5352 126.216 53.5763 125.993 53.6501C125.769 53.7239 125.644 53.8243 125.644 53.9292C125.643 53.9812 125.674 54.0326 125.734 54.0807C125.794 54.1288 125.881 54.1726 125.992 54.2095C126.102 54.2465 126.234 54.2758 126.378 54.2959C126.523 54.3161 126.678 54.3266 126.834 54.3269C127.15 54.3274 127.453 54.2863 127.676 54.2125C127.9 54.1387 128.026 54.0383 128.026 53.9334Z" fill="currentColor"/>
<path d="M130.858 56.1926C130.858 56.2457 130.837 56.2966 130.799 56.3341C130.762 56.3716 130.711 56.3926 130.658 56.3926H130.231C130.178 56.3926 130.127 56.3716 130.09 56.3341C130.052 56.2966 130.031 56.2457 130.031 56.1926V53.1082C130.031 53.0552 130.052 53.0043 130.09 52.9668C130.127 52.9293 130.178 52.9082 130.231 52.9082H130.658C130.711 52.9082 130.762 52.9293 130.799 52.9668C130.837 53.0043 130.858 53.0552 130.858 53.1082V56.1926Z" fill="currentColor"/>
<path d="M134.286 53.726L134.322 56.2415C134.322 56.2604 134.319 56.2792 134.312 56.2967C134.305 56.3142 134.295 56.3302 134.282 56.3435C134.268 56.3568 134.252 56.3673 134.235 56.3742C134.217 56.3811 134.198 56.3844 134.18 56.3838L133.62 56.3749C133.583 56.3749 133.548 56.3604 133.522 56.3345C133.496 56.3087 133.482 56.2736 133.482 56.2371L133.477 53.7304C133.477 53.6946 133.464 53.6603 133.439 53.6345C133.414 53.6088 133.38 53.5938 133.344 53.5927L132.033 53.5749C132.014 53.575 131.995 53.571 131.977 53.5633C131.959 53.5555 131.943 53.5442 131.93 53.5299C131.918 53.5157 131.908 53.4989 131.902 53.4806C131.895 53.4623 131.893 53.4429 131.895 53.4238L131.922 53.0682C131.924 53.0332 131.94 53.0004 131.965 52.9765C131.991 52.9525 132.025 52.9392 132.06 52.9393L135.682 52.9082C135.716 52.9079 135.748 52.92 135.773 52.9421C135.799 52.9642 135.815 52.9948 135.82 53.0282L135.873 53.3838C135.875 53.4029 135.874 53.4224 135.868 53.4409C135.863 53.4594 135.854 53.4766 135.841 53.4912C135.828 53.5059 135.813 53.5178 135.795 53.5261C135.778 53.5343 135.759 53.5389 135.74 53.5393L134.42 53.5882C134.384 53.5894 134.35 53.6044 134.325 53.6301C134.3 53.6558 134.286 53.6902 134.286 53.726Z" fill="currentColor"/>
<path d="M137.989 53.2053C138.034 53.1287 138.095 53.0627 138.169 53.012C138.243 52.9613 138.327 52.9272 138.416 52.912C138.668 52.8646 138.865 52.9624 139.007 53.2053C139.52 54.0824 140.093 55.0453 140.727 56.0942C140.745 56.1252 140.755 56.1602 140.756 56.1961C140.757 56.2319 140.749 56.2674 140.732 56.2993C140.716 56.3312 140.692 56.3585 140.662 56.3785C140.633 56.3986 140.598 56.4109 140.563 56.4142C140.088 56.4557 139.764 56.2809 139.589 55.8898C139.552 55.8066 139.492 55.736 139.417 55.6863C139.341 55.6366 139.253 55.61 139.163 55.6098L137.678 55.6053C137.589 55.6056 137.502 55.6329 137.428 55.6836C137.355 55.7343 137.298 55.8061 137.265 55.8898C137.114 56.272 136.838 56.4557 136.438 56.4409C136.213 56.432 136.158 56.3298 136.274 56.1342L137.989 53.2053ZM138.638 53.9787C138.619 53.952 138.594 53.93 138.564 53.9144C138.535 53.8989 138.503 53.8901 138.47 53.8888C138.437 53.8876 138.404 53.8938 138.374 53.907C138.344 53.9203 138.317 53.9402 138.296 53.9653C138.103 54.1876 137.97 54.4172 137.896 54.6542C137.819 54.8942 137.908 55.0113 138.163 55.0053L138.811 54.9831C139.01 54.9772 139.078 54.8809 139.016 54.6942C138.936 54.4453 138.81 54.2068 138.638 53.9787Z" fill="currentColor"/>
<path d="M142.561 55.6908L144.85 55.7042C144.882 55.7048 144.913 55.7167 144.937 55.7378C144.962 55.7589 144.978 55.7879 144.983 55.8197L145.05 56.1975C145.053 56.2174 145.052 56.2377 145.046 56.2571C145.041 56.2764 145.031 56.2944 145.018 56.3096C145.005 56.3249 144.989 56.3371 144.97 56.3453C144.952 56.3536 144.932 56.3578 144.912 56.3575L141.73 56.3753C141.693 56.3753 141.658 56.3608 141.632 56.3349C141.607 56.3091 141.592 56.274 141.592 56.2375L141.574 53.0731C141.574 53.0546 141.577 53.0362 141.583 53.019C141.59 53.0017 141.6 52.986 141.613 52.9727C141.626 52.9595 141.641 52.9489 141.658 52.9417C141.675 52.9345 141.694 52.9308 141.712 52.9308L142.272 52.9219C142.291 52.9214 142.309 52.9245 142.326 52.9311C142.343 52.9378 142.359 52.9478 142.372 52.9607C142.386 52.9735 142.396 52.9889 142.403 53.006C142.411 53.023 142.414 53.0413 142.414 53.0597L142.423 55.5531C142.423 55.5712 142.427 55.5891 142.434 55.6058C142.441 55.6225 142.451 55.6377 142.464 55.6505C142.476 55.6633 142.492 55.6734 142.508 55.6803C142.525 55.6873 142.543 55.6908 142.561 55.6908Z" fill="currentColor"/>
<path d="M122.516 55.6106L121.103 55.6018C121.009 55.6015 120.917 55.6287 120.838 55.68C120.759 55.7313 120.697 55.8044 120.658 55.8906C120.492 56.264 120.193 56.4388 119.76 56.4151C119.529 56.4003 119.473 56.2951 119.592 56.0995L121.312 53.2329C121.366 53.1419 121.443 53.0666 121.535 53.0144C121.627 52.9623 121.731 52.9351 121.837 52.9356C121.943 52.936 122.047 52.9641 122.139 53.017C122.231 53.0699 122.307 53.1459 122.36 53.2373L124.032 56.1129C124.165 56.3381 124.1 56.4506 123.836 56.4506C123.427 56.4506 123.137 56.2669 122.965 55.8995C122.876 55.7099 122.726 55.6136 122.516 55.6106ZM121.712 53.8773C121.507 54.1114 121.347 54.3632 121.232 54.6329C121.128 54.8758 121.208 54.9943 121.472 54.9884L122.143 54.9706C122.4 54.9647 122.469 54.8477 122.347 54.6195L121.956 53.904C121.888 53.7795 121.806 53.7706 121.712 53.8773Z" fill="currentColor"/>
</svg>
