<svg viewBox="0 0 576 100" fill="none" xmlns="http://www.w3.org/2000/svg">
<path d="M448.484 59.9159C448.481 61.4605 447.823 62.9407 446.654 64.0309C445.485 65.121 443.901 65.7319 442.251 65.729C441.434 65.7276 440.625 65.5755 439.871 65.2815C439.116 64.9875 438.431 64.5573 437.854 64.0155C437.277 63.4737 436.82 62.8309 436.509 62.1237C436.197 61.4166 436.038 60.659 436.039 59.8942C436.042 58.3496 436.7 56.8694 437.869 55.7792C439.038 54.689 440.621 54.0782 442.272 54.0811C443.089 54.0825 443.897 54.2345 444.652 54.5285C445.406 54.8225 446.092 55.2527 446.668 55.7945C447.245 56.3363 447.702 56.9792 448.014 57.6863C448.325 58.3935 448.485 59.1511 448.484 59.9159Z" fill="currentColor"/>
<path d="M363.516 56.0323L371.11 31.4922C371.32 30.816 371.777 30.4814 372.483 30.4884L379.491 30.4988C380.336 30.4988 380.608 30.8927 380.308 31.6804L367.989 63.9474C367.872 64.255 367.664 64.5197 367.393 64.7065C367.121 64.8933 366.799 64.9932 366.47 64.993L359.724 65.0035C359.375 65.0035 359.137 64.8396 359.011 64.512L346.012 30.572C345.991 30.5163 346.012 30.4884 346.075 30.4884L354.999 30.4988C355.223 30.4988 355.366 30.6069 355.429 30.823L363.317 56.0323C363.387 56.2414 363.453 56.2414 363.516 56.0323Z" fill="currentColor"/>
<path d="M236.852 52.4182C237.02 54.2793 237.271 54.2898 237.606 52.4495L241.492 31.1822C241.576 30.7081 241.859 30.4746 242.341 30.4816L246.971 30.5234C247.439 30.5304 247.715 30.7639 247.799 31.224C248.944 37.8391 250.142 44.4507 251.392 51.0589C251.524 51.7908 251.524 52.5262 251.392 53.2651C251.301 53.774 251.392 53.8088 251.664 53.3697C252.006 52.805 252.219 52.1846 252.303 51.5085C253.211 44.3566 254.087 37.4313 254.932 30.7325C254.953 30.5722 255.044 30.4921 255.205 30.4921H262.82C263.044 30.4921 263.138 30.6001 263.103 30.8162L257.027 64.4007C256.957 64.798 256.72 64.9967 256.315 64.9967L249.642 65.0071C249.251 65.0071 249.017 64.8154 248.94 64.432L245.19 45.925C244.778 43.9105 244.373 43.9105 243.975 45.925L240.277 64.4007C240.201 64.798 239.96 64.9967 239.555 64.9967H232.903C232.519 64.9967 232.295 64.8119 232.232 64.4425L226.188 30.9521C226.132 30.6384 226.265 30.4816 226.586 30.4816L233.73 30.4921C234.038 30.4921 234.212 30.6454 234.254 30.9521C235.378 38.4246 236.244 45.58 236.852 52.4182Z" fill="currentColor"/>
<path d="M497.814 50.6566C497.835 52.5843 497.474 54.4972 496.754 56.2859C496.033 58.0746 494.967 59.7041 493.616 61.0815C492.265 62.4589 490.655 63.5571 488.878 64.3135C487.102 65.0699 485.193 65.4695 483.262 65.4897L480.601 65.5175C478.67 65.5377 476.754 65.178 474.962 64.459C473.17 63.7399 471.537 62.6756 470.157 61.3268C468.777 59.978 467.677 58.371 466.919 56.5978C466.162 54.8245 465.761 52.9197 465.741 50.9919L465.677 44.8442C465.656 42.9164 466.017 41.0036 466.737 39.2149C467.457 37.4262 468.524 35.7966 469.875 34.4192C471.226 33.0419 472.836 31.9436 474.613 31.1873C476.389 30.4309 478.298 30.0312 480.229 30.011L482.889 29.9832C484.821 29.963 486.737 30.3227 488.529 31.0418C490.321 31.7608 491.954 32.8252 493.334 34.174C494.714 35.5228 495.814 37.1297 496.572 38.903C497.329 40.6762 497.73 42.5811 497.75 44.5088L497.814 50.6566ZM488.46 52.9261C489.654 48.5764 489.581 38.5596 483.642 37.3572C474.015 35.3915 473.376 46.6107 475.062 52.9679C477.042 60.3812 486.438 60.2661 488.46 52.9261Z" fill="currentColor"/>
<path d="M329.051 43.1935C329.373 38.8578 327.33 36.6167 322.923 36.4703C319.865 36.3658 318.087 37.603 317.591 40.1822C317.529 40.5168 317.326 40.6841 316.984 40.6841L309.4 40.6632C309.302 40.6634 309.206 40.6421 309.118 40.6008C309.03 40.5594 308.952 40.4991 308.89 40.4241C308.827 40.3492 308.783 40.2614 308.759 40.1671C308.735 40.0729 308.732 39.9745 308.75 39.879C310.584 29.9144 322.452 28.2415 330.549 31.211C335.417 32.9955 337.871 36.5644 337.913 41.9179C337.948 47.0343 337.997 52.1089 338.06 57.1417C338.095 59.8184 338.538 62.1989 339.39 64.2831C339.579 64.7432 339.425 64.9732 338.929 64.9732L331.125 65.0046C330.56 65.0116 330.207 64.7432 330.067 64.1995L329.648 62.5788C329.53 62.1188 329.285 62.0351 328.915 62.3279C323.999 66.2663 318.545 66.6845 312.553 63.5826C310.395 62.4638 308.488 59.4211 308.164 56.9326C306.551 44.5632 319.194 43.5804 328.287 43.8731C328.479 43.8792 328.666 43.8118 328.808 43.6851C328.951 43.5584 329.038 43.3822 329.051 43.1935ZM328.549 49.2893C326.782 49.2823 325.011 49.3242 323.238 49.4148C319.655 49.5925 317.717 50.1781 316.911 53.754C315.235 61.1045 329.146 59.4316 329.051 54.465C329.023 52.9454 329.044 51.4153 329.114 49.8748C329.128 49.4845 328.94 49.2893 328.549 49.2893Z" fill="currentColor"/>
<path d="M100.017 50.0632C100.017 63.3019 94.7487 75.9984 85.3703 85.3596C75.9918 94.7208 63.2719 99.9798 50.0087 99.9798C36.7456 99.9798 24.0257 94.7208 14.6472 85.3596C5.26876 75.9984 0 63.3019 0 50.0632C0 36.8244 5.26876 24.1279 14.6472 14.7667C24.0257 5.40555 36.7456 0.146484 50.0087 0.146484C63.2719 0.146484 75.9918 5.40555 85.3703 14.7667C94.7487 24.1279 100.017 36.8244 100.017 50.0632ZM92.161 50.0736C92.161 44.5483 91.0708 39.0771 88.9524 33.9723C86.8341 28.8676 83.7291 24.2293 79.8149 20.3223C75.9007 16.4153 71.2539 13.3161 66.1397 11.2016C61.0256 9.08719 55.5443 7.9989 50.0087 7.9989C38.8293 7.9989 28.1076 12.4318 20.2026 20.3223C12.2975 28.2128 7.85642 38.9147 7.85642 50.0736C7.85642 61.2325 12.2975 71.9344 20.2026 79.8249C28.1076 87.7155 38.8293 92.1483 50.0087 92.1483C55.5443 92.1483 61.0256 91.06 66.1397 88.9456C71.2539 86.8311 75.9007 83.7319 79.8149 79.8249C83.7291 75.9179 86.8341 71.2797 88.9524 66.1749C91.0708 61.0702 92.161 55.5989 92.161 50.0736Z" fill="currentColor"/>
<path d="M57.1731 43.9228C57.5014 40.1238 56.1466 37.8514 53.1087 37.1056C50.9299 36.5619 48.7371 36.7919 46.5303 37.7957C46.1602 37.9629 45.9227 38.2383 45.818 38.6217L45.3361 40.441C45.2034 40.9359 44.8787 41.1869 44.3619 41.1938L36.7045 41.2043C36.1947 41.2043 35.9748 40.9533 36.0446 40.4515C37.4692 30.3301 48.9606 28.5108 57.1103 30.6961C63.6189 32.4387 66.8034 36.9104 66.6637 44.111C66.545 49.7363 66.5939 55.6823 66.8103 61.9489C66.8627 63.3813 67.3969 64.3015 68.0674 65.5039C68.1228 65.6035 68.1518 65.7155 68.1517 65.8294C68.1515 65.9433 68.1223 66.0553 68.0667 66.1548C68.0111 66.2543 67.931 66.3379 67.834 66.3978C67.7369 66.4578 67.6262 66.492 67.5122 66.4972C65.0191 66.5878 62.4701 66.6122 59.8653 66.5704C58.3708 66.5425 57.7597 65.7305 58.0321 64.1342C58.0455 64.0513 58.0337 63.9663 57.9981 63.8902C57.9624 63.8142 57.9047 63.7506 57.8324 63.7077C57.7601 63.6649 57.6765 63.6447 57.5926 63.6499C57.5086 63.6551 57.4281 63.6854 57.3617 63.7369C52.7805 67.4313 47.5429 68.2155 41.6488 66.0894C39.7633 65.4098 36.5055 62.4717 35.9189 60.5164C34.0194 54.1592 35.8002 49.5272 41.2613 46.6205C45.8389 44.1842 51.4327 44.5711 56.4084 44.6129C56.8763 44.6199 57.1312 44.3899 57.1731 43.9228ZM46.017 58.9271C48.353 61.217 53.7687 59.7427 55.8742 57.9024C57.8226 56.2086 57.1417 53.145 57.2255 50.8028C57.2395 50.3498 57.023 50.1128 56.576 50.0918C51.5584 49.8514 43.5868 49.9455 44.5609 57.1287C44.6762 58.0279 45.4514 58.3729 46.017 58.9271Z" fill="currentColor"/>
<path d="M204.41 35.2112L205.625 33.6324C205.841 33.3466 206.103 33.1096 206.41 32.9214C208.464 31.6736 210.321 30.7953 211.983 30.2865C213.946 29.687 216.802 29.6731 220.552 30.2447C221.418 30.3771 221.785 30.8755 221.652 31.7399L220.615 38.3166C220.468 39.2437 219.941 39.5888 219.033 39.3518C215.8 38.5153 212.741 38.4561 209.857 39.174C207.395 39.7909 203.823 42.4467 203.833 45.3849C203.868 51.756 203.879 58.1934 203.865 64.697C203.865 64.8852 203.771 64.9793 203.582 64.9793L195.233 65.0107C195.198 65.0121 195.163 65.0061 195.13 64.9931C195.097 64.98 195.067 64.9602 195.041 64.9348C195.016 64.9095 194.996 64.879 194.982 64.8453C194.968 64.8116 194.961 64.7754 194.961 64.7388V31.5307C194.961 30.8337 195.31 30.4851 196.008 30.4851L202.597 30.4956C203.324 30.4956 203.62 30.8511 203.488 31.5621C203.299 32.538 203.366 33.7021 203.687 35.0544C203.819 35.626 204.06 35.6783 204.41 35.2112Z" fill="currentColor"/>
<path d="M171.115 62.2105C170.354 62.6427 169.69 63.1968 169.125 63.873C168.824 64.2351 168.428 64.5035 167.983 64.6467C161.352 66.7902 151.872 65.4309 150.301 57.1185C149.044 50.4162 153.778 45.3973 160.21 44.4563C163.611 43.9614 167.096 43.7488 170.665 43.8185C171.146 43.8324 171.384 43.5954 171.377 43.1075C171.272 36.7294 166.998 35.5792 161.698 37.0326C161.328 37.1302 161.027 37.3358 160.797 37.6495C160.308 38.2978 159.976 39.0332 159.802 39.8557C159.69 40.3994 159.355 40.6713 158.796 40.6713L151.642 40.6608C151.006 40.6608 150.748 40.3506 150.866 39.7302C151.502 36.2728 153.377 33.7181 156.492 32.066C162.33 28.9641 168.507 29.0686 175.022 32.3797C178.298 34.0387 180.012 37.2243 180.166 41.9364C180.354 47.8893 180.375 53.8248 180.228 59.7429C180.215 60.2788 180.33 60.8095 180.564 61.2904C181.046 62.3011 181.342 63.3188 181.454 64.3435C181.503 64.7827 181.307 65.0022 180.867 65.0022L173.021 64.9918C172.54 64.9918 172.25 64.7548 172.152 64.2808L171.806 62.5346C171.723 62.1094 171.492 62.0014 171.115 62.2105ZM159.278 56.1983C160.64 59.5233 165.553 59.1365 168.151 57.7876C172.309 55.6337 171.387 54.1176 171.408 50.0189C171.408 49.5937 171.195 49.3671 170.769 49.3392C167.683 49.1162 165.043 49.3009 162.85 49.8934C160.294 50.5835 158.157 53.4589 159.278 56.1983Z" fill="currentColor"/>
<path d="M566.506 62.4619C564.383 64.581 561.893 65.6684 559.037 65.7241C555.552 65.7799 552.598 64.6925 550.175 62.4619C547.822 60.301 546.268 57.6766 545.514 54.5886C543.136 44.8332 545.304 31.115 557.434 29.8916C561.289 29.5048 564.128 30.6026 566.946 32.9238C567.015 32.9804 567.097 33.0176 567.185 33.0319C567.273 33.0461 567.363 33.0368 567.446 33.0049C567.529 32.973 567.602 32.9197 567.658 32.8503C567.714 32.7809 567.75 32.6981 567.763 32.6102L567.993 31.0418C568.042 30.6793 568.252 30.4981 568.622 30.4981H575.462C575.818 30.4981 575.996 30.6723 575.996 31.0209C576.003 42.9546 575.989 54.3132 575.955 65.0968C575.948 68.0244 575.026 70.6419 573.189 72.9492C566.789 81.0003 554.051 79.9756 546.823 73.587C546.718 73.4964 546.704 73.3918 546.781 73.2733C547.989 71.2937 549.323 69.4918 550.783 67.8676C550.79 67.8587 550.8 67.8516 550.811 67.8467C550.822 67.8418 550.834 67.8393 550.845 67.8393C550.857 67.8393 550.869 67.8418 550.88 67.8467C550.891 67.8516 550.9 67.8587 550.908 67.8676C554.393 71.3181 558.112 72.4369 562.064 71.224C565.801 70.0808 567.466 67.2263 567.061 62.6605C567.019 62.2005 566.834 62.1343 566.506 62.4619ZM554.847 41.2677C553.073 45.8892 553.147 50.3609 555.067 54.6827C557.246 59.597 563.845 59.5447 566.768 55.4564C566.977 55.1636 567.082 54.8395 567.082 54.484V40.9854C567.082 40.5811 566.953 40.2221 566.694 39.9084C563.269 35.8724 556.869 35.9874 554.847 41.2677Z" fill="currentColor"/>
<path d="M519.992 35.4647C524.314 30.167 530.051 28.5533 537.202 30.6235C537.363 30.6723 537.433 30.7804 537.412 30.9477L536.27 39.1451C536.265 39.1928 536.251 39.2389 536.227 39.2805C536.202 39.3221 536.17 39.3583 536.13 39.3868C536.091 39.4153 536.046 39.4355 535.998 39.4461C535.95 39.4567 535.9 39.4575 535.851 39.4484C528.588 38.0333 523.742 38.699 521.312 41.4455C520.096 42.8117 519.527 45.0841 519.604 48.2627C519.751 54.125 519.754 59.475 519.615 64.3126C519.601 64.7587 519.37 64.9818 518.923 64.9818L511.433 65.0027C510.993 65.0027 510.773 64.7831 510.773 64.344V31.3973C510.773 30.7908 511.081 30.4876 511.695 30.4876H518.054C518.717 30.4876 519.066 30.8187 519.101 31.4809L519.279 35.2346C519.307 35.9317 519.545 36.0084 519.992 35.4647Z" fill="currentColor"/>
<path d="M395.862 51.2442C397.189 56.2491 400.632 58.633 406.191 58.396C409.564 58.2497 412.043 57.089 413.628 54.9142C413.664 54.8634 413.711 54.8214 413.766 54.791C413.82 54.7607 413.881 54.7429 413.943 54.7389C414.005 54.7349 414.068 54.7448 414.126 54.7679C414.183 54.791 414.235 54.8267 414.278 54.8724C415.884 56.615 417.207 58.0475 418.248 59.1698C418.464 59.4068 418.464 59.6438 418.248 59.8808C414.526 63.9237 409.578 65.8337 403.404 65.6106C396.218 65.3597 389.745 61.3446 387.681 54.496C385.586 47.5741 386.665 39.2408 392.248 34.1173C394.399 32.1447 396.676 30.869 399.078 30.2905C404.232 29.0427 409.061 29.9594 413.565 33.0404C414.459 33.6538 415.154 34.4136 415.65 35.3198C416.373 36.6372 417.431 37.2018 417.913 38.7807C419.009 42.3566 419.494 46.1417 419.369 50.1358C419.362 50.4565 419.198 50.6168 418.876 50.6168L396.355 50.6064C395.915 50.6064 395.751 50.819 395.862 51.2442ZM396.564 44.3537L410.454 44.3328C410.499 44.3328 410.541 44.3152 410.573 44.2838C410.604 44.2524 410.622 44.2099 410.622 44.1655V44.0819C410.621 43.1637 410.436 42.2549 410.078 41.4073C409.72 40.5598 409.196 39.7901 408.537 39.1424C407.877 38.4946 407.095 37.9815 406.234 37.6324C405.373 37.2833 404.451 37.105 403.52 37.1077H403.457C401.581 37.1133 399.783 37.853 398.46 39.1646C397.136 40.4761 396.394 42.2522 396.397 44.1028V44.1864C396.397 44.2308 396.414 44.2733 396.446 44.3047C396.477 44.3361 396.52 44.3537 396.564 44.3537Z" fill="currentColor"/>
<path d="M277.529 51.1318C278.42 57.2172 284.506 59.2874 290.068 58.085C291.084 57.8654 292.153 56.8407 293.001 56.893C293.413 56.9209 293.748 56.771 294.007 56.4434L295.065 55.1051C295.372 54.7147 295.697 54.7042 296.039 55.0737L299.747 59.0888C300.02 59.3885 300.027 59.6952 299.768 60.0089C299.251 60.6363 298.654 61.1974 297.977 61.6923C293.528 65.0173 288.518 66.2685 282.945 65.446C276.23 64.4527 270.825 60.2807 269.086 53.819C267.452 47.765 268.269 39.9544 272.857 35.1447C277.878 29.8749 283.828 28.4354 290.707 30.8264C299.674 33.9318 301.088 41.6587 301.025 50.0967C301.025 50.4452 300.851 50.6195 300.501 50.6195L277.98 50.609C277.631 50.609 277.48 50.7833 277.529 51.1318ZM278.095 44.3563L292.027 44.3354C292.074 44.3354 292.12 44.3167 292.153 44.2834C292.186 44.25 292.205 44.2048 292.205 44.1577V44.0636C292.204 43.1455 292.019 42.2366 291.661 41.3891C291.303 40.5415 290.78 39.7718 290.12 39.1241C289.46 38.4763 288.678 37.9632 287.817 37.6141C286.956 37.265 286.034 37.0867 285.103 37.0895H284.977C283.101 37.095 281.304 37.8348 279.98 39.1463C278.656 40.4578 277.914 42.2339 277.917 44.0845V44.1786C277.917 44.2257 277.936 44.2709 277.969 44.3043C278.002 44.3376 278.048 44.3563 278.095 44.3563Z" fill="currentColor"/>
</svg>
