<svg viewBox="0 0 463 125" fill="none" xmlns="http://www.w3.org/2000/svg">
<path d="M47.5475 77.2488C55.5538 77.3173 63.349 77.3059 70.933 77.2146C71.0091 77.2134 71.0845 77.2276 71.1551 77.2564C71.2257 77.2851 71.2899 77.3278 71.3441 77.382C71.3982 77.4361 71.4412 77.5007 71.4706 77.5719C71.5 77.643 71.5151 77.7195 71.5151 77.7966C71.4752 80.8896 71.478 84.1538 71.5237 87.5891C71.7291 102.663 64.1707 115.315 50.6633 121.572C30.7444 130.799 8.15494 119.363 2.28287 98.5201C0.339778 91.6123 1.07592 82.8213 1.11016 75.4598C1.11872 73.7563 1.47824 71.3082 1.97471 69.7589C5.64404 58.2487 13.1767 51.2752 24.5728 48.8385C26.2048 48.4904 26.1849 48.3163 24.5129 48.3163L1.67512 48.3848C1.24712 48.3848 1.03313 48.1708 1.03313 47.7428C1.07307 44.2675 1.07593 40.855 1.04169 37.5052C0.930411 25.0677 6.33168 14.0768 16.535 7.04053C37.1387 -7.17746 64.1793 4.25856 70.3766 27.6442C71.1813 30.6744 71.5693 34.5092 71.5408 39.1487C71.4894 46.5016 72.1571 53.6834 68.8701 60.4543C64.4932 69.465 57.3742 74.9433 47.5132 76.8893C46.3719 77.1175 46.3833 77.2374 47.5475 77.2488ZM42.831 31.3506C42.831 29.7115 42.1798 28.1396 41.0208 26.9805C39.8618 25.8215 38.2898 25.1704 36.6507 25.1704H35.7948C34.1557 25.1704 32.5837 25.8215 31.4247 26.9805C30.2657 28.1396 29.6145 29.7115 29.6145 31.3506V94.3686C29.6145 96.0077 30.2657 97.5796 31.4247 98.7387C32.5837 99.8977 34.1557 100.549 35.7948 100.549H36.6507C38.2898 100.549 39.8618 99.8977 41.0208 98.7387C42.1798 97.5796 42.831 96.0077 42.831 94.3686V31.3506Z" fill="currentColor"/>
<path d="M120.925 78.8154L139.337 78.764C139.46 78.764 139.577 78.8127 139.664 78.8994C139.75 78.9861 139.799 79.1036 139.799 79.2262L139.842 87.906C139.842 88.0286 139.793 88.1461 139.707 88.2328C139.62 88.3195 139.502 88.3682 139.38 88.3682H110.85C110.727 88.3682 110.61 88.3195 110.523 88.2328C110.436 88.1461 110.387 88.0286 110.387 87.906L110.379 37.5823C110.379 37.4598 110.428 37.3422 110.514 37.2555C110.601 37.1688 110.719 37.1201 110.841 37.1201L119.992 37.1715C120.114 37.1715 120.232 37.2202 120.318 37.3069C120.405 37.3935 120.454 37.5111 120.454 37.6337L120.462 78.3531C120.462 78.4757 120.511 78.5933 120.598 78.68C120.684 78.7667 120.802 78.8154 120.925 78.8154Z" fill="currentColor"/>
<path d="M335.236 79.1396L335.322 87.9392C335.322 88.055 335.276 88.166 335.194 88.2479C335.112 88.3298 335.001 88.3757 334.885 88.3757L301.382 88.3672C301.266 88.3672 301.155 88.3212 301.073 88.2393C300.991 88.1574 300.945 88.0464 300.945 87.9306L301.014 80.3637C301.014 80.2817 301.038 80.2016 301.082 80.1325L321.789 47.4166C321.83 47.3507 321.853 47.275 321.855 47.1973C321.857 47.1196 321.838 47.0428 321.801 46.9748C321.763 46.9067 321.708 46.8499 321.641 46.8102C321.574 46.7705 321.498 46.7494 321.421 46.749L301.955 46.7661C301.84 46.7661 301.729 46.7201 301.647 46.6382C301.565 46.5564 301.519 46.4453 301.519 46.3295L301.544 37.5899C301.544 37.4741 301.59 37.3631 301.672 37.2812C301.754 37.1993 301.865 37.1533 301.981 37.1533L334.406 37.179C334.464 37.179 334.521 37.1906 334.575 37.213C334.628 37.2355 334.677 37.2684 334.718 37.3099C334.758 37.3513 334.79 37.4005 334.812 37.4544C334.833 37.5084 334.844 37.5661 334.842 37.6241L334.748 45.1654C334.746 45.2444 334.722 45.3213 334.68 45.3879L314.05 78.0953C314.009 78.1619 313.986 78.2383 313.984 78.3168C313.983 78.3952 314.002 78.4726 314.041 78.5409C314.079 78.6093 314.135 78.6659 314.203 78.705C314.271 78.7441 314.349 78.7641 314.427 78.763L334.8 78.7031C334.915 78.7031 335.026 78.7491 335.108 78.8309C335.19 78.9128 335.236 79.0238 335.236 79.1396Z" fill="currentColor"/>
<path d="M171.999 55.0198L171.776 52.469C171.736 51.9896 171.956 51.7499 172.435 51.7499L180.764 51.7414C181.129 51.7414 181.312 51.9211 181.312 52.2806L181.337 88.0096C181.339 88.0587 181.33 88.1075 181.312 88.1531C181.294 88.1988 181.267 88.2404 181.233 88.2755C181.198 88.3106 181.157 88.3384 181.112 88.3575C181.067 88.3765 181.018 88.3863 180.969 88.3863L172.384 88.3948C172.304 88.3951 172.224 88.3786 172.151 88.3463C172.077 88.3141 172.011 88.2667 171.956 88.2072C171.902 88.1478 171.86 88.0775 171.833 88.0007C171.807 87.924 171.796 87.8425 171.802 87.7614L172.007 85.2191C172.07 84.4259 171.825 84.3118 171.271 84.8767C168.19 88.0268 164.343 89.5247 159.732 89.3707C141.491 88.7886 136.663 63.8279 150.342 53.8813C156.522 49.3788 165.639 49.6014 171.34 55.328C171.836 55.8301 172.056 55.7274 171.999 55.0198ZM160.558 80.4312C161.876 80.5955 163.215 80.4905 164.498 80.1223C165.781 79.7541 166.983 79.1299 168.035 78.2853C169.087 77.4407 169.968 76.3923 170.629 75.1999C171.29 74.0075 171.718 72.6945 171.887 71.3358C172.056 69.9772 171.964 68.5994 171.616 67.2814C171.268 65.9633 170.67 64.7306 169.857 63.6538C169.045 62.5769 168.033 61.677 166.879 61.0053C165.726 60.3337 164.454 59.9034 163.135 59.7392C161.817 59.575 160.478 59.68 159.195 60.0482C157.912 60.4164 156.71 61.0406 155.658 61.8852C154.606 62.7298 153.725 63.7782 153.064 64.9706C152.403 66.163 151.976 67.476 151.806 68.8346C151.637 70.1933 151.729 71.571 152.078 72.8891C152.426 74.2072 153.023 75.4398 153.836 76.5167C154.649 77.5935 155.66 78.4934 156.814 79.1651C157.967 79.8368 159.239 80.267 160.558 80.4312Z" fill="currentColor"/>
<path d="M235.31 73.9954C234.608 73.9954 234.403 74.315 234.694 74.9541C236.851 79.6792 240.446 80.9974 245.368 80.8519C248.101 80.7777 250.438 79.7305 252.378 77.7104C252.513 77.5691 252.691 77.4772 252.885 77.4492C253.079 77.4213 253.277 77.459 253.448 77.5563L260.005 81.3312C260.059 81.3609 260.106 81.402 260.142 81.4518C260.178 81.5017 260.204 81.559 260.216 81.6199C260.228 81.6808 260.227 81.7439 260.213 81.8049C260.198 81.8659 260.172 81.9233 260.134 81.9732C257.217 85.8765 253.437 88.2191 248.792 89.0009C239.71 90.5245 230.585 87.5628 226.622 78.7889C223.335 71.513 223.968 64.6423 228.522 58.1767C231.455 53.9995 235.575 51.6055 240.882 50.9949C249.785 49.9678 256.23 53.3489 260.219 61.1384C262.108 64.8192 262.673 68.9422 261.914 73.5075C261.89 73.6486 261.817 73.7766 261.709 73.869C261.601 73.9614 261.465 74.0122 261.323 74.0125L235.31 73.9954ZM234.668 66.6339L252.472 66.5996C252.5 66.5996 252.526 66.5888 252.545 66.5696C252.564 66.5503 252.575 66.5242 252.575 66.4969V66.4627C252.573 65.5227 252.341 64.5925 251.891 63.725C251.441 62.8575 250.783 62.0698 249.954 61.4068C249.125 60.7439 248.141 60.2187 247.059 59.8613C245.977 59.5038 244.818 59.3212 243.647 59.3237H243.459C241.096 59.3288 238.832 60.0874 237.164 61.4325C235.496 62.7777 234.561 64.5994 234.565 66.4969V66.5312C234.565 66.5584 234.576 66.5845 234.595 66.6038C234.615 66.623 234.641 66.6339 234.668 66.6339Z" fill="currentColor"/>
<path d="M348.502 73.9885C348.443 73.988 348.385 74.0017 348.332 74.0283C348.28 74.055 348.234 74.0938 348.2 74.1416C348.166 74.1894 348.143 74.2448 348.135 74.303C348.126 74.3613 348.132 74.4207 348.151 74.4764C350.351 80.8022 357.644 82.1717 363.054 79.8948C364.286 79.3812 365.194 78.3968 366.221 77.5665C366.334 77.4762 366.473 77.4229 366.618 77.4137C366.763 77.4045 366.908 77.4399 367.034 77.5152L373.642 81.3843C373.688 81.4111 373.727 81.4471 373.757 81.49C373.788 81.5329 373.809 81.5818 373.82 81.6334C373.83 81.6851 373.83 81.7383 373.818 81.7898C373.807 81.8412 373.785 81.8897 373.753 81.9321C368.455 89.0197 359.869 90.706 351.678 88.5403C345.609 86.9311 341.269 82.4885 339.309 76.625C335.636 65.6084 341.611 53.0253 353.689 51.1079C361.176 49.9209 367.122 52.0381 371.528 57.4593C375.303 62.1159 376.262 67.6542 375.517 73.5776C375.477 73.8687 375.311 74.0142 375.02 74.0142L348.502 73.9885ZM348.262 66.6184H366.084C366.109 66.6184 366.133 66.6085 366.15 66.5908C366.168 66.5732 366.178 66.5492 366.178 66.5243V66.4815C366.178 64.5836 365.239 62.7634 363.568 61.4214C361.897 60.0793 359.63 59.3254 357.267 59.3254H357.079C354.716 59.3254 352.449 60.0793 350.778 61.4214C349.107 62.7634 348.168 64.5836 348.168 66.4815V66.5243C348.168 66.5492 348.178 66.5732 348.196 66.5908C348.213 66.6085 348.237 66.6184 348.262 66.6184Z" fill="currentColor"/>
<path d="M443.422 69.9387C443.422 75.0058 441.409 79.8654 437.826 83.4485C434.243 87.0315 429.384 89.0444 424.317 89.0444C419.249 89.0444 414.39 87.0315 410.807 83.4485C407.224 79.8654 405.211 75.0058 405.211 69.9387C405.211 64.8716 407.224 60.0119 410.807 56.4289C414.39 52.8459 419.249 50.833 424.317 50.833C429.384 50.833 434.243 52.8459 437.826 56.4289C441.409 60.0119 443.422 64.8716 443.422 69.9387ZM423.959 80.2861C425.256 80.3087 426.545 80.0675 427.752 79.5761C428.959 79.0848 430.061 78.3529 430.995 77.4224C431.928 76.4919 432.676 75.3809 433.193 74.1528C433.711 72.9248 433.99 71.6038 434.013 70.2652C434.061 67.5617 433.065 64.9509 431.246 63.007C429.428 61.063 426.934 59.9452 424.315 59.8995C423.018 59.8768 421.729 60.1181 420.522 60.6094C419.314 61.1008 418.213 61.8326 417.279 62.7631C416.345 63.6937 415.598 64.8047 415.08 66.0327C414.562 67.2607 414.284 68.5818 414.26 69.9204C414.213 72.6238 415.208 75.2346 417.027 77.1786C418.846 79.1225 421.339 80.2403 423.959 80.2861Z" fill="currentColor"/>
<path d="M278.125 56.7811C278.114 57.4773 278.274 57.5201 278.605 56.9095C280.619 53.2288 283.926 51.2857 288.526 51.0803C288.891 51.0631 289.073 51.2372 289.073 51.6024L289.116 61.0611C289.116 61.1222 289.104 61.1827 289.079 61.2387C289.055 61.2946 289.019 61.3448 288.974 61.386C288.928 61.4271 288.875 61.4583 288.817 61.4776C288.759 61.4968 288.698 61.5036 288.637 61.4976C283.467 61.121 278.339 63.98 278.219 69.7408C278.105 75.0708 278.1 81.1084 278.202 87.8536C278.203 87.9217 278.191 87.9894 278.166 88.0527C278.14 88.116 278.103 88.1737 278.055 88.2223C278.007 88.2709 277.95 88.3095 277.887 88.3358C277.824 88.3622 277.757 88.3757 277.689 88.3757L269.343 88.3843C268.938 88.3843 268.735 88.1845 268.735 87.7851L268.727 52.193C268.727 51.8678 268.889 51.7051 269.214 51.7051L277.475 51.7394C277.966 51.7451 278.205 51.9905 278.194 52.4755L278.125 56.7811Z" fill="currentColor"/>
<path d="M391.703 56.353C391.669 57.2433 391.883 57.3089 392.345 56.5499C394.508 53.0289 397.867 51.2171 402.42 51.1144C402.463 51.1132 402.505 51.1204 402.544 51.1353C402.584 51.1503 402.62 51.1728 402.65 51.2015C402.68 51.2303 402.704 51.2646 402.721 51.3026C402.737 51.3406 402.746 51.3813 402.746 51.4225L402.754 61.0353C402.754 61.1012 402.741 61.1665 402.715 61.227C402.689 61.2875 402.65 61.342 402.602 61.387C402.554 61.4319 402.497 61.4665 402.435 61.4885C402.372 61.5105 402.306 61.5194 402.241 61.5147C396.437 61.0524 391.712 64.4336 391.746 70.5453C391.775 76.5259 391.78 82.3152 391.763 87.9134C391.763 88.0337 391.716 88.1491 391.63 88.2342C391.545 88.3192 391.43 88.3671 391.31 88.3671L382.733 88.3927C382.621 88.3927 382.515 88.3476 382.436 88.2674C382.357 88.1871 382.313 88.0783 382.313 87.9647L382.305 52.2357C382.305 51.899 382.473 51.7307 382.81 51.7307L391.113 51.7221C391.212 51.7221 391.31 51.7418 391.401 51.78C391.492 51.8181 391.574 51.874 391.643 51.9443C391.711 52.0147 391.765 52.0979 391.8 52.1891C391.836 52.2804 391.852 52.3777 391.849 52.4754L391.703 56.353Z" fill="currentColor"/>
<path d="M205.685 75.6825L213.389 52.0572C213.463 51.8347 213.617 51.7234 213.851 51.7234L223.079 51.7405C223.127 51.7399 223.175 51.7512 223.218 51.7736C223.261 51.796 223.298 51.8288 223.325 51.8692C223.353 51.9095 223.371 51.9563 223.377 52.0054C223.383 52.0545 223.378 52.1046 223.361 52.1514C219.024 64.198 214.573 76.4957 210.008 89.0445C206.909 97.5702 201.089 103.348 191.493 103.108C191.417 103.106 191.345 103.075 191.293 103.023C191.24 102.97 191.211 102.899 191.21 102.826L191.074 94.6513C191.074 94.4287 191.182 94.3146 191.399 94.3089C195.216 94.2404 197.981 92.6483 199.693 89.5325C200.352 88.3255 200.661 87.2641 200.104 85.9544C195.276 74.5355 190.529 63.245 185.861 52.0829C185.844 52.043 185.837 51.9995 185.841 51.9564C185.845 51.9132 185.859 51.8717 185.883 51.8353C185.906 51.799 185.939 51.7691 185.977 51.7481C186.014 51.7271 186.057 51.7157 186.1 51.7148L195.439 51.732C195.781 51.732 196.013 51.8917 196.132 52.2113L205.163 75.6911C205.346 76.1819 205.52 76.179 205.685 75.6825Z" fill="currentColor"/>
<path d="M462.909 87.9736C462.909 88.0848 462.865 88.1916 462.786 88.2704C462.708 88.3491 462.601 88.3935 462.49 88.3937L452.013 88.412C451.957 88.4121 451.903 88.4014 451.852 88.3804C451.801 88.3594 451.755 88.3286 451.716 88.2897C451.677 88.2508 451.646 88.2046 451.625 88.1538C451.603 88.1029 451.592 88.0484 451.592 87.9933L451.574 77.5674C451.574 77.4561 451.618 77.3494 451.697 77.2706C451.775 77.1918 451.882 77.1474 451.993 77.1472L462.47 77.1289C462.525 77.1288 462.58 77.1396 462.631 77.1605C462.682 77.1815 462.728 77.2124 462.767 77.2512C462.806 77.2901 462.837 77.3363 462.858 77.3872C462.879 77.438 462.89 77.4926 462.89 77.5477L462.909 87.9736Z" fill="currentColor"/>
</svg>
