<svg viewBox="0 0 442 124" fill="none" xmlns="http://www.w3.org/2000/svg">
<path d="M441.203 106.872L441.159 66.7091C440.689 46.0365 428.081 39.376 408.703 39.376C382.331 39.376 375.449 50.6157 375.2 61.2575H391.204C391.586 57.0105 395.337 52.0018 408.326 52.0018C420.215 52.0018 424.707 56.4968 424.707 63.6268V67.0014H420.215C397.594 67.0014 386.845 69.3707 380.096 73.6133C374.105 77.3687 371.223 82.4881 371.223 88.6128C371.223 98.493 378.216 108.236 398.224 108.236C410.472 108.236 420.751 103.745 426.002 97.6205C426.002 97.8863 426.002 100.349 426.024 100.614C426.095 103.475 426.002 106.85 426.002 106.85H441.225L441.203 106.872ZM424.17 83.8078C422.831 88.9494 416.569 96.4558 401.843 96.6374C392.096 96.7481 386.42 93.5728 386.42 88.0548C386.42 79.0471 401.013 76.8771 419.589 76.8771H424.707C424.707 76.8771 424.951 80.8363 424.192 83.8078H424.17Z" fill="currentColor"/>
<path d="M244.709 39.1045C218.333 39.1045 211.451 50.3442 211.207 60.9861H227.207C227.588 56.7391 231.344 51.7303 244.328 51.7303C256.221 51.7303 260.713 56.2209 260.713 63.3509V66.7299L277.161 66.4376C276.691 45.7651 264.088 39.1045 244.709 39.1045Z" fill="currentColor"/>
<path d="M260.716 76.6077C260.716 76.6077 260.96 80.5624 260.201 83.534C258.858 88.6755 252.601 96.1864 237.874 96.3635C228.127 96.4743 222.451 93.3034 222.451 87.781C222.451 78.7733 237.045 76.6077 255.621 76.6077H260.738V66.7275H256.246C233.626 66.7275 222.877 69.0968 216.127 73.3438C210.136 77.0993 207.254 82.2143 207.254 88.339C207.254 98.2191 214.247 107.962 234.251 107.962C246.499 107.962 256.782 103.471 262.033 97.3467C262.033 97.6168 262.033 100.075 262.055 100.34C262.122 103.201 262.033 106.576 262.033 106.576H277.252V83.1974C277.252 79.535 274.281 76.5855 270.636 76.5855H260.76L260.716 76.6077Z" fill="currentColor"/>
<path d="M165.23 87.3588V55.4863H154.973V42.4796C163.979 42.4796 166.103 39.2379 166.103 31.8643V24.1055H181.726V40.9828H198.732V55.4863H181.726V82.8682C181.726 91.6943 185.233 92.859 194.732 92.859H199.739V107.363C196.364 107.743 193.482 107.854 189.996 107.854C171.487 107.854 165.252 100.613 165.252 87.3588H165.23Z" fill="currentColor"/>
<path d="M361.972 17.7129V106.599H345.973V98.8443C340.585 104.721 329.836 108.587 319.845 108.587C298.968 108.587 284.844 94.5973 284.844 73.5882C284.844 52.579 299.101 38.97 320.47 38.97C329.969 38.97 339.467 42.969 345.481 49.3373V17.7129H361.972ZM345.481 71.644C345.481 60.7586 336.718 52.3576 323.353 52.3576C309.987 52.3576 301.225 60.8472 301.225 73.6103C301.225 86.3735 310.098 95.2483 323.601 95.2483C337.099 95.2483 345.481 87.6267 345.481 76.2497V71.644Z" fill="currentColor"/>
<path d="M111.442 6.32422H110.142C108.847 6.32422 107.641 7.0195 106.994 8.15765L88.0853 41.2568C87.1452 42.8909 84.7994 42.8909 83.8593 41.2568L64.9507 8.17979C64.3033 7.04165 63.0971 6.34636 61.8023 6.34636H21.8832C20.5839 6.34636 19.3777 7.04165 18.7303 8.17979L0.828375 39.4942C-0.555178 41.9299 1.18757 44.9458 3.98128 44.9458H38.1976C40.2109 44.9458 41.8427 46.5799 41.8427 48.5905V49.3035C41.8427 50.0652 41.6388 50.8048 41.2618 51.4735L20.8101 87.2785C20.1626 88.3945 20.1626 89.7806 20.8101 90.9011L38.6898 122.167C40.1 124.602 43.6077 124.602 45.0134 122.167L83.8815 54.1572C84.8216 52.5231 87.1674 52.5231 88.1075 54.1572L107.016 87.2563C107.663 88.3945 108.87 89.0898 110.165 89.0898H111.464C112.759 89.0898 113.965 88.3945 114.612 87.2563L134.261 52.8818C135.153 51.3185 135.623 49.5294 135.623 47.7181C135.623 45.9068 135.153 44.1442 134.261 42.5544L114.59 8.17979C113.943 7.04165 112.737 6.34636 111.442 6.34636V6.32422Z" fill="currentColor"/>
</svg>
